{
.appVersion = "1271";
DisplayStrings = (
"/ke-hira",
"/esmall-hira",
"",
"",
"/ri-hira",
"/ro-hira/ru-hira",
"/ma-hira/ru-hira/i-hira/ro-hira/n-hira/do-hira/so-kata/si-kata/ru-kata/ba-kata/hu-kata/ku-kata rs",
"/mo-hira/ti-hira/ro-hira/n-hira/ru-hira",
"/ro-hira",
"/n-hira",
"/n_voicedcomb-hira",
"/a-hira/to-hira/ro-hira/no-hira/ma-hira/tu-hira/ri-hira",
"/a-hira/to-hira/no-hira/ro-kata/yo-kata",
"/ro-kata",
"/do-hira",
"/a-hira/no-hira/ri-hira/ma-hira/ki-hira",
"/ho-hira/no-hira/ka-hira",
"/we-hira",
"/rosmall-kata",
"/rosmall-kata.vert",
"/to-hira",
"/tu-hira/ku-hira",
"/du-hira",
"/tusmall-hira",
"/tu-hira",
"/ka-kata/su-kata",
"/ga-kata",
"/yu-kata/ni-kata/ba-kata",
"/ba-kata",
"/ha-kata",
"/pa-kata",
"/so-hira/no-hira/da-hira",
"/zo-hira",
"/a-hira/so-hira/bo-hira/u-hira",
"/ka-kata",
"/ni-kata",
"/ka_semivoicedcomb-kata",
"/a-hira/so-hira/bo-hira",
"/a-hira/so-hira/bo-hira/u-hira",
"/a-hira/so-hira/ko-hira/da-hira",
"/ko-hira",
"/a-hira/na-hira/ta-hira/ka-hira/na-hira/so-hira/ke-hira/ri-hira/ke-hira/ka-hira/si-hira/a-hira/ka-hira",
"/a-hira/na-hira/ta-hira/no-hira/ka-hira/o-hira",
"/a_voicedcomb-hira",
"/asmall-hira",
"/asmall-hira.vert",
"/so-hira/ka-hira",
"/ka-hira/a-hira",
"/so-hira",
"/a-hira",
"/na-hira",
"/ga-hira",
"/ka_semivoicedcomb-hira",
"/kasmall-hira.vert",
"/kasmall-hira",
"/ka-hira/na-hira/ko-hira",
"/a-hira/ku-hira/ma-hira/si-hira/ri-hira/da-hira/sa-hira/i-hira/so-hira/wo-hira",
"/a-hira/ku-hira/ma-hira",
"/gu-hira",
"/gi-hira",
"/si-hira/ku-hira/na-hira i/wo-hira",
"/mi-hira",
"/ku-hira",
"/ku_semivoicedcomb-hira",
"/ko-hira/wo-hira/ne-hira/ru-hira",
"/wo-hira",
"/ru-hira/ro-hira/u-hira",
"/go-hira",
"/ti-hira",
"/di-hira",
"/ta-hira",
"/da-hira",
"/tu-hira \012/ma-hira/ti-hira/wo-hira",
"/esmall-hira.vert",
"/esmall-hira.vert",
"/esmall-hira.vert",
"/esmall-hira.vert",
"",
"/ho-hira",
"",
"/kusmall-kata",
"/repeatVoiced-kana",
"/i-hira",
"/ke_semivoicedcomb-hira",
"/wasmall-hira.vert",
"/yo-hira",
"",
"",
"/husmall_semivoicedcomb-kata",

glyphs = (
{
glyphname = X;
lastChange = "2020-03-18 17:43:12 +0000";
layers = (
{
layerId = "BE1754C0-A605-45AC-AA12-D3A1FC0C380B";
paths = (
{
closed = 1;
nodes = (
"900 -25 LINE",
"564 456 LINE",
"534 476 LINE",
"333 785 LINE",
"129 785 LINE",
"466 304 LINE",
"495 284 LINE",
"696 -25 LINE"
);
},
{
closed = 1;
nodes = (
"305 -25 LINE",
"506 284 LINE",
"535 304 LINE",
"872 785 LINE",
"668 785 LINE",
"467 476 LINE",
"437 456 LINE",
"101 -25 LINE"
);
}
);
width = 1000;
}
);
unicode = 0058;
},
{
glyphname = "a-hira";
lastChange = "2020-03-18 19:21:13 +0000";
layers = (
{
anchors = (
{
name = LSB;
position = "{22.802, 380}";
},
{
name = RSB;
position = "{970.387, 380}";
}
);
layerId = "BE1754C0-A605-45AC-AA12-D3A1FC0C380B";
paths = (
{
closed = 1;
nodes = (
"281 586 OFFCURVE",
"649 608 OFFCURVE",
"829 586 CURVE",
"834 724 LINE",
"659 745 OFFCURVE",
"275 726 OFFCURVE",
"116 694 CURVE",
"136 556 LINE"
);
},
{
closed = 1;
nodes = (
"498 117 LINE",
"388 313 OFFCURVE",
"433 698 OFFCURVE",
"516 814 CURVE",
"372 848 LINE",
"262 631 OFFCURVE",
"253 232 OFFCURVE",
"358 47 CURVE"
);
},
{
closed = 1;
nodes = (
"1085 138 OFFCURVE",
"934 528 OFFCURVE",
"534 523 CURVE SMOOTH",
"403 521 OFFCURVE",
"270 478 OFFCURVE",
"185 399 CURVE SMOOTH",
"102 322 OFFCURVE",
"45 224 OFFCURVE",
"49 129 CURVE SMOOTH",
"55 -16 OFFCURVE",
"146 -60 OFFCURVE",
"258 -60 CURVE",
"321 -60 OFFCURVE",
"396 -42 OFFCURVE",
"489 22 CURVE",
"643 126 OFFCURVE",
"700 396 OFFCURVE",
"703 568 CURVE",
"559 578 LINE",
"541 345 OFFCURVE",
"509 223 OFFCURVE",
"408 141 CURVE",
"334 80 OFFCURVE",
"183 54 OFFCURVE",
"187 141 CURVE SMOOTH",
"191 225 OFFCURVE",
"245 279 OFFCURVE",
"303 318 CURVE",
"378 368 OFFCURVE",
"468 382 OFFCURVE",
"547 382 CURVE",
"788 382 OFFCURVE",
"889 177 OFFCURVE",
"653 -7 CURVE",
"790 -86 LINE"
);
}
);
width = 1000;
}
);
unicode = 3042;
},
{
glyphname = "asmall-hira";
lastChange = "2020-03-18 19:21:13 +0000";
layers = (
{
anchors = (
{
name = LSB;
position = "{111.749, 380}";
},
{
name = RSB;
position = "{900.429, 380}";
}
);
layerId = "BE1754C0-A605-45AC-AA12-D3A1FC0C380B";
paths = (
{
closed = 1;
nodes = (
"747 -95 LINE",
"796 -58 OFFCURVE",
"832 -14 OFFCURVE",
"853 36 CURVE SMOOTH",
"873 81 OFFCURVE",
"879 131 OFFCURVE",
"871 178 CURVE SMOOTH",
"863 225 OFFCURVE",
"841 270 OFFCURVE",
"807 306 CURVE SMOOTH",
"774 343 OFFCURVE",
"730 371 OFFCURVE",
"679 389 CURVE",
"680 405 OFFCURVE",
"681 421 OFFCURVE",
"681 436 CURVE SMOOTH",
"681 446 LINE",
"652 448 LINE",
"699 447 OFFCURVE",
"739 445 OFFCURVE",
"771 441 CURVE",
"781 439 LINE",
"786 570 LINE",
"777 571 LINE SMOOTH",
"738 576 OFFCURVE",
"684 578 OFFCURVE",
"620 578 CURVE SMOOTH",
"583 578 OFFCURVE",
"544 577 OFFCURVE",
"504 576 CURVE",
"512 597 OFFCURVE",
"521 615 OFFCURVE",
"530 627 CURVE",
"538 639 LINE",
"401 672 LINE",
"397 665 LINE",
"383 636 OFFCURVE",
"370 604 OFFCURVE",
"360 567 CURVE",
"293 562 OFFCURVE",
"238 555 OFFCURVE",
"199 547 CURVE SMOOTH",
"190 545 LINE",
"209 415 LINE",
"219 417 LINE SMOOTH",
"247 423 OFFCURVE",
"287 428 OFFCURVE",
"333 433 CURVE",
"330 409 OFFCURVE",
"328 385 OFFCURVE",
"327 361 CURVE",
"298 346 OFFCURVE",
"272 329 OFFCURVE",
"250 308 CURVE SMOOTH",
"215 276 OFFCURVE",
"186 240 OFFCURVE",
"167 203 CURVE SMOOTH",
"146 163 OFFCURVE",
"136 123 OFFCURVE",
"138 85 CURVE SMOOTH",
"140 28 OFFCURVE",
"159 -15 OFFCURVE",
"194 -42 CURVE SMOOTH",
"223 -65 OFFCURVE",
"264 -76 OFFCURVE",
"315 -76 CURVE SMOOTH",
"377 -76 OFFCURVE",
"440 -54 OFFCURVE",
"505 -9 CURVE SMOOTH",
"544 17 OFFCURVE",
"577 57 OFFCURVE",
"604 109 CURVE SMOOTH",
"626 151 OFFCURVE",
"644 199 OFFCURVE",
"657 254 CURVE",
"698 233 OFFCURVE",
"722 201 OFFCURVE",
"727 162 CURVE SMOOTH",
"731 135 OFFCURVE",
"725 107 OFFCURVE",
"709 78 CURVE SMOOTH",
"692 46 OFFCURVE",
"663 14 OFFCURVE",
"625 -16 CURVE SMOOTH",
"613 -25 LINE",
"741 -99 LINE"
);
},
{
closed = 1;
nodes = (
"296 60 OFFCURVE",
"283 64 OFFCURVE",
"275 72 CURVE SMOOTH",
"270 77 OFFCURVE",
"268 85 OFFCURVE",
"268 94 CURVE",
"270 121 OFFCURVE",
"277 145 OFFCURVE",
"293 168 CURVE",
"302 182 OFFCURVE",
"315 196 OFFCURVE",
"331 209 CURVE",
"337 156 OFFCURVE",
"348 108 OFFCURVE",
"362 68 CURVE",
"345 63 OFFCURVE",
"328 60 OFFCURVE",
"314 60 CURVE SMOOTH"
);
},
{
closed = 1;
nodes = (
"475 197 OFFCURVE",
"470 232 OFFCURVE",
"467 271 CURVE",
"485 274 OFFCURVE",
"504 276 OFFCURVE",
"524 277 CURVE",
"514 231 OFFCURVE",
"501 195 OFFCURVE",
"483 165 CURVE"
);
},
{
closed = 1;
nodes = (
"470 418 OFFCURVE",
"471 431 OFFCURVE",
"473 444 CURVE",
"546 447 LINE",
"546 445 LINE",
"543 410 LINE",
"543 410 OFFCURVE",
"542 410 OFFCURVE",
"542 410 CURVE SMOOTH",
"536 410 LINE SMOOTH",
"513 410 OFFCURVE",
"491 408 OFFCURVE",
"468 405 CURVE"
);
}
);
width = 1000;
}
);
unicode = 3041;
},
{
glyphname = "i-hira";
lastChange = "2020-03-18 19:21:13 +0000";
layers = (
{
anchors = (
{
name = LSB;
position = "{35, 380}";
},
{
name = RSB;
position = "{1008, 380}";
}
);
layerId = "BE1754C0-A605-45AC-AA12-D3A1FC0C380B";
paths = (
{
closed = 1;
nodes = (
"982 509 LINE",
"920 570 OFFCURVE",
"789 684 OFFCURVE",
"679 741 CURVE",
"573 618 LINE",
"698 555 OFFCURVE",
"820 437 OFFCURVE",
"877 382 CURVE"
);
},
{
closed = 1;
nodes = (
"519 -20 OFFCURVE",
"582 43 OFFCURVE",
"640 158 CURVE",
"553 318 LINE",
"417 -87 OFFCURVE",
"235 315 OFFCURVE",
"221 774 CURVE",
"61 751 LINE",
"69 408 OFFCURVE",
"176 -20 OFFCURVE",
"422 -20 CURVE SMOOTH"
);
}
);
width = 1000;
}
);
unicode = 3044;
},
{
glyphname = "ismall-hira";
lastChange = "2020-03-18 19:21:13 +0000";
layers = (
{
anchors = (
{
name = LSB;
position = "{119, 380}";
},
{
name = RSB;
position = "{932, 380}";
}
);
layerId = "BE1754C0-A605-45AC-AA12-D3A1FC0C380B";
paths = (
{
closed = 1;
nodes = (
"485 -82 OFFCURVE",
"519 -69 OFFCURVE",
"550 -43 CURVE SMOOTH",
"577 -19 OFFCURVE",
"602 16 OFFCURVE",
"628 66 CURVE",
"630 71 LINE",
"547 224 LINE",
"540 202 LINE SMOOTH",
"512 120 OFFCURVE",
"480 75 OFFCURVE",
"449 75 CURVE SMOOTH",
"429 75 OFFCURVE",
"410 95 OFFCURVE",
"398 112 CURVE SMOOTH",
"380 137 OFFCURVE",
"363 174 OFFCURVE",
"348 220 CURVE SMOOTH",
"317 314 OFFCURVE",
"297 439 OFFCURVE",
"293 564 CURVE",
"293 575 LINE",
"145 554 LINE",
"145 545 LINE SMOOTH",
"149 392 OFFCURVE",
"176 241 OFFCURVE",
"219 130 CURVE SMOOTH",
"244 65 OFFCURVE",
"275 15 OFFCURVE",
"310 -21 CURVE SMOOTH",
"350 -61 OFFCURVE",
"395 -82 OFFCURVE",
"444 -82 CURVE SMOOTH"
);
},
{
closed = 1;
nodes = (
"906 352 LINE",
"899 359 LINE SMOOTH",
"851 406 OFFCURVE",
"745 499 OFFCURVE",
"654 546 CURVE",
"647 550 LINE",
"549 436 LINE",
"561 430 LINE SMOOTH",
"659 380 OFFCURVE",
"755 288 OFFCURVE",
"801 243 CURVE SMOOTH",
"809 235 LINE"
);
}
);
width = 1000;
}
);
unicode = 3043;
},
{
glyphname = "u-hira";
lastChange = "2020-03-18 19:21:13 +0000";
layers = (
{
anchors = (
{
name = LSB;
position = "{24, 380}";
},
{
name = RSB;
position = "{932.319, 380}";
}
);
layerId = "BE1754C0-A605-45AC-AA12-D3A1FC0C380B";
paths = (
{
closed = 1;
nodes = (
"689 36 OFFCURVE",
"916 180 OFFCURVE",
"906 399 CURVE SMOOTH",
"890 740 OFFCURVE",
"306 635 OFFCURVE",
"50 462 CURVE",
"131 315 LINE",
"342 460 OFFCURVE",
"721 535 OFFCURVE",
"747 407 CURVE SMOOTH",
"771 290 OFFCURVE",
"595 137 OFFCURVE",
"359 57 CURVE",
"493 -60 LINE"
);
},
{
closed = 1;
nodes = (
"699 743 LINE",
"574 750 OFFCURVE",
"438 811 OFFCURVE",
"326 873 CURVE",
"251 724 LINE",
"333 669 OFFCURVE",
"541 593 OFFCURVE",
"667 579 CURVE"
);
}
);
width = 1000;
}
);
unicode = 3046;
},
{
glyphname = "usmall-hira";
lastChange = "2020-03-18 19:21:13 +0000";
layers = (
{
anchors = (
{
name = LSB;
position = "{97, 380}";
},
{
name = RSB;
position = "{857.298, 380}";
}
);
layerId = "BE1754C0-A605-45AC-AA12-D3A1FC0C380B";
paths = (
{
closed = 1;
nodes = (
"495 -87 LINE SMOOTH",
"643 -14 OFFCURVE",
"840 104 OFFCURVE",
"831 290 CURVE SMOOTH",
"829 344 OFFCURVE",
"809 388 OFFCURVE",
"772 420 CURVE SMOOTH",
"741 446 OFFCURVE",
"700 464 OFFCURVE",
"648 473 CURVE",
"668 574 LINE",
"656 575 LINE SMOOTH",
"575 579 OFFCURVE",
"479 613 OFFCURVE",
"362 678 CURVE SMOOTH",
"353 683 LINE",
"284 546 LINE",
"292 541 LINE SMOOTH",
"325 519 OFFCURVE",
"385 492 OFFCURVE",
"450 469 CURVE",
"334 449 OFFCURVE",
"213 404 OFFCURVE",
"131 348 CURVE",
"123 343 LINE",
"198 208 LINE",
"207 214 LINE SMOOTH",
"310 285 OFFCURVE",
"471 338 OFFCURVE",
"583 338 CURVE SMOOTH",
"617 338 OFFCURVE",
"676 333 OFFCURVE",
"684 294 CURVE SMOOTH",
"693 253 OFFCURVE",
"666 202 OFFCURVE",
"610 152 CURVE SMOOTH",
"553 101 OFFCURVE",
"471 56 OFFCURVE",
"380 25 CURVE SMOOTH",
"364 20 LINE",
"489 -90 LINE"
);
}
);
width = 1000;
}
);
unicode = 3045;
},
{
glyphname = "e-hira";
lastChange = "2020-03-18 19:21:13 +0000";
layers = (
{
anchors = (
{
name = LSB;
position = "{9, 380}";
},
{
name = RSB;
position = "{986, 380}";
}
);
layerId = "BE1754C0-A605-45AC-AA12-D3A1FC0C380B";
paths = (
{
closed = 1;
nodes = (
"526 681 LINE",
"512 715 OFFCURVE",
"469 812 OFFCURVE",
"451 866 CURVE",
"306 825 LINE",
"319 766 OFFCURVE",
"356 678 OFFCURVE",
"393 624 CURVE"
);
},
{
closed = 1;
nodes = (
"205 15 OFFCURVE",
"367 117 OFFCURVE",
"454 148 CURVE SMOOTH",
"504 165 OFFCURVE",
"518 157 OFFCURVE",
"515 115 CURVE SMOOTH",
"510 53 OFFCURVE",
"554 -38 OFFCURVE",
"661 -38 CURVE SMOOTH",
"754 -38 OFFCURVE",
"926 93 OFFCURVE",
"960 122 CURVE",
"866 245 LINE",
"848 230 OFFCURVE",
"754 150 OFFCURVE",
"704 132 CURVE",
"684 122 OFFCURVE",
"669 134 OFFCURVE",
"672 159 CURVE SMOOTH",
"685 258 OFFCURVE",
"650 338 OFFCURVE",
"519 296 CURVE",
"518 298 LINE",
"592 344 OFFCURVE",
"479 268 OFFCURVE",
"530 307 CURVE SMOOTH",
"584 351 OFFCURVE",
"751 484 OFFCURVE",
"751 578 CURVE SMOOTH",
"751 759 OFFCURVE",
"407 672 OFFCURVE",
"103 589 CURVE",
"151 436 LINE",
"320 497 OFFCURVE",
"455 523 OFFCURVE",
"505 530 CURVE",
"544 537 OFFCURVE",
"551 523 OFFCURVE",
"521 494 CURVE",
"455 420 OFFCURVE",
"216 205 OFFCURVE",
"35 89 CURVE",
"142 -47 LINE"
);
}
);
width = 1000;
}
);
unicode = 3048;
},
{
glyphname = "esmall-hira";
lastChange = "2020-03-18 19:21:13 +0000";
layers = (
{
anchors = (
{
name = LSB;
position = "{94, 380}";
},
{
name = RSB;
position = "{914, 380}";
}
);
layerId = "BE1754C0-A605-45AC-AA12-D3A1FC0C380B";
paths = (
{
closed = 1;
nodes = (
"277 -15 OFFCURVE",
"407 64 OFFCURVE",
"473 90 CURVE SMOOTH",
"496 99 OFFCURVE",
"508 102 OFFCURVE",
"508 81 CURVE SMOOTH",
"508 65 OFFCURVE",
"506 19 OFFCURVE",
"542 -21 CURVE SMOOTH",
"565 -46 OFFCURVE",
"597 -60 OFFCURVE",
"635 -60 CURVE SMOOTH",
"712 -60 OFFCURVE",
"830 31 OFFCURVE",
"888 77 CURVE",
"801 191 LINE",
"720 123 OFFCURVE",
"686 103 OFFCURVE",
"666 96 CURVE SMOOTH",
"658 93 OFFCURVE",
"654 92 OFFCURVE",
"654 102 CURVE",
"656 137 LINE",
"656 209 OFFCURVE",
"625 236 OFFCURVE",
"558 236 CURVE",
"608 277 OFFCURVE",
"717 371 OFFCURVE",
"717 443 CURVE SMOOTH",
"717 541 OFFCURVE",
"600 544 OFFCURVE",
"533 536 CURVE",
"512 586 OFFCURVE",
"486 648 OFFCURVE",
"473 686 CURVE",
"339 648 LINE",
"349 601 OFFCURVE",
"368 554 OFFCURVE",
"389 513 CURVE",
"328 499 OFFCURVE",
"239 476 OFFCURVE",
"176 459 CURVE",
"221 316 LINE",
"385 377 OFFCURVE",
"507 396 OFFCURVE",
"527 396 CURVE",
"526 394 OFFCURVE",
"523 389 OFFCURVE",
"516 383 CURVE",
"462 323 OFFCURVE",
"271 151 OFFCURVE",
"120 54 CURVE",
"219 -72 LINE"
);
}
);
width = 1000;
}
);
unicode = 3047;
},
{
glyphname = "o-hira";
lastChange = "2020-03-18 19:21:13 +0000";
layers = (
{
anchors = (
{
name = LSB;
position = "{20.843, 380}";
},
{
name = RSB;
position = "{1023, 380}";
}
);
layerId = "BE1754C0-A605-45AC-AA12-D3A1FC0C380B";
paths = (
{
closed = 1;
nodes = (
"836 -19 OFFCURVE",
"893 81 OFFCURVE",
"899 191 CURVE SMOOTH",
"906 299 OFFCURVE",
"810 508 OFFCURVE",
"504 508 CURVE SMOOTH",
"237 508 OFFCURVE",
"57 347 OFFCURVE",
"47 162 CURVE SMOOTH",
"44 95 OFFCURVE",
"83 -33 OFFCURVE",
"242 -41 CURVE SMOOTH",
"406 -49 OFFCURVE",
"504 65 OFFCURVE",
"514 276 CURVE SMOOTH",
"528 542 OFFCURVE",
"485 767 OFFCURVE",
"470 839 CURVE",
"324 822 LINE",
"351 648 OFFCURVE",
"378 435 OFFCURVE",
"370 264 CURVE SMOOTH",
"363 106 OFFCURVE",
"269 103 OFFCURVE",
"251 104 CURVE SMOOTH",
"221 106 OFFCURVE",
"193 124 OFFCURVE",
"193 167 CURVE SMOOTH",
"195 256 OFFCURVE",
"332 367 OFFCURVE",
"504 367 CURVE SMOOTH",
"638 367 OFFCURVE",
"745 299 OFFCURVE",
"745 210 CURVE SMOOTH",
"745 120 OFFCURVE",
"660 49 OFFCURVE",
"595 22 CURVE",
"721 -78 LINE"
);
},
{
closed = 1;
nodes = (
"287 577 OFFCURVE",
"550 604 OFFCURVE",
"704 583 CURVE",
"709 724 LINE",
"570 737 OFFCURVE",
"241 720 OFFCURVE",
"101 674 CURVE",
"132 537 LINE"
);
},
{
closed = 1;
nodes = (
"997 492 LINE",
"941 589 OFFCURVE",
"871 672 OFFCURVE",
"813 734 CURVE",
"705 635 LINE",
"765 565 OFFCURVE",
"826 493 OFFCURVE",
"878 412 CURVE"
);
}
);
width = 1000;
}
);
unicode = 304A;
},
{
glyphname = "osmall-hira";
lastChange = "2020-03-18 19:21:13 +0000";
layers = (
{
anchors = (
{
name = LSB;
position = "{96.773, 380}";
},
{
name = RSB;
position = "{932, 380}";
}
);
layerId = "BE1754C0-A605-45AC-AA12-D3A1FC0C380B";
paths = (
{
closed = 1;
nodes = (
"677 -101 LINE SMOOTH",
"723 -78 OFFCURVE",
"759 -46 OFFCURVE",
"784 -6 CURVE SMOOTH",
"808 32 OFFCURVE",
"822 75 OFFCURVE",
"824 122 CURVE SMOOTH",
"827 165 OFFCURVE",
"811 231 OFFCURVE",
"759 288 CURVE SMOOTH",
"719 331 OFFCURVE",
"645 382 OFFCURVE",
"515 386 CURVE",
"512 431 LINE",
"527 432 OFFCURVE",
"543 432 OFFCURVE",
"557 432 CURVE SMOOTH",
"595 432 OFFCURVE",
"629 430 OFFCURVE",
"657 426 CURVE",
"668 425 LINE",
"669 451 LINE",
"714 399 OFFCURVE",
"754 349 OFFCURVE",
"789 294 CURVE SMOOTH",
"795 285 LINE",
"906 360 LINE",
"902 368 LINE",
"864 433 OFFCURVE",
"816 497 OFFCURVE",
"753 564 CURVE SMOOTH",
"746 571 LINE",
"671 502 LINE",
"673 558 LINE",
"663 559 LINE SMOOTH",
"639 561 OFFCURVE",
"608 562 OFFCURVE",
"571 562 CURVE SMOOTH",
"548 562 OFFCURVE",
"522 562 OFFCURVE",
"496 561 CURVE",
"492 589 OFFCURVE",
"487 617 OFFCURVE",
"481 643 CURVE SMOOTH",
"479 652 LINE",
"343 636 LINE",
"345 626 LINE",
"349 599 OFFCURVE",
"352 575 OFFCURVE",
"356 551 CURVE",
"298 545 OFFCURVE",
"224 535 OFFCURVE",
"173 519 CURVE SMOOTH",
"164 516 LINE",
"193 387 LINE",
"203 390 LINE",
"250 402 OFFCURVE",
"309 412 OFFCURVE",
"372 420 CURVE",
"373 403 OFFCURVE",
"375 387 OFFCURVE",
"376 371 CURVE",
"305 353 OFFCURVE",
"244 318 OFFCURVE",
"198 270 CURVE SMOOTH",
"152 221 OFFCURVE",
"126 162 OFFCURVE",
"123 100 CURVE SMOOTH",
"122 86 OFFCURVE",
"123 39 OFFCURVE",
"154 -5 CURVE SMOOTH",
"174 -34 OFFCURVE",
"214 -69 OFFCURVE",
"288 -73 CURVE",
"302 -73 LINE SMOOTH",
"334 -73 OFFCURVE",
"363 -67 OFFCURVE",
"389 -56 CURVE",
"414 -44 OFFCURVE",
"437 -27 OFFCURVE",
"455 -4 CURVE SMOOTH",
"492 42 OFFCURVE",
"512 107 OFFCURVE",
"516 190 CURVE",
"518 211 OFFCURVE",
"518 232 OFFCURVE",
"519 253 CURVE",
"563 250 OFFCURVE",
"603 237 OFFCURVE",
"633 217 CURVE SMOOTH",
"664 196 OFFCURVE",
"681 168 OFFCURVE",
"681 138 CURVE SMOOTH",
"681 100 OFFCURVE",
"661 70 OFFCURVE",
"643 51 CURVE",
"623 28 OFFCURVE",
"595 8 OFFCURVE",
"567 -3 CURVE",
"552 -10 LINE",
"671 -104 LINE"
);
},
{
closed = 1;
nodes = (
"283 64 OFFCURVE",
"260 71 OFFCURVE",
"260 103 CURVE SMOOTH",
"260 126 OFFCURVE",
"273 152 OFFCURVE",
"297 176 CURVE SMOOTH",
"319 198 OFFCURVE",
"349 217 OFFCURVE",
"382 231 CURVE",
"382 214 OFFCURVE",
"382 197 OFFCURVE",
"381 182 CURVE SMOOTH",
"379 134 OFFCURVE",
"367 99 OFFCURVE",
"344 80 CURVE SMOOTH",
"326 65 OFFCURVE",
"307 63 OFFCURVE",
"299 63 CURVE SMOOTH",
"297 63 LINE"
);
}
);
width = 1000;
}
);
unicode = 3049;
},
{
glyphname = "ka-hira";
lastChange = "2020-03-18 19:21:13 +0000";
layers = (
{
anchors = (
{
name = LSB;
position = "{8, 380}";
},
{
name = RSB;
position = "{1031, 380}";
}
);
layerId = "BE1754C0-A605-45AC-AA12-D3A1FC0C380B";
paths = (
{
closed = 1;
nodes = (
"742 622 OFFCURVE",
"812 528 OFFCURVE",
"875 412 CURVE",
"1005 502 LINE",
"935 621 OFFCURVE",
"876 694 OFFCURVE",
"781 790 CURVE",
"665 695 LINE"
);
},
{
closed = 1;
nodes = (
"301 289 OFFCURVE",
"388 586 OFFCURVE",
"493 821 CURVE",
"342 860 LINE",
"256 655 OFFCURVE",
"155 353 OFFCURVE",
"91 57 CURVE",
"252 30 LINE"
);
},
{
closed = 1;
nodes = (
"553 -68 LINE",
"659 45 OFFCURVE",
"723 151 OFFCURVE",
"745 297 CURVE",
"765 428 OFFCURVE",
"721 610 OFFCURVE",
"481 636 CURVE",
"280 668 OFFCURVE",
"77 578 OFFCURVE",
"34 565 CURVE",
"70 418 LINE",
"220 457 OFFCURVE",
"319 506 OFFCURVE",
"459 486 CURVE",
"575 476 OFFCURVE",
"608 412 OFFCURVE",
"575 275 CURVE",
"558 205 OFFCURVE",
"523 133 OFFCURVE",
"426 41 CURVE"
);
}
);
width = 1000;
}
);
unicode = 304B;
},
{
glyphname = "kasmall-hira";
lastChange = "2020-03-18 19:21:13 +0000";
layers = (
{
anchors = (
{
name = LSB;
position = "{95, 380}";
},
{
name = RSB;
position = "{949, 380}";
}
);
layerId = "BE1754C0-A605-45AC-AA12-D3A1FC0C380B";
paths = (
{
closed = 1;
nodes = (
"555 -60 LINE",
"601 -11 OFFCURVE",
"634 33 OFFCURVE",
"659 78 CURVE SMOOTH",
"685 127 OFFCURVE",
"703 180 OFFCURVE",
"711 237 CURVE SMOOTH",
"716 271 OFFCURVE",
"716 304 OFFCURVE",
"710 336 CURVE SMOOTH",
"703 372 OFFCURVE",
"689 405 OFFCURVE",
"668 432 CURVE SMOOTH",
"630 482 OFFCURVE",
"570 511 OFFCURVE",
"492 520 CURVE",
"480 522 OFFCURVE",
"468 523 OFFCURVE",
"456 524 CURVE",
"473 570 OFFCURVE",
"491 614 OFFCURVE",
"509 654 CURVE SMOOTH",
"514 665 LINE",
"373 701 LINE",
"370 693 LINE",
"347 639 OFFCURVE",
"324 578 OFFCURVE",
"301 514 CURVE",
"235 501 OFFCURVE",
"180 481 OFFCURVE",
"150 470 CURVE SMOOTH",
"141 467 OFFCURVE",
"134 464 OFFCURVE",
"130 463 CURVE",
"121 460 LINE",
"154 324 LINE",
"164 326 LINE",
"193 334 OFFCURVE",
"219 341 OFFCURVE",
"244 349 CURVE",
"245 349 OFFCURVE",
"246 350 OFFCURVE",
"247 350 CURVE",
"216 247 OFFCURVE",
"189 146 OFFCURVE",
"168 49 CURVE SMOOTH",
"166 39 LINE",
"315 14 LINE",
"317 23 LINE SMOOTH",
"339 141 OFFCURVE",
"370 265 OFFCURVE",
"408 384 CURVE",
"421 384 LINE SMOOTH",
"438 384 OFFCURVE",
"454 383 OFFCURVE",
"471 380 CURVE",
"472 380 LINE",
"511 377 OFFCURVE",
"536 366 OFFCURVE",
"551 346 CURVE SMOOTH",
"568 322 OFFCURVE",
"570 282 OFFCURVE",
"556 224 CURVE SMOOTH",
"544 177 OFFCURVE",
"522 120 OFFCURVE",
"439 41 CURVE",
"431 34 LINE",
"549 -67 LINE"
);
},
{
closed = 1;
nodes = (
"923 400 LINE",
"918 408 LINE SMOOTH",
"864 500 OFFCURVE",
"818 558 OFFCURVE",
"737 640 CURVE",
"731 647 LINE",
"622 558 LINE",
"631 550 LINE",
"691 492 OFFCURVE",
"747 417 OFFCURVE",
"797 326 CURVE",
"802 316 LINE"
);
}
);
width = 1000;
}
);
unicode = 3095;
},
{
glyphname = "ga-hira";
lastChange = "2020-03-18 19:21:13 +0000";
layers = (
{
anchors = (
{
name = LSB;
position = "{8, 380}";
},
{
name = RSB;
position = "{1031, 380}";
}
);
layerId = "BE1754C0-A605-45AC-AA12-D3A1FC0C380B";
paths = (
{
closed = 1;
nodes = (
"659 45 OFFCURVE",
"723 151 OFFCURVE",
"745 297 CURVE SMOOTH",
"765 428 OFFCURVE",
"721 610 OFFCURVE",
"481 636 CURVE",
"280 668 OFFCURVE",
"77 578 OFFCURVE",
"34 565 CURVE",
"70 418 LINE",
"220 457 OFFCURVE",
"319 506 OFFCURVE",
"459 486 CURVE",
"575 476 OFFCURVE",
"608 412 OFFCURVE",
"575 275 CURVE SMOOTH",
"558 205 OFFCURVE",
"523 133 OFFCURVE",
"426 41 CURVE",
"553 -68 LINE"
);
},
{
closed = 1;
nodes = (
"301 289 OFFCURVE",
"388 586 OFFCURVE",
"493 821 CURVE",
"342 860 LINE",
"256 655 OFFCURVE",
"155 353 OFFCURVE",
"91 57 CURVE",
"252 30 LINE"
);
},
{
closed = 1;
nodes = (
"1005 502 LINE",
"955 587 OFFCURVE",
"910 649 OFFCURVE",
"854 712 CURVE",
"785 661 LINE",
"767 682 LINE SMOOTH",
"757 693 OFFCURVE",
"741 718 OFFCURVE",
"726 745 CURVE",
"665 695 LINE",
"742 622 OFFCURVE",
"812 528 OFFCURVE",
"875 412 CURVE"
);
},
{
closed = 1;
nodes = (
"853 749 LINE",
"827 778 OFFCURVE",
"803 825 OFFCURVE",
"793 856 CURVE",
"722 828 LINE",
"730 794 OFFCURVE",
"772 721 OFFCURVE",
"789 701 CURVE"
);
},
{
closed = 1;
nodes = (
"973 774 LINE",
"943 799 OFFCURVE",
"912 840 OFFCURVE",
"896 869 CURVE",
"833 827 LINE",
"847 795 OFFCURVE",
"896 735 OFFCURVE",
"916 718 CURVE"
);
}
);
width = 1000;
}
);
unicode = 304C;
},
{
glyphname = "ki-hira";
lastChange = "2020-03-18 19:21:13 +0000";
layers = (
{
anchors = (
{
name = LSB;
position = "{47, 380}";
},
{
name = RSB;
position = "{923, 380}";
}
);
layerId = "BE1754C0-A605-45AC-AA12-D3A1FC0C380B";
paths = (
{
closed = 1;
nodes = (
"822 296 LINE",
"648 409 OFFCURVE",
"514 685 OFFCURVE",
"502 838 CURVE",
"349 825 LINE",
"396 520 OFFCURVE",
"569 292 OFFCURVE",
"716 189 CURVE"
);
},
{
closed = 1;
nodes = (
"658 95 LINE",
"510 79 OFFCURVE",
"305 123 OFFCURVE",
"217 259 CURVE",
"111 147 LINE",
"212 19 OFFCURVE",
"360 -59 OFFCURVE",
"611 -59 CURVE"
);
},
{
closed = 1;
nodes = (
"296 369 OFFCURVE",
"755 416 OFFCURVE",
"897 404 CURVE",
"890 539 LINE",
"704 556 OFFCURVE",
"258 496 OFFCURVE",
"95 438 CURVE",
"122 304 LINE"
);
},
{
closed = 1;
nodes = (
"276 578 OFFCURVE",
"693 634 OFFCURVE",
"852 628 CURVE",
"850 756 LINE",
"708 768 OFFCURVE",
"248 706 OFFCURVE",
"73 645 CURVE",
"109 522 LINE"
);
}
);
width = 1000;
}
);
unicode = 304D;
},
{
glyphname = "gi-hira";
lastChange = "2020-03-18 19:21:13 +0000";
layers = (
{
anchors = (
{
name = LSB;
position = "{47, 380}";
},
{
name = RSB;
position = "{1007, 380}";
}
);
layerId = "BE1754C0-A605-45AC-AA12-D3A1FC0C380B";
paths = (
{
closed = 1;
nodes = (
"822 296 LINE",
"781 323 OFFCURVE",
"741 359 OFFCURVE",
"706 400 CURVE",
"787 406 OFFCURVE",
"855 408 OFFCURVE",
"897 404 CURVE",
"890 539 LINE",
"823 545 OFFCURVE",
"722 541 OFFCURVE",
"613 531 CURVE",
"598 557 OFFCURVE",
"584 583 OFFCURVE",
"572 610 CURVE",
"684 623 OFFCURVE",
"789 630 OFFCURVE",
"852 628 CURVE",
"851 671 LINE",
"817 634 LINE",
"795 651 LINE SMOOTH",
"775 667 OFFCURVE",
"732 716 OFFCURVE",
"709 753 CURVE",
"653 750 OFFCURVE",
"589 743 OFFCURVE",
"523 734 CURVE",
"511 772 OFFCURVE",
"504 808 OFFCURVE",
"502 838 CURVE",
"349 825 LINE",
"355 786 OFFCURVE",
"363 749 OFFCURVE",
"373 712 CURVE",
"253 693 OFFCURVE",
"141 669 OFFCURVE",
"73 645 CURVE",
"109 522 LINE",
"179 546 OFFCURVE",
"294 569 OFFCURVE",
"415 588 CURVE",
"425 562 OFFCURVE",
"437 536 OFFCURVE",
"449 512 CURVE",
"307 492 OFFCURVE",
"171 465 OFFCURVE",
"95 438 CURVE",
"122 304 LINE",
"210 337 OFFCURVE",
"371 365 OFFCURVE",
"527 383 CURVE",
"587 299 OFFCURVE",
"654 233 OFFCURVE",
"716 189 CURVE"
);
},
{
closed = 1;
nodes = (
"658 95 LINE",
"510 79 OFFCURVE",
"305 123 OFFCURVE",
"217 259 CURVE",
"111 147 LINE",
"212 19 OFFCURVE",
"360 -59 OFFCURVE",
"611 -59 CURVE"
);
},
{
closed = 1;
nodes = (
"867 732 LINE",
"837 756 OFFCURVE",
"805 798 OFFCURVE",
"789 827 CURVE",
"724 787 LINE",
"738 755 OFFCURVE",
"793 690 OFFCURVE",
"814 674 CURVE"
);
},
{
closed = 1;
nodes = (
"981 779 LINE",
"947 798 OFFCURVE",
"909 833 OFFCURVE",
"887 859 CURVE",
"834 806 LINE",
"853 777 OFFCURVE",
"913 726 OFFCURVE",
"935 714 CURVE"
);
}
);
width = 1000;
}
);
unicode = 304E;
},
{
glyphname = "ku-hira";
lastChange = "2020-03-18 19:21:13 +0000";
layers = (
{
anchors = (
{
name = LSB;
position = "{101.875, 380}";
},
{
name = RSB;
position = "{872, 380}";
}
);
layerId = "BE1754C0-A605-45AC-AA12-D3A1FC0C380B";
paths = (
{
closed = 1;
nodes = (
"846 100 LINE",
"646 153 OFFCURVE",
"441 236 OFFCURVE",
"349 309 CURVE",
"311 339 OFFCURVE",
"303 371 OFFCURVE",
"351 413 CURVE",
"427 478 OFFCURVE",
"611 595 OFFCURVE",
"784 686 CURVE",
"674 826 LINE",
"559 754 OFFCURVE",
"327 607 OFFCURVE",
"238 526 CURVE",
"92 392 OFFCURVE",
"89 300 OFFCURVE",
"242 184 CURVE",
"387 72 OFFCURVE",
"618 -14 OFFCURVE",
"764 -59 CURVE"
);
}
);
width = 1000;
}
);
unicode = 304F;
},
{
glyphname = "gu-hira";
lastChange = "2020-03-18 19:21:13 +0000";
layers = (
{
anchors = (
{
name = LSB;
position = "{101.875, 380}";
},
{
name = RSB;
position = "{957, 380}";
}
);
layerId = "BE1754C0-A605-45AC-AA12-D3A1FC0C380B";
paths = (
{
closed = 1;
nodes = (
"931 567 LINE",
"896 583 OFFCURVE",
"854 614 OFFCURVE",
"831 637 CURVE",
"782 580 LINE",
"804 554 OFFCURVE",
"867 508 OFFCURVE",
"891 498 CURVE"
);
},
{
closed = 1;
nodes = (
"822 510 LINE",
"790 531 OFFCURVE",
"753 570 OFFCURVE",
"735 597 CURVE",
"675 552 LINE",
"691 522 OFFCURVE",
"752 462 OFFCURVE",
"773 448 CURVE"
);
},
{
closed = 1;
nodes = (
"846 100 LINE",
"646 153 OFFCURVE",
"441 236 OFFCURVE",
"349 309 CURVE",
"311 339 OFFCURVE",
"303 371 OFFCURVE",
"351 413 CURVE",
"427 478 OFFCURVE",
"611 595 OFFCURVE",
"784 686 CURVE",
"674 826 LINE",
"559 754 OFFCURVE",
"327 607 OFFCURVE",
"238 526 CURVE",
"92 392 OFFCURVE",
"89 300 OFFCURVE",
"242 184 CURVE",
"387 72 OFFCURVE",
"618 -14 OFFCURVE",
"764 -59 CURVE"
);
}
);
width = 1000;
}
);
unicode = 3050;
},
{
glyphname = "ke-hira";
lastChange = "2020-03-18 19:21:13 +0000";
layers = (
{
anchors = (
{
name = LSB;
position = "{47.222, 380}";
},
{
name = RSB;
position = "{988, 380}";
}
);
layerId = "BE1754C0-A605-45AC-AA12-D3A1FC0C380B";
paths = (
{
closed = 1;
nodes = (
"543 487 OFFCURVE",
"799 510 OFFCURVE",
"948 472 CURVE",
"962 630 LINE",
"828 663 OFFCURVE",
"497 650 OFFCURVE",
"343 565 CURVE",
"381 425 LINE"
);
},
{
closed = 1;
nodes = (
"295 35 LINE",
"207 242 OFFCURVE",
"223 558 OFFCURVE",
"268 748 CURVE",
"115 774 LINE",
"59 544 OFFCURVE",
"53 193 OFFCURVE",
"136 0 CURVE"
);
},
{
closed = 1;
nodes = (
"894 156 OFFCURVE",
"821 482 OFFCURVE",
"762 822 CURVE",
"599 809 LINE",
"668 487 OFFCURVE",
"735 212 OFFCURVE",
"463 41 CURVE",
"588 -69 LINE"
);
}
);
width = 1000;
}
);
unicode = 3051;
},
{
glyphname = "ge-hira";
lastChange = "2020-03-18 19:21:13 +0000";
layers = (
{
anchors = (
{
name = LSB;
position = "{47.222, 380}";
},
{
name = RSB;
position = "{1005, 380}";
}
);
layerId = "BE1754C0-A605-45AC-AA12-D3A1FC0C380B";
paths = (
{
closed = 1;
nodes = (
"792 81 OFFCURVE",
"827 276 OFFCURVE",
"811 490 CURVE",
"862 488 OFFCURVE",
"909 482 OFFCURVE",
"948 472 CURVE",
"962 630 LINE",
"920 640 OFFCURVE",
"860 646 OFFCURVE",
"792 647 CURVE",
"792 648 LINE",
"791 647 LINE",
"772 668 LINE SMOOTH",
"752 691 OFFCURVE",
"708 769 OFFCURVE",
"699 807 CURVE",
"696 817 LINE",
"599 809 LINE",
"611 751 OFFCURVE",
"624 694 OFFCURVE",
"634 639 CURVE",
"524 628 OFFCURVE",
"414 604 OFFCURVE",
"343 565 CURVE",
"381 425 LINE",
"459 455 OFFCURVE",
"558 475 OFFCURVE",
"657 485 CURVE",
"673 304 OFFCURVE",
"638 151 OFFCURVE",
"463 41 CURVE",
"588 -69 LINE"
);
},
{
closed = 1;
nodes = (
"295 35 LINE",
"207 242 OFFCURVE",
"223 558 OFFCURVE",
"268 748 CURVE",
"115 774 LINE",
"59 544 OFFCURVE",
"53 193 OFFCURVE",
"136 0 CURVE"
);
},
{
closed = 1;
nodes = (
"858 735 LINE",
"833 764 OFFCURVE",
"809 811 OFFCURVE",
"798 842 CURVE",
"727 814 LINE",
"736 781 OFFCURVE",
"778 707 OFFCURVE",
"795 688 CURVE"
);
},
{
closed = 1;
nodes = (
"979 761 LINE",
"949 785 OFFCURVE",
"917 827 OFFCURVE",
"901 856 CURVE",
"839 813 LINE",
"853 782 OFFCURVE",
"902 721 OFFCURVE",
"922 705 CURVE"
);
}
);
width = 1000;
}
);
unicode = 3052;
},
{
glyphname = "kesmall-hira";
lastChange = "2020-03-18 19:21:13 +0000";
layers = (
{
anchors = (
{
name = LSB;
position = "{119.024, 380}";
},
{
name = RSB;
position = "{903, 380}";
}
);
layerId = "BE1754C0-A605-45AC-AA12-D3A1FC0C380B";
paths = (
{
closed = 1;
nodes = (
"573 -94 LINE SMOOTH",
"651 -36 OFFCURVE",
"703 32 OFFCURVE",
"732 115 CURVE SMOOTH",
"755 182 OFFCURVE",
"762 257 OFFCURVE",
"756 350 CURVE",
"793 348 OFFCURVE",
"825 344 OFFCURVE",
"852 337 CURVE SMOOTH",
"864 334 LINE",
"877 481 LINE",
"868 483 LINE SMOOTH",
"837 491 OFFCURVE",
"791 495 OFFCURVE",
"739 496 CURVE",
"733 528 OFFCURVE",
"728 561 OFFCURVE",
"722 593 CURVE SMOOTH",
"716 628 LINE",
"714 637 LINE",
"564 625 LINE",
"566 614 LINE",
"570 595 LINE SMOOTH",
"578 558 OFFCURVE",
"585 524 OFFCURVE",
"592 489 CURVE",
"497 479 OFFCURVE",
"417 458 OFFCURVE",
"366 430 CURVE SMOOTH",
"359 426 LINE",
"395 296 LINE",
"405 300 LINE SMOOTH",
"462 322 OFFCURVE",
"535 338 OFFCURVE",
"613 346 CURVE",
"618 271 OFFCURVE",
"612 213 OFFCURVE",
"592 162 CURVE SMOOTH",
"569 100 OFFCURVE",
"526 51 OFFCURVE",
"462 10 CURVE",
"450 3 LINE",
"566 -99 LINE"
);
},
{
closed = 1;
nodes = (
"346 -10 LINE",
"342 1 LINE",
"310 75 OFFCURVE",
"293 174 OFFCURVE",
"292 288 CURVE SMOOTH",
"291 382 OFFCURVE",
"301 484 OFFCURVE",
"321 565 CURVE",
"323 576 LINE",
"181 600 LINE",
"179 591 LINE SMOOTH",
"134 407 OFFCURVE",
"128 123 OFFCURVE",
"196 -35 CURVE SMOOTH",
"199 -42 LINE"
);
}
);
width = 1000;
}
);
unicode = 3096;
},
{
glyphname = "ko-hira";
lastChange = "2020-03-18 19:21:13 +0000";
layers = (
{
anchors = (
{
name = LSB;
position = "{81.83, 380}";
},
{
name = RSB;
position = "{902, 380}";
}
);
layerId = "BE1754C0-A605-45AC-AA12-D3A1FC0C380B";
paths = (
{
closed = 1;
nodes = (
"826 223 LINE",
"641 136 OFFCURVE",
"236 53 OFFCURVE",
"250 297 CURVE",
"108 253 LINE",
"98 -64 OFFCURVE",
"531 -93 OFFCURVE",
"876 59 CURVE"
);
},
{
closed = 1;
nodes = (
"811 690 LINE",
"662 772 OFFCURVE",
"428 802 OFFCURVE",
"185 745 CURVE",
"202 585 LINE",
"358 619 OFFCURVE",
"622 610 OFFCURVE",
"764 539 CURVE"
);
}
);
width = 1000;
}
);
unicode = 3053;
},
{
glyphname = "go-hira";
lastChange = "2020-03-18 19:21:13 +0000";
layers = (
{
anchors = (
{
name = LSB;
position = "{81.83, 380}";
},
{
name = RSB;
position = "{1010, 380}";
}
);
layerId = "BE1754C0-A605-45AC-AA12-D3A1FC0C380B";
paths = (
{
closed = 1;
nodes = (
"826 223 LINE",
"641 136 OFFCURVE",
"236 53 OFFCURVE",
"250 297 CURVE",
"108 253 LINE",
"98 -64 OFFCURVE",
"531 -93 OFFCURVE",
"876 59 CURVE"
);
},
{
closed = 1;
nodes = (
"811 690 LINE",
"662 772 OFFCURVE",
"428 802 OFFCURVE",
"185 745 CURVE",
"202 585 LINE",
"358 619 OFFCURVE",
"622 610 OFFCURVE",
"764 539 CURVE"
);
},
{
closed = 1;
nodes = (
"875 759 LINE",
"852 786 OFFCURVE",
"831 828 OFFCURVE",
"821 856 CURVE",
"757 831 LINE",
"765 801 OFFCURVE",
"803 734 OFFCURVE",
"818 717 CURVE"
);
},
{
closed = 1;
nodes = (
"984 782 LINE",
"957 804 OFFCURVE",
"928 842 OFFCURVE",
"914 868 CURVE",
"858 830 LINE",
"870 801 OFFCURVE",
"914 747 OFFCURVE",
"932 732 CURVE"
);
}
);
width = 1000;
}
);
unicode = 3054;
},
{
glyphname = "sa-hira";
lastChange = "2020-03-18 19:21:13 +0000";
layers = (
{
anchors = (
{
name = LSB;
position = "{51, 380}";
},
{
name = RSB;
position = "{930, 380}";
}
);
layerId = "BE1754C0-A605-45AC-AA12-D3A1FC0C380B";
paths = (
{
closed = 1;
nodes = (
"298 508 OFFCURVE",
"714 560 OFFCURVE",
"904 543 CURVE",
"898 699 LINE",
"703 714 OFFCURVE",
"257 660 OFFCURVE",
"77 605 CURVE",
"120 457 LINE"
);
},
{
closed = 1;
nodes = (
"611 86 LINE",
"391 93 OFFCURVE",
"273 213 OFFCURVE",
"230 286 CURVE",
"95 207 LINE",
"170 61 OFFCURVE",
"343 -55 OFFCURVE",
"557 -68 CURVE"
);
},
{
closed = 1;
nodes = (
"868 286 LINE",
"713 432 OFFCURVE",
"596 672 OFFCURVE",
"546 852 CURVE",
"391 830 LINE",
"457 603 OFFCURVE",
"589 342 OFFCURVE",
"753 174 CURVE"
);
}
);
width = 1000;
}
);
unicode = 3055;
},
{
glyphname = "za-hira";
lastChange = "2020-03-18 19:21:13 +0000";
layers = (
{
anchors = (
{
name = LSB;
position = "{51, 380}";
},
{
name = RSB;
position = "{992, 380}";
}
);
layerId = "BE1754C0-A605-45AC-AA12-D3A1FC0C380B";
paths = (
{
closed = 1;
nodes = (
"868 286 LINE",
"713 432 OFFCURVE",
"596 672 OFFCURVE",
"546 852 CURVE",
"391 830 LINE",
"457 603 OFFCURVE",
"589 342 OFFCURVE",
"753 174 CURVE"
);
},
{
closed = 1;
nodes = (
"611 86 LINE",
"391 93 OFFCURVE",
"273 213 OFFCURVE",
"230 286 CURVE",
"95 207 LINE",
"170 61 OFFCURVE",
"343 -55 OFFCURVE",
"557 -68 CURVE"
);
},
{
closed = 1;
nodes = (
"298 508 OFFCURVE",
"714 560 OFFCURVE",
"904 543 CURVE",
"898 699 LINE",
"703 714 OFFCURVE",
"257 660 OFFCURVE",
"77 605 CURVE",
"120 457 LINE"
);
},
{
closed = 1;
nodes = (
"857 759 LINE",
"834 785 OFFCURVE",
"813 827 OFFCURVE",
"803 855 CURVE",
"740 830 LINE",
"747 800 OFFCURVE",
"785 734 OFFCURVE",
"800 716 CURVE"
);
},
{
closed = 1;
nodes = (
"966 782 LINE",
"939 804 OFFCURVE",
"910 841 OFFCURVE",
"896 867 CURVE",
"840 829 LINE",
"852 801 OFFCURVE",
"896 746 OFFCURVE",
"914 732 CURVE"
);
}
);
width = 1000;
}
);
unicode = 3056;
},
{
glyphname = "si-hira";
lastChange = "2020-03-18 19:21:13 +0000";
layers = (
{
anchors = (
{
name = LSB;
position = "{115.068, 380}";
},
{
name = RSB;
position = "{930, 380}";
}
);
layerId = "BE1754C0-A605-45AC-AA12-D3A1FC0C380B";
paths = (
{
closed = 1;
nodes = (
"285 832 LINE",
"211 669 OFFCURVE",
"162 527 OFFCURVE",
"145 370 CURVE SMOOTH",
"120 156 OFFCURVE",
"213 -40 OFFCURVE",
"459 -53 CURVE SMOOTH",
"705 -66 OFFCURVE",
"828 99 OFFCURVE",
"904 236 CURVE",
"754 319 LINE",
"715 212 OFFCURVE",
"605 85 OFFCURVE",
"474 102 CURVE SMOOTH",
"293 125 OFFCURVE",
"298 280 OFFCURVE",
"311 370 CURVE SMOOTH",
"329 499 OFFCURVE",
"370 627 OFFCURVE",
"444 776 CURVE"
);
}
);
width = 1000;
}
);
unicode = 3057;
},
{
glyphname = "zi-hira";
lastChange = "2020-03-18 19:21:13 +0000";
layers = (
{
anchors = (
{
name = LSB;
position = "{126.866, 380}";
},
{
name = RSB;
position = "{918, 380}";
}
);
layerId = "BE1754C0-A605-45AC-AA12-D3A1FC0C380B";
paths = (
{
closed = 1;
nodes = (
"699 -66 OFFCURVE",
"818 99 OFFCURVE",
"892 236 CURVE",
"745 319 LINE",
"707 212 OFFCURVE",
"605 99 OFFCURVE",
"478 102 CURVE",
"303 124 OFFCURVE",
"309 275 OFFCURVE",
"319 365 CURVE SMOOTH",
"334 495 OFFCURVE",
"370 624 OFFCURVE",
"437 774 CURVE",
"278 826 LINE",
"210 662 OFFCURVE",
"168 518 OFFCURVE",
"155 361 CURVE SMOOTH",
"138 146 OFFCURVE",
"221 -40 OFFCURVE",
"460 -53 CURVE SMOOTH"
);
},
{
closed = 1;
nodes = (
"755 638 LINE",
"729 667 OFFCURVE",
"705 714 OFFCURVE",
"694 746 CURVE",
"624 718 LINE",
"632 684 OFFCURVE",
"674 610 OFFCURVE",
"691 591 CURVE"
);
},
{
closed = 1;
nodes = (
"875 664 LINE",
"845 688 OFFCURVE",
"814 730 OFFCURVE",
"797 759 CURVE",
"735 717 LINE",
"749 685 OFFCURVE",
"798 624 OFFCURVE",
"818 608 CURVE"
);
}
);
width = 1000;
}
);
unicode = 3058;
},
{
glyphname = "su-hira";
lastChange = "2020-03-18 19:21:13 +0000";
layers = (
{
anchors = (
{
name = LSB;
position = "{3, 380}";
},
{
name = RSB;
position = "{954, 380}";
}
);
layerId = "BE1754C0-A605-45AC-AA12-D3A1FC0C380B";
paths = (
{
closed = 1;
nodes = (
"524 -89 LINE",
"525 -89 LINE",
"615 -52 OFFCURVE",
"721 33 OFFCURVE",
"743 199 CURVE SMOOTH",
"765 367 OFFCURVE",
"648 510 OFFCURVE",
"476 531 CURVE SMOOTH",
"305 551 OFFCURVE",
"224 446 OFFCURVE",
"211 338 CURVE SMOOTH",
"201 257 OFFCURVE",
"258 148 OFFCURVE",
"397 131 CURVE SMOOTH",
"538 113 OFFCURVE",
"671 214 OFFCURVE",
"703 445 CURVE SMOOTH",
"717 547 OFFCURVE",
"702 767 OFFCURVE",
"662 835 CURVE",
"665 835 OFFCURVE",
"628 834 OFFCURVE",
"509 830 CURVE",
"509 831 LINE",
"511 830 LINE",
"531 777 OFFCURVE",
"586 611 OFFCURVE",
"559 423 CURVE SMOOTH",
"550 359 OFFCURVE",
"506 257 OFFCURVE",
"403 271 CURVE",
"381 273 OFFCURVE",
"351 293 OFFCURVE",
"356 334 CURVE SMOOTH",
"362 377 OFFCURVE",
"410 404 OFFCURVE",
"463 397 CURVE SMOOTH",
"524 389 OFFCURVE",
"623 342 OFFCURVE",
"609 219 CURVE SMOOTH",
"598 126 OFFCURVE",
"503 33 OFFCURVE",
"386 -3 CURVE",
"525 -89 LINE"
);
},
{
closed = 1;
nodes = (
"287 585 OFFCURVE",
"732 613 OFFCURVE",
"912 580 CURVE",
"928 724 LINE",
"743 753 OFFCURVE",
"307 733 OFFCURVE",
"29 657 CURVE",
"65 516 LINE"
);
}
);
width = 1000;
}
);
unicode = 3059;
},
{
glyphname = "zu-hira";
lastChange = "2020-03-18 19:21:13 +0000";
layers = (
{
anchors = (
{
name = LSB;
position = "{3, 380}";
},
{
name = RSB;
position = "{1009, 380}";
}
);
layerId = "BE1754C0-A605-45AC-AA12-D3A1FC0C380B";
paths = (
{
closed = 1;
nodes = (
"615 -52 OFFCURVE",
"721 33 OFFCURVE",
"743 199 CURVE SMOOTH",
"753 275 OFFCURVE",
"734 345 OFFCURVE",
"696 402 CURVE",
"698 416 OFFCURVE",
"701 430 OFFCURVE",
"703 445 CURVE SMOOTH",
"708 483 OFFCURVE",
"709 537 OFFCURVE",
"707 594 CURVE",
"789 594 OFFCURVE",
"861 589 OFFCURVE",
"912 580 CURVE",
"923 679 LINE",
"907 691 LINE",
"900 697 OFFCURVE",
"890 707 OFFCURVE",
"879 720 CURVE",
"795 657 LINE",
"776 678 LINE",
"767 689 OFFCURVE",
"752 711 OFFCURVE",
"738 737 CURVE",
"692 737 LINE",
"684 779 OFFCURVE",
"674 814 OFFCURVE",
"662 835 CURVE",
"659 835 OFFCURVE",
"620 834 OFFCURVE",
"511 830 CURVE",
"518 811 OFFCURVE",
"530 776 OFFCURVE",
"541 732 CURVE",
"366 722 OFFCURVE",
"176 697 OFFCURVE",
"29 657 CURVE",
"65 516 LINE",
"190 555 OFFCURVE",
"385 581 OFFCURVE",
"564 590 CURVE",
"566 563 OFFCURVE",
"567 536 OFFCURVE",
"566 507 CURVE",
"538 519 OFFCURVE",
"508 527 OFFCURVE",
"476 531 CURVE SMOOTH",
"305 551 OFFCURVE",
"224 446 OFFCURVE",
"211 338 CURVE SMOOTH",
"201 257 OFFCURVE",
"258 148 OFFCURVE",
"397 131 CURVE SMOOTH",
"475 121 OFFCURVE",
"551 148 OFFCURVE",
"608 212 CURVE",
"593 122 OFFCURVE",
"500 32 OFFCURVE",
"386 -3 CURVE",
"525 -89 LINE"
);
},
{
closed = 1;
nodes = (
"381 273 OFFCURVE",
"351 293 OFFCURVE",
"356 334 CURVE SMOOTH",
"362 377 OFFCURVE",
"410 404 OFFCURVE",
"463 397 CURVE SMOOTH",
"487 394 OFFCURVE",
"517 385 OFFCURVE",
"544 367 CURVE",
"522 313 OFFCURVE",
"479 261 OFFCURVE",
"403 271 CURVE"
);
},
{
closed = 1;
nodes = (
"862 745 LINE",
"837 774 OFFCURVE",
"813 821 OFFCURVE",
"802 852 CURVE",
"732 824 LINE",
"740 790 OFFCURVE",
"782 717 OFFCURVE",
"799 697 CURVE"
);
},
{
closed = 1;
nodes = (
"983 770 LINE",
"953 795 OFFCURVE",
"921 836 OFFCURVE",
"905 865 CURVE",
"843 823 LINE",
"857 791 OFFCURVE",
"906 731 OFFCURVE",
"926 715 CURVE"
);
}
);
width = 1000;
}
);
unicode = 305A;
},
{
glyphname = "se-hira";
lastChange = "2020-03-18 19:21:13 +0000";
layers = (
{
anchors = (
{
name = LSB;
position = "{-8, 380}";
},
{
name = RSB;
position = "{959, 380}";
}
);
layerId = "BE1754C0-A605-45AC-AA12-D3A1FC0C380B";
paths = (
{
closed = 1;
nodes = (
"718 402 OFFCURVE",
"736 700 OFFCURVE",
"756 801 CURVE",
"603 804 LINE",
"577 685 OFFCURVE",
"575 370 OFFCURVE",
"588 246 CURVE",
"734 256 LINE"
);
},
{
closed = 1;
nodes = (
"280 452 OFFCURVE",
"700 493 OFFCURVE",
"932 474 CURVE",
"933 627 LINE",
"739 648 OFFCURVE",
"221 589 OFFCURVE",
"18 524 CURVE",
"42 374 LINE"
);
},
{
closed = 1;
nodes = (
"622 -56 OFFCURVE",
"741 -34 OFFCURVE",
"875 29 CURVE",
"850 188 LINE",
"718 129 OFFCURVE",
"606 98 OFFCURVE",
"474 104 CURVE SMOOTH",
"334 110 OFFCURVE",
"338 255 OFFCURVE",
"342 337 CURVE",
"343 440 OFFCURVE",
"377 659 OFFCURVE",
"408 773 CURVE",
"255 791 LINE",
"239 738 OFFCURVE",
"195 543 OFFCURVE",
"191 328 CURVE SMOOTH",
"186 71 OFFCURVE",
"271 -39 OFFCURVE",
"485 -50 CURVE SMOOTH"
);
}
);
width = 1000;
}
);
unicode = 305B;
},
{
glyphname = "ze-hira";
lastChange = "2020-03-18 19:21:13 +0000";
layers = (
{
anchors = (
{
name = LSB;
position = "{-10, 380}";
},
{
name = RSB;
position = "{992, 380}";
}
);
layerId = "BE1754C0-A605-45AC-AA12-D3A1FC0C380B";
paths = (
{
closed = 1;
nodes = (
"623 -58 OFFCURVE",
"742 -36 OFFCURVE",
"877 28 CURVE",
"852 191 LINE",
"719 131 OFFCURVE",
"607 100 OFFCURVE",
"474 106 CURVE SMOOTH",
"336 112 OFFCURVE",
"340 255 OFFCURVE",
"344 337 CURVE",
"344 365 OFFCURVE",
"347 400 OFFCURVE",
"351 440 CURVE",
"426 452 OFFCURVE",
"503 461 OFFCURVE",
"578 467 CURVE",
"578 378 OFFCURVE",
"581 294 OFFCURVE",
"586 244 CURVE",
"736 254 LINE",
"730 311 OFFCURVE",
"729 392 OFFCURVE",
"731 475 CURVE",
"806 478 OFFCURVE",
"876 477 OFFCURVE",
"934 472 CURVE",
"935 629 LINE",
"887 634 OFFCURVE",
"818 635 OFFCURVE",
"738 631 CURVE",
"740 649 OFFCURVE",
"741 667 OFFCURVE",
"743 685 CURVE",
"721 718 OFFCURVE",
"693 771 OFFCURVE",
"686 800 CURVE SMOOTH",
"685 804 LINE",
"601 806 LINE",
"592 764 OFFCURVE",
"585 696 OFFCURVE",
"582 620 CURVE",
"513 614 OFFCURVE",
"442 606 OFFCURVE",
"373 596 CURVE",
"384 664 OFFCURVE",
"398 729 OFFCURVE",
"411 775 CURVE",
"254 793 LINE",
"244 762 OFFCURVE",
"224 679 OFFCURVE",
"209 570 CURVE",
"132 556 OFFCURVE",
"65 541 OFFCURVE",
"16 525 CURVE",
"40 371 LINE",
"85 386 OFFCURVE",
"137 399 OFFCURVE",
"192 412 CURVE",
"191 384 OFFCURVE",
"189 356 OFFCURVE",
"189 328 CURVE SMOOTH",
"184 80 OFFCURVE",
"261 -41 OFFCURVE",
"485 -52 CURVE SMOOTH"
);
},
{
closed = 1;
nodes = (
"846 728 LINE",
"821 757 OFFCURVE",
"797 804 OFFCURVE",
"786 835 CURVE",
"715 807 LINE",
"723 773 OFFCURVE",
"765 700 OFFCURVE",
"782 680 CURVE"
);
},
{
closed = 1;
nodes = (
"966 753 LINE",
"936 778 OFFCURVE",
"905 819 OFFCURVE",
"889 848 CURVE",
"826 806 LINE",
"840 774 OFFCURVE",
"889 714 OFFCURVE",
"909 697 CURVE"
);
}
);
width = 1000;
}
);
unicode = 305C;
},
{
glyphname = "so-hira";
lastChange = "2020-03-18 19:21:13 +0000";
layers = (
{
anchors = (
{
name = LSB;
position = "{41, 380}";
},
{
name = RSB;
position = "{939, 380}";
}
);
layerId = "BE1754C0-A605-45AC-AA12-D3A1FC0C380B";
paths = (
{
closed = 1;
nodes = (
"425 655 LINE",
"348 691 OFFCURVE",
"271 760 OFFCURVE",
"215 821 CURVE",
"108 719 LINE",
"153 662 OFFCURVE",
"245 564 OFFCURVE",
"327 529 CURVE"
);
},
{
closed = 1;
nodes = (
"813 128 LINE",
"720 99 OFFCURVE",
"650 91 OFFCURVE",
"583 91 CURVE SMOOTH",
"463 91 OFFCURVE",
"440 135 OFFCURVE",
"522 214 CURVE SMOOTH",
"569 259 OFFCURVE",
"654 332 OFFCURVE",
"913 394 CURVE",
"902 536 LINE",
"770 508 OFFCURVE",
"562 448 OFFCURVE",
"448 410 CURVE",
"535 461 OFFCURVE",
"664 546 OFFCURVE",
"857 722 CURVE",
"716 823 LINE",
"527 621 OFFCURVE",
"214 371 OFFCURVE",
"67 329 CURVE",
"114 196 LINE",
"230 229 OFFCURVE",
"269 238 OFFCURVE",
"372 261 CURVE",
"372 261 OFFCURVE",
"311 203 OFFCURVE",
"311 120 CURVE SMOOTH",
"311 15 OFFCURVE",
"379 -49 OFFCURVE",
"607 -49 CURVE SMOOTH",
"687 -49 OFFCURVE",
"735 -41 OFFCURVE",
"812 -20 CURVE"
);
}
);
width = 1000;
}
);
unicode = 305D;
},
{
glyphname = "zo-hira";
lastChange = "2020-03-18 19:21:13 +0000";
layers = (
{
anchors = (
{
name = LSB;
position = "{41, 380}";
},
{
name = RSB;
position = "{1002, 380}";
}
);
layerId = "BE1754C0-A605-45AC-AA12-D3A1FC0C380B";
paths = (
{
closed = 1;
nodes = (
"687 -49 OFFCURVE",
"735 -41 OFFCURVE",
"812 -20 CURVE",
"813 135 LINE",
"720 106 OFFCURVE",
"650 95 OFFCURVE",
"583 95 CURVE SMOOTH",
"463 95 OFFCURVE",
"440 135 OFFCURVE",
"522 214 CURVE SMOOTH",
"569 259 OFFCURVE",
"654 332 OFFCURVE",
"913 394 CURVE",
"902 536 LINE",
"770 508 OFFCURVE",
"562 448 OFFCURVE",
"448 410 CURVE",
"520 452 OFFCURVE",
"620 517 OFFCURVE",
"761 637 CURVE",
"744 666 OFFCURVE",
"726 701 OFFCURVE",
"721 723 CURVE SMOOTH",
"715 748 LINE",
"783 775 LINE",
"716 823 LINE",
"527 621 OFFCURVE",
"214 371 OFFCURVE",
"67 329 CURVE",
"114 196 LINE",
"230 229 OFFCURVE",
"269 238 OFFCURVE",
"372 261 CURVE",
"372 261 OFFCURVE",
"311 203 OFFCURVE",
"311 120 CURVE SMOOTH",
"311 15 OFFCURVE",
"379 -49 OFFCURVE",
"607 -49 CURVE SMOOTH"
);
},
{
closed = 1;
nodes = (
"425 655 LINE",
"348 691 OFFCURVE",
"271 760 OFFCURVE",
"215 821 CURVE",
"108 719 LINE",
"153 662 OFFCURVE",
"245 564 OFFCURVE",
"327 529 CURVE"
);
},
{
closed = 1;
nodes = (
"868 658 LINE",
"845 685 OFFCURVE",
"823 727 OFFCURVE",
"813 755 CURVE",
"750 730 LINE",
"757 700 OFFCURVE",
"795 633 OFFCURVE",
"810 616 CURVE"
);
},
{
closed = 1;
nodes = (
"976 681 LINE",
"949 703 OFFCURVE",
"921 741 OFFCURVE",
"906 767 CURVE",
"850 729 LINE",
"862 700 OFFCURVE",
"907 646 OFFCURVE",
"925 631 CURVE"
);
}
);
width = 1000;
}
);
unicode = 305E;
},
{
glyphname = "ta-hira";
lastChange = "2020-03-18 19:21:13 +0000";
layers = (
{
anchors = (
{
name = LSB;
position = "{30, 380}";
},
{
name = RSB;
position = "{943, 380}";
}
);
layerId = "BE1754C0-A605-45AC-AA12-D3A1FC0C380B";
paths = (
{
closed = 1;
nodes = (
"621 392 OFFCURVE",
"807 439 OFFCURVE",
"901 427 CURVE",
"880 584 LINE",
"799 594 OFFCURVE",
"557 547 OFFCURVE",
"483 488 CURVE",
"537 339 LINE"
);
},
{
closed = 1;
nodes = (
"201 534 OFFCURVE",
"497 594 OFFCURVE",
"607 591 CURVE",
"593 740 LINE",
"483 747 OFFCURVE",
"180 687 OFFCURVE",
"56 644 CURVE",
"90 501 LINE"
);
},
{
closed = 1;
nodes = (
"917 118 LINE",
"777 109 OFFCURVE",
"605 158 OFFCURVE",
"529 209 CURVE",
"445 78 LINE",
"529 13 OFFCURVE",
"729 -56 OFFCURVE",
"904 -43 CURVE"
);
},
{
closed = 1;
nodes = (
"271 198 OFFCURVE",
"378 626 OFFCURVE",
"464 814 CURVE",
"299 841 LINE",
"249 733 OFFCURVE",
"106 203 OFFCURVE",
"74 -7 CURVE",
"235 -38 LINE"
);
}
);
width = 1000;
}
);
unicode = 305F;
},
{
glyphname = "da-hira";
lastChange = "2020-03-18 19:21:13 +0000";
layers = (
{
anchors = (
{
name = LSB;
position = "{30, 380}";
},
{
name = RSB;
position = "{977, 380}";
}
);
layerId = "BE1754C0-A605-45AC-AA12-D3A1FC0C380B";
paths = (
{
closed = 1;
nodes = (
"830 704 LINE",
"805 733 OFFCURVE",
"781 780 OFFCURVE",
"770 811 CURVE",
"699 783 LINE",
"707 750 OFFCURVE",
"750 676 OFFCURVE",
"766 656 CURVE"
);
},
{
closed = 1;
nodes = (
"951 729 LINE",
"921 754 OFFCURVE",
"889 796 OFFCURVE",
"873 825 CURVE",
"810 782 LINE",
"824 751 OFFCURVE",
"873 690 OFFCURVE",
"893 674 CURVE"
);
},
{
closed = 1;
nodes = (
"621 392 OFFCURVE",
"807 439 OFFCURVE",
"901 427 CURVE",
"880 584 LINE",
"799 594 OFFCURVE",
"557 547 OFFCURVE",
"483 488 CURVE",
"537 339 LINE"
);
},
{
closed = 1;
nodes = (
"201 534 OFFCURVE",
"497 594 OFFCURVE",
"607 591 CURVE",
"593 740 LINE",
"483 747 OFFCURVE",
"180 687 OFFCURVE",
"56 644 CURVE",
"90 501 LINE"
);
},
{
closed = 1;
nodes = (
"917 118 LINE",
"777 109 OFFCURVE",
"605 158 OFFCURVE",
"529 209 CURVE",
"445 78 LINE",
"529 13 OFFCURVE",
"729 -56 OFFCURVE",
"904 -43 CURVE"
);
},
{
closed = 1;
nodes = (
"271 198 OFFCURVE",
"378 626 OFFCURVE",
"464 814 CURVE",
"299 841 LINE",
"249 733 OFFCURVE",
"106 203 OFFCURVE",
"74 -7 CURVE",
"235 -38 LINE"
);
}
);
width = 1000;
}
);
unicode = 3060;
},
{
glyphname = "ti-hira";
lastChange = "2020-03-18 19:21:13 +0000";
layers = (
{
anchors = (
{
name = LSB;
position = "{49, 380}";
},
{
name = RSB;
position = "{915.305, 380}";
}
);
layerId = "BE1754C0-A605-45AC-AA12-D3A1FC0C380B";
paths = (
{
closed = 1;
nodes = (
"641 -66 OFFCURVE",
"881 54 OFFCURVE",
"889 234 CURVE SMOOTH",
"896 381 OFFCURVE",
"782 495 OFFCURVE",
"584 496 CURVE SMOOTH",
"484 496 OFFCURVE",
"377 458 OFFCURVE",
"327 426 CURVE",
"347 508 OFFCURVE",
"384 654 OFFCURVE",
"471 838 CURVE",
"313 839 LINE",
"237 666 OFFCURVE",
"178 474 OFFCURVE",
"139 228 CURVE",
"282 218 LINE",
"376 308 OFFCURVE",
"453 346 OFFCURVE",
"566 353 CURVE SMOOTH",
"652 358 OFFCURVE",
"746 326 OFFCURVE",
"740 238 CURVE SMOOTH",
"732 132 OFFCURVE",
"518 49 OFFCURVE",
"422 39 CURVE",
"537 -80 LINE",
"538 -81 LINE"
);
},
{
closed = 1;
nodes = (
"251 570 OFFCURVE",
"597 605 OFFCURVE",
"837 572 CURVE",
"852 720 LINE",
"657 743 OFFCURVE",
"231 714 OFFCURVE",
"75 664 CURVE",
"76 522 LINE"
);
}
);
width = 1000;
}
);
unicode = 3061;
},
{
glyphname = "di-hira";
lastChange = "2020-03-18 19:21:13 +0000";
layers = (
{
anchors = (
{
name = LSB;
position = "{52, 380}";
},
{
name = RSB;
position = "{1004, 380}";
}
);
layerId = "BE1754C0-A605-45AC-AA12-D3A1FC0C380B";
paths = (
{
closed = 1;
nodes = (
"644 -66 OFFCURVE",
"884 54 OFFCURVE",
"892 234 CURVE SMOOTH",
"899 381 OFFCURVE",
"785 495 OFFCURVE",
"587 496 CURVE SMOOTH",
"487 496 OFFCURVE",
"380 458 OFFCURVE",
"330 426 CURVE",
"339 463 OFFCURVE",
"351 512 OFFCURVE",
"370 572 CURVE",
"526 587 OFFCURVE",
"701 591 OFFCURVE",
"840 572 CURVE",
"853 700 LINE",
"790 653 LINE",
"772 674 LINE SMOOTH",
"763 684 OFFCURVE",
"750 704 OFFCURVE",
"736 727 CURVE",
"642 730 OFFCURVE",
"529 726 OFFCURVE",
"421 717 CURVE",
"436 755 OFFCURVE",
"454 796 OFFCURVE",
"474 838 CURVE",
"316 839 LINE",
"296 794 OFFCURVE",
"278 748 OFFCURVE",
"260 700 CURVE",
"186 690 OFFCURVE",
"121 678 OFFCURVE",
"78 664 CURVE",
"79 522 LINE",
"116 532 OFFCURVE",
"162 542 OFFCURVE",
"212 550 CURVE",
"184 453 OFFCURVE",
"161 347 OFFCURVE",
"142 228 CURVE",
"285 218 LINE",
"379 308 OFFCURVE",
"456 346 OFFCURVE",
"569 353 CURVE SMOOTH",
"655 358 OFFCURVE",
"749 326 OFFCURVE",
"743 238 CURVE SMOOTH",
"735 132 OFFCURVE",
"521 49 OFFCURVE",
"425 39 CURVE",
"540 -80 LINE",
"541 -81 LINE"
);
},
{
closed = 1;
nodes = (
"858 741 LINE",
"832 770 OFFCURVE",
"808 817 OFFCURVE",
"798 848 CURVE",
"727 820 LINE",
"735 786 OFFCURVE",
"777 713 OFFCURVE",
"794 693 CURVE"
);
},
{
closed = 1;
nodes = (
"978 766 LINE",
"948 791 OFFCURVE",
"917 832 OFFCURVE",
"901 861 CURVE",
"838 819 LINE",
"852 787 OFFCURVE",
"901 727 OFFCURVE",
"921 710 CURVE"
);
}
);
width = 1000;
}
);
unicode = 3062;
},
{
glyphname = "tu-hira";
lastChange = "2020-03-18 19:21:13 +0000";
layers = (
{
anchors = (
{
name = LSB;
position = "{25, 380}";
},
{
name = RSB;
position = "{958.488, 380}";
}
);
layerId = "BE1754C0-A605-45AC-AA12-D3A1FC0C380B";
paths = (
{
closed = 1;
nodes = (
"826 87 OFFCURVE",
"956 265 OFFCURVE",
"929 477 CURVE SMOOTH",
"903 684 OFFCURVE",
"727 750 OFFCURVE",
"572 750 CURVE SMOOTH",
"389 750 OFFCURVE",
"193 677 OFFCURVE",
"51 615 CURVE",
"120 457 LINE",
"251 515 OFFCURVE",
"399 580 OFFCURVE",
"542 587 CURVE SMOOTH",
"663 593 OFFCURVE",
"743 547 OFFCURVE",
"756 468 CURVE SMOOTH",
"781 318 OFFCURVE",
"647 166 OFFCURVE",
"422 90 CURVE",
"547 -45 LINE"
);
}
);
width = 1000;
}
);
unicode = 3064;
},
{
glyphname = "tusmall-hira";
lastChange = "2020-03-18 19:21:13 +0000";
layers = (
{
anchors = (
{
name = LSB;
position = "{92, 380}";
},
{
name = RSB;
position = "{871.836, 380}";
}
);
layerId = "BE1754C0-A605-45AC-AA12-D3A1FC0C380B";
paths = (
{
closed = 1;
nodes = (
"532 -50 LINE SMOOTH",
"645 3 OFFCURVE",
"728 67 OFFCURVE",
"780 138 CURVE SMOOTH",
"833 210 OFFCURVE",
"854 291 OFFCURVE",
"843 378 CURVE SMOOTH",
"838 419 OFFCURVE",
"826 455 OFFCURVE",
"806 486 CURVE SMOOTH",
"788 514 OFFCURVE",
"764 538 OFFCURVE",
"735 557 CURVE SMOOTH",
"671 597 OFFCURVE",
"598 605 OFFCURVE",
"548 605 CURVE SMOOTH",
"481 605 OFFCURVE",
"406 593 OFFCURVE",
"324 569 CURVE SMOOTH",
"264 552 OFFCURVE",
"200 528 OFFCURVE",
"127 496 CURVE SMOOTH",
"118 492 LINE",
"181 348 LINE",
"190 352 LINE SMOOTH",
"294 397 OFFCURVE",
"411 449 OFFCURVE",
"524 455 CURVE",
"540 455 LINE SMOOTH",
"622 455 OFFCURVE",
"676 423 OFFCURVE",
"685 368 CURVE SMOOTH",
"704 253 OFFCURVE",
"600 136 OFFCURVE",
"425 77 CURVE SMOOTH",
"410 72 LINE",
"525 -53 LINE"
);
}
);
width = 1000;
}
);
unicode = 3063;
},
{
glyphname = "du-hira";
lastChange = "2020-03-18 19:21:13 +0000";
layers = (
{
anchors = (
{
name = LSB;
position = "{25, 380}";
},
{
name = RSB;
position = "{1016, 380}";
}
);
layerId = "BE1754C0-A605-45AC-AA12-D3A1FC0C380B";
paths = (
{
closed = 1;
nodes = (
"881 766 LINE",
"858 793 OFFCURVE",
"837 835 OFFCURVE",
"827 863 CURVE",
"763 838 LINE",
"771 808 OFFCURVE",
"809 741 OFFCURVE",
"824 724 CURVE"
);
},
{
closed = 1;
nodes = (
"990 789 LINE",
"963 811 OFFCURVE",
"934 849 OFFCURVE",
"920 875 CURVE",
"864 837 LINE",
"876 808 OFFCURVE",
"920 754 OFFCURVE",
"938 739 CURVE"
);
},
{
closed = 1;
nodes = (
"826 87 OFFCURVE",
"956 265 OFFCURVE",
"929 477 CURVE SMOOTH",
"903 684 OFFCURVE",
"727 750 OFFCURVE",
"572 750 CURVE SMOOTH",
"389 750 OFFCURVE",
"193 677 OFFCURVE",
"51 615 CURVE",
"120 457 LINE",
"251 515 OFFCURVE",
"399 580 OFFCURVE",
"542 587 CURVE SMOOTH",
"663 593 OFFCURVE",
"743 547 OFFCURVE",
"756 468 CURVE SMOOTH",
"781 318 OFFCURVE",
"647 166 OFFCURVE",
"422 90 CURVE",
"547 -45 LINE"
);
}
);
width = 1000;
}
);
unicode = 3065;
},
{
glyphname = "te-hira";
lastChange = "2020-03-18 19:21:13 +0000";
layers = (
{
anchors = (
{
name = LSB;
position = "{26, 380}";
},
{
name = RSB;
position = "{923, 380}";
}
);
layerId = "BE1754C0-A605-45AC-AA12-D3A1FC0C380B";
paths = (
{
closed = 1;
nodes = (
"822 102 LINE",
"671 104 OFFCURVE",
"449 129 OFFCURVE",
"460 283 CURVE SMOOTH",
"471 461 OFFCURVE",
"759 637 OFFCURVE",
"897 643 CURVE",
"894 779 LINE",
"642 802 OFFCURVE",
"251 751 OFFCURVE",
"52 696 CURVE",
"67 544 LINE",
"244 585 OFFCURVE",
"378 618 OFFCURVE",
"553 634 CURVE",
"553 632 OFFCURVE",
"309 519 OFFCURVE",
"299 277 CURVE SMOOTH",
"296 145 OFFCURVE",
"389 -38 OFFCURVE",
"762 -57 CURVE"
);
}
);
width = 1000;
}
);
unicode = 3066;
},
{
glyphname = "de-hira";
lastChange = "2020-03-18 19:21:13 +0000";
layers = (
{
anchors = (
{
name = LSB;
position = "{26, 380}";
},
{
name = RSB;
position = "{960, 380}";
}
);
background = {
paths = (
{
closed = 1;
nodes = (
"720 575 OFFCURVE",
"533 406 OFFCURVE",
"527 297 CURVE",
"518 175 OFFCURVE",
"641 99 OFFCURVE",
"819 94 CURVE",
"760 -64 LINE",
"432 -22 OFFCURVE",
"353 156 OFFCURVE",
"363 298 CURVE",
"382 536 OFFCURVE",
"619 644 OFFCURVE",
"619 644 CURVE",
"454 633 OFFCURVE",
"258 600 OFFCURVE",
"62 557 CURVE",
"48 714 LINE",
"255 770 OFFCURVE",
"646 820 OFFCURVE",
"910 793 CURVE",
"925 636 LINE"
);
}
);
};
layerId = "BE1754C0-A605-45AC-AA12-D3A1FC0C380B";
paths = (
{
closed = 1;
nodes = (
"822 102 LINE",
"671 104 OFFCURVE",
"449 129 OFFCURVE",
"460 283 CURVE SMOOTH",
"471 461 OFFCURVE",
"759 637 OFFCURVE",
"897 643 CURVE",
"894 779 LINE",
"642 802 OFFCURVE",
"251 751 OFFCURVE",
"52 696 CURVE",
"67 544 LINE",
"244 585 OFFCURVE",
"378 618 OFFCURVE",
"553 634 CURVE",
"553 632 OFFCURVE",
"309 519 OFFCURVE",
"299 277 CURVE SMOOTH",
"296 145 OFFCURVE",
"389 -38 OFFCURVE",
"762 -57 CURVE"
);
},
{
closed = 1;
nodes = (
"826 455 LINE",
"794 475 OFFCURVE",
"756 512 OFFCURVE",
"737 539 CURVE",
"677 490 LINE",
"695 461 OFFCURVE",
"759 404 OFFCURVE",
"780 390 CURVE"
);
},
{
closed = 1;
nodes = (
"934 515 LINE",
"898 530 OFFCURVE",
"855 560 OFFCURVE",
"831 583 CURVE",
"784 523 LINE",
"806 498 OFFCURVE",
"871 454 OFFCURVE",
"895 445 CURVE"
);
}
);
width = 1000;
}
);
unicode = 3067;
},
{
glyphname = "to-hira";
lastChange = "2020-03-18 19:21:13 +0000";
layers = (
{
anchors = (
{
name = LSB;
position = "{95.954, 380}";
},
{
name = RSB;
position = "{915, 380}";
}
);
layerId = "BE1754C0-A605-45AC-AA12-D3A1FC0C380B";
paths = (
{
closed = 1;
nodes = (
"621 -42 OFFCURVE",
"774 -18 OFFCURVE",
"889 52 CURVE",
"850 215 LINE",
"767 164 OFFCURVE",
"620 107 OFFCURVE",
"483 113 CURVE SMOOTH",
"411 116 OFFCURVE",
"276 139 OFFCURVE",
"274 228 CURVE SMOOTH",
"271 378 OFFCURVE",
"670 521 OFFCURVE",
"835 559 CURVE",
"800 726 LINE",
"529 641 OFFCURVE",
"126 488 OFFCURVE",
"122 240 CURVE SMOOTH",
"118 -7 OFFCURVE",
"378 -46 OFFCURVE",
"510 -44 CURVE SMOOTH"
);
},
{
closed = 1;
nodes = (
"478 562 LINE",
"423 641 OFFCURVE",
"297 777 OFFCURVE",
"238 825 CURVE",
"122 708 LINE",
"200 659 OFFCURVE",
"332 517 OFFCURVE",
"363 471 CURVE"
);
}
);
width = 1000;
}
);
unicode = 3068;
},
{
glyphname = "do-hira";
lastChange = "2020-03-18 19:21:13 +0000";
layers = (
{
anchors = (
{
name = LSB;
position = "{95.954, 380}";
},
{
name = RSB;
position = "{1020, 380}";
}
);
layerId = "BE1754C0-A605-45AC-AA12-D3A1FC0C380B";
paths = (
{
closed = 1;
nodes = (
"621 -42 OFFCURVE",
"774 -18 OFFCURVE",
"889 52 CURVE",
"850 215 LINE",
"767 164 OFFCURVE",
"620 107 OFFCURVE",
"483 113 CURVE SMOOTH",
"411 116 OFFCURVE",
"276 139 OFFCURVE",
"274 228 CURVE SMOOTH",
"271 378 OFFCURVE",
"670 521 OFFCURVE",
"835 559 CURVE",
"800 726 LINE",
"529 641 OFFCURVE",
"126 488 OFFCURVE",
"122 240 CURVE SMOOTH",
"118 -7 OFFCURVE",
"378 -46 OFFCURVE",
"510 -44 CURVE SMOOTH"
);
},
{
closed = 1;
nodes = (
"478 562 LINE",
"423 641 OFFCURVE",
"297 777 OFFCURVE",
"238 825 CURVE",
"122 708 LINE",
"200 659 OFFCURVE",
"332 517 OFFCURVE",
"363 471 CURVE"
);
},
{
closed = 1;
nodes = (
"886 769 LINE",
"863 795 OFFCURVE",
"842 837 OFFCURVE",
"832 865 CURVE",
"768 840 LINE",
"775 809 OFFCURVE",
"813 743 OFFCURVE",
"828 725 CURVE"
);
},
{
closed = 1;
nodes = (
"994 791 LINE",
"967 814 OFFCURVE",
"939 851 OFFCURVE",
"924 877 CURVE",
"868 839 LINE",
"880 810 OFFCURVE",
"924 756 OFFCURVE",
"942 741 CURVE"
);
}
);
width = 1000;
}
);
unicode = 3069;
},
{
glyphname = "na-hira";
lastChange = "2020-03-18 19:21:13 +0000";
layers = (
{
anchors = (
{
name = LSB;
position = "{-4, 380}";
},
{
name = RSB;
position = "{984, 380}";
}
);
layerId = "BE1754C0-A605-45AC-AA12-D3A1FC0C380B";
paths = (
{
closed = 1;
nodes = (
"956 560 LINE",
"915 626 OFFCURVE",
"817 722 OFFCURVE",
"713 755 CURVE",
"636 647 LINE",
"685 622 OFFCURVE",
"801 555 OFFCURVE",
"840 466 CURVE"
);
},
{
closed = 1;
nodes = (
"123 519 OFFCURVE",
"396 579 OFFCURVE",
"507 572 CURVE",
"515 710 LINE",
"389 718 OFFCURVE",
"131 673 OFFCURVE",
"22 628 CURVE",
"56 489 LINE"
);
},
{
closed = 1;
nodes = (
"230 297 OFFCURVE",
"345 644 OFFCURVE",
"441 809 CURVE",
"295 855 LINE",
"236 748 OFFCURVE",
"60 272 OFFCURVE",
"30 138 CURVE",
"168 91 LINE"
);
},
{
closed = 1;
nodes = (
"652 -71 OFFCURVE",
"743 49 OFFCURVE",
"751 200 CURVE SMOOTH",
"758 297 OFFCURVE",
"737 455 OFFCURVE",
"692 552 CURVE",
"546 521 LINE",
"595 431 OFFCURVE",
"606 273 OFFCURVE",
"603 221 CURVE SMOOTH",
"597 99 OFFCURVE",
"540 77 OFFCURVE",
"505 79 CURVE SMOOTH",
"460 82 OFFCURVE",
"429 107 OFFCURVE",
"430 137 CURVE SMOOTH",
"432 193 OFFCURVE",
"481 230 OFFCURVE",
"551 227 CURVE SMOOTH",
"698 220 OFFCURVE",
"820 66 OFFCURVE",
"857 23 CURVE",
"958 138 LINE",
"816 293 OFFCURVE",
"692 368 OFFCURVE",
"567 374 CURVE SMOOTH",
"363 386 OFFCURVE",
"290 252 OFFCURVE",
"283 141 CURVE SMOOTH",
"278 51 OFFCURVE",
"343 -56 OFFCURVE",
"492 -64 CURVE SMOOTH"
);
}
);
width = 1000;
}
);
unicode = 306A;
},
{
glyphname = "ni-hira";
lastChange = "2020-03-18 19:21:13 +0000";
layers = (
{
anchors = (
{
name = LSB;
position = "{59.421, 380}";
},
{
name = RSB;
position = "{912, 380}";
}
);
layerId = "BE1754C0-A605-45AC-AA12-D3A1FC0C380B";
paths = (
{
closed = 1;
nodes = (
"562 557 OFFCURVE",
"757 595 OFFCURVE",
"867 582 CURVE",
"863 736 LINE",
"712 765 OFFCURVE",
"499 709 OFFCURVE",
"390 646 CURVE",
"462 506 LINE"
);
},
{
closed = 1;
nodes = (
"886 142 LINE",
"746 128 OFFCURVE",
"562 147 OFFCURVE",
"481 298 CURVE",
"382 184 LINE",
"485 -13 OFFCURVE",
"729 -38 OFFCURVE",
"869 -16 CURVE"
);
},
{
closed = 1;
nodes = (
"288 -6 LINE",
"229 199 OFFCURVE",
"229 509 OFFCURVE",
"311 748 CURVE",
"158 790 LINE",
"97 614 OFFCURVE",
"45 194 OFFCURVE",
"130 -41 CURVE"
);
}
);
width = 1000;
}
);
unicode = 306B;
},
{
glyphname = "nu-hira";
lastChange = "2020-03-18 19:21:13 +0000";
layers = (
{
anchors = (
{
name = LSB;
position = "{18.263, 380}";
},
{
name = RSB;
position = "{999, 380}";
}
);
layerId = "BE1754C0-A605-45AC-AA12-D3A1FC0C380B";
paths = (
{
closed = 1;
nodes = (
"746 -98 OFFCURVE",
"862 26 OFFCURVE",
"917 202 CURVE SMOOTH",
"969 368 OFFCURVE",
"937 682 OFFCURVE",
"576 710 CURVE SMOOTH",
"258 735 OFFCURVE",
"64 475 OFFCURVE",
"46 259 CURVE SMOOTH",
"33 102 OFFCURVE",
"94 -8 OFFCURVE",
"195 -15 CURVE SMOOTH",
"456 -33 OFFCURVE",
"592 320 OFFCURVE",
"690 796 CURVE",
"538 829 LINE",
"466 317 OFFCURVE",
"292 87 OFFCURVE",
"204 131 CURVE SMOOTH",
"173 146 OFFCURVE",
"166 187 OFFCURVE",
"179 271 CURVE SMOOTH",
"198 395 OFFCURVE",
"354 595 OFFCURVE",
"562 576 CURVE SMOOTH",
"802 554 OFFCURVE",
"804 365 OFFCURVE",
"787 281 CURVE SMOOTH",
"759 146 OFFCURVE",
"682 54 OFFCURVE",
"625 75 CURVE SMOOTH",
"594 87 OFFCURVE",
"591 114 OFFCURVE",
"614 146 CURVE SMOOTH",
"635 175 OFFCURVE",
"669 190 OFFCURVE",
"707 184 CURVE SMOOTH",
"772 174 OFFCURVE",
"843 91 OFFCURVE",
"889 -6 CURVE",
"973 117 LINE",
"917 202 OFFCURVE",
"862 274 OFFCURVE",
"757 307 CURVE SMOOTH",
"592 358 OFFCURVE",
"495 231 OFFCURVE",
"472 170 CURVE SMOOTH",
"438 78 OFFCURVE",
"483 -24 OFFCURVE",
"596 -56 CURVE SMOOTH"
);
},
{
closed = 1;
nodes = (
"478 298 LINE",
"383 337 OFFCURVE",
"255 616 OFFCURVE",
"245 769 CURVE",
"126 713 LINE",
"146 545 OFFCURVE",
"268 236 OFFCURVE",
"385 142 CURVE"
);
}
);
width = 1000;
}
);
unicode = 306C;
},
{
glyphname = "ne-hira";
lastChange = "2020-03-18 19:21:13 +0000";
layers = (
{
anchors = (
{
name = LSB;
position = "{3, 380}";
},
{
name = RSB;
position = "{986, 380}";
}
);
layerId = "BE1754C0-A605-45AC-AA12-D3A1FC0C380B";
paths = (
{
closed = 1;
nodes = (
"359 -40 LINE",
"344 123 OFFCURVE",
"357 656 OFFCURVE",
"382 815 CURVE",
"239 823 LINE",
"211 643 OFFCURVE",
"190 155 OFFCURVE",
"217 -44 CURVE"
);
},
{
closed = 1;
nodes = (
"262 643 LINE",
"207 668 OFFCURVE",
"148 690 OFFCURVE",
"95 701 CURVE",
"43 557 LINE",
"84 546 OFFCURVE",
"190 515 OFFCURVE",
"222 498 CURVE"
);
},
{
closed = 1;
nodes = (
"863 -42 OFFCURVE",
"905 208 OFFCURVE",
"915 330 CURVE SMOOTH",
"937 592 OFFCURVE",
"831 735 OFFCURVE",
"653 735 CURVE SMOOTH",
"318 735 OFFCURVE",
"44 186 OFFCURVE",
"29 154 CURVE",
"158 74 LINE",
"298 413 OFFCURVE",
"530 585 OFFCURVE",
"656 589 CURVE SMOOTH",
"793 593 OFFCURVE",
"780 385 OFFCURVE",
"773 334 CURVE SMOOTH",
"748 163 OFFCURVE",
"731 99 OFFCURVE",
"628 95 CURVE SMOOTH",
"581 94 OFFCURVE",
"536 113 OFFCURVE",
"536 153 CURVE SMOOTH",
"536 180 OFFCURVE",
"572 224 OFFCURVE",
"661 220 CURVE SMOOTH",
"769 215 OFFCURVE",
"852 82 OFFCURVE",
"883 34 CURVE",
"960 159 LINE",
"861 330 OFFCURVE",
"723 359 OFFCURVE",
"646 359 CURVE SMOOTH",
"477 359 OFFCURVE",
"396 252 OFFCURVE",
"396 144 CURVE SMOOTH",
"396 46 OFFCURVE",
"490 -42 OFFCURVE",
"618 -42 CURVE SMOOTH"
);
}
);
width = 1000;
}
);
unicode = 306D;
},
{
glyphname = "no-hira";
lastChange = "2020-03-18 19:21:13 +0000";
layers = (
{
anchors = (
{
name = LSB;
position = "{11.712, 380}";
},
{
name = RSB;
position = "{985, 380}";
}
);
layerId = "BE1754C0-A605-45AC-AA12-D3A1FC0C380B";
paths = (
{
closed = 1;
nodes = (
"870 41 OFFCURVE",
"959 191 OFFCURVE",
"959 333 CURVE SMOOTH",
"959 606 OFFCURVE",
"779 761 OFFCURVE",
"510 761 CURVE SMOOTH",
"172 761 OFFCURVE",
"44 456 OFFCURVE",
"38 291 CURVE SMOOTH",
"33 145 OFFCURVE",
"93 22 OFFCURVE",
"220 18 CURVE SMOOTH",
"319 15 OFFCURVE",
"429 99 OFFCURVE",
"490 202 CURVE SMOOTH",
"565 329 OFFCURVE",
"615 505 OFFCURVE",
"585 693 CURVE",
"431 655 LINE",
"447 581 OFFCURVE",
"439 443 OFFCURVE",
"374 314 CURVE SMOOTH",
"314 195 OFFCURVE",
"255 182 OFFCURVE",
"232 182 CURVE SMOOTH",
"193 182 OFFCURVE",
"184 250 OFFCURVE",
"190 305 CURVE SMOOTH",
"206 454 OFFCURVE",
"331 625 OFFCURVE",
"519 621 CURVE SMOOTH",
"692 617 OFFCURVE",
"799 511 OFFCURVE",
"800 354 CURVE",
"800 228 OFFCURVE",
"706 110 OFFCURVE",
"582 47 CURVE",
"729 -52 LINE"
);
}
);
width = 1000;
}
);
unicode = 306E;
},
{
glyphname = "ha-hira";
lastChange = "2020-03-18 19:21:13 +0000";
layers = (
{
anchors = (
{
name = LSB;
position = "{29.267, 380}";
},
{
name = RSB;
position = "{1003, 380}";
}
);
layerId = "BE1754C0-A605-45AC-AA12-D3A1FC0C380B";
paths = (
{
closed = 1;
nodes = (
"481 533 OFFCURVE",
"788 565 OFFCURVE",
"918 530 CURVE",
"918 679 LINE",
"800 709 OFFCURVE",
"443 686 OFFCURVE",
"339 636 CURVE",
"360 488 LINE"
);
},
{
closed = 1;
nodes = (
"246 -3 LINE",
"191 186 OFFCURVE",
"203 544 OFFCURVE",
"267 752 CURVE",
"115 785 LINE",
"63 634 OFFCURVE",
"22 176 OFFCURVE",
"94 -43 CURVE"
);
},
{
closed = 1;
nodes = (
"701 -67 OFFCURVE",
"783 36 OFFCURVE",
"786 258 CURVE SMOOTH",
"787 365 OFFCURVE",
"755 694 OFFCURVE",
"704 833 CURVE",
"548 796 LINE",
"614 631 OFFCURVE",
"645 369 OFFCURVE",
"639 278 CURVE SMOOTH",
"635 217 OFFCURVE",
"651 87 OFFCURVE",
"544 88 CURVE SMOOTH",
"479 89 OFFCURVE",
"457 134 OFFCURVE",
"459 160 CURVE SMOOTH",
"462 202 OFFCURVE",
"505 233 OFFCURVE",
"557 232 CURVE SMOOTH",
"615 231 OFFCURVE",
"737 217 OFFCURVE",
"884 36 CURVE",
"977 156 LINE",
"877 275 OFFCURVE",
"752 373 OFFCURVE",
"566 378 CURVE SMOOTH",
"393 383 OFFCURVE",
"315 260 OFFCURVE",
"310 171 CURVE SMOOTH",
"305 93 OFFCURVE",
"358 -46 OFFCURVE",
"533 -57 CURVE SMOOTH"
);
}
);
width = 1000;
}
);
unicode = 306F;
},
{
glyphname = "ba-hira";
lastChange = "2020-03-18 19:21:13 +0000";
layers = (
{
anchors = (
{
name = LSB;
position = "{29.267, 380}";
},
{
name = RSB;
position = "{1006, 380}";
}
);
layerId = "BE1754C0-A605-45AC-AA12-D3A1FC0C380B";
paths = (
{
closed = 1;
nodes = (
"701 -67 OFFCURVE",
"783 36 OFFCURVE",
"786 258 CURVE SMOOTH",
"787 365 OFFCURVE",
"755 694 OFFCURVE",
"704 833 CURVE",
"548 796 LINE",
"614 631 OFFCURVE",
"645 369 OFFCURVE",
"639 278 CURVE SMOOTH",
"635 217 OFFCURVE",
"651 87 OFFCURVE",
"544 88 CURVE SMOOTH",
"479 89 OFFCURVE",
"457 134 OFFCURVE",
"459 160 CURVE SMOOTH",
"462 202 OFFCURVE",
"505 233 OFFCURVE",
"557 232 CURVE SMOOTH",
"615 231 OFFCURVE",
"737 217 OFFCURVE",
"884 36 CURVE",
"977 156 LINE",
"877 275 OFFCURVE",
"752 373 OFFCURVE",
"566 378 CURVE SMOOTH",
"393 383 OFFCURVE",
"315 260 OFFCURVE",
"310 171 CURVE SMOOTH",
"305 93 OFFCURVE",
"358 -46 OFFCURVE",
"533 -57 CURVE SMOOTH"
);
},
{
closed = 1;
nodes = (
"246 -3 LINE",
"191 186 OFFCURVE",
"203 544 OFFCURVE",
"267 752 CURVE",
"115 785 LINE",
"63 634 OFFCURVE",
"22 176 OFFCURVE",
"94 -43 CURVE"
);
},
{
closed = 1;
nodes = (
"481 533 OFFCURVE",
"788 565 OFFCURVE",
"918 530 CURVE",
"918 679 LINE",
"800 709 OFFCURVE",
"443 686 OFFCURVE",
"339 636 CURVE",
"360 488 LINE"
);
},
{
closed = 1;
nodes = (
"871 759 LINE",
"848 786 OFFCURVE",
"827 828 OFFCURVE",
"817 856 CURVE",
"753 831 LINE",
"761 801 OFFCURVE",
"799 734 OFFCURVE",
"814 717 CURVE"
);
},
{
closed = 1;
nodes = (
"980 782 LINE",
"953 804 OFFCURVE",
"924 842 OFFCURVE",
"910 868 CURVE",
"854 830 LINE",
"866 801 OFFCURVE",
"910 747 OFFCURVE",
"928 732 CURVE"
);
}
);
width = 1000;
}
);
unicode = 3070;
},
{
glyphname = "pa-hira";
lastChange = "2020-03-18 19:21:13 +0000";
layers = (
{
anchors = (
{
name = LSB;
position = "{29.267, 380}";
},
{
name = RSB;
position = "{1003, 380}";
}
);
layerId = "BE1754C0-A605-45AC-AA12-D3A1FC0C380B";
paths = (
{
closed = 1;
nodes = (
"669 -65 OFFCURVE",
"749 1 OFFCURVE",
"776 145 CURVE",
"810 118 OFFCURVE",
"846 83 OFFCURVE",
"884 36 CURVE",
"977 156 LINE",
"922 221 OFFCURVE",
"860 280 OFFCURVE",
"784 321 CURVE",
"781 381 OFFCURVE",
"774 462 OFFCURVE",
"763 545 CURVE",
"824 545 OFFCURVE",
"879 540 OFFCURVE",
"918 530 CURVE",
"918 636 LINE",
"905 631 OFFCURVE",
"891 629 OFFCURVE",
"876 629 CURVE SMOOTH",
"829 629 OFFCURVE",
"788 654 OFFCURVE",
"766 692 CURVE",
"740 692 LINE",
"729 747 OFFCURVE",
"717 797 OFFCURVE",
"704 833 CURVE",
"548 796 LINE",
"561 762 OFFCURVE",
"574 724 OFFCURVE",
"584 684 CURVE",
"481 675 OFFCURVE",
"385 658 OFFCURVE",
"339 636 CURVE",
"360 488 LINE",
"417 509 OFFCURVE",
"515 527 OFFCURVE",
"616 537 CURVE",
"626 477 OFFCURVE",
"633 419 OFFCURVE",
"637 371 CURVE",
"614 375 OFFCURVE",
"591 377 OFFCURVE",
"566 378 CURVE SMOOTH",
"393 383 OFFCURVE",
"315 260 OFFCURVE",
"310 171 CURVE SMOOTH",
"305 93 OFFCURVE",
"358 -46 OFFCURVE",
"533 -57 CURVE SMOOTH"
);
},
{
closed = 1;
nodes = (
"246 -3 LINE",
"191 186 OFFCURVE",
"203 544 OFFCURVE",
"267 752 CURVE",
"115 785 LINE",
"63 634 OFFCURVE",
"22 176 OFFCURVE",
"94 -43 CURVE"
);
},
{
closed = 1;
nodes = (
"479 89 OFFCURVE",
"457 134 OFFCURVE",
"459 160 CURVE SMOOTH",
"462 202 OFFCURVE",
"505 233 OFFCURVE",
"557 232 CURVE SMOOTH",
"577 232 OFFCURVE",
"604 230 OFFCURVE",
"637 220 CURVE",
"635 158 OFFCURVE",
"623 87 OFFCURVE",
"544 88 CURVE SMOOTH"
);
},
{
closed = 1;
nodes = (
"930 658 OFFCURVE",
"973 702 OFFCURVE",
"973 756 CURVE SMOOTH",
"973 810 OFFCURVE",
"930 853 OFFCURVE",
"876 853 CURVE SMOOTH",
"822 853 OFFCURVE",
"778 810 OFFCURVE",
"778 756 CURVE SMOOTH",
"778 702 OFFCURVE",
"822 658 OFFCURVE",
"876 658 CURVE SMOOTH"
);
},
{
closed = 1;
nodes = (
"858 724 OFFCURVE",
"844 738 OFFCURVE",
"844 756 CURVE SMOOTH",
"844 773 OFFCURVE",
"858 788 OFFCURVE",
"876 788 CURVE SMOOTH",
"893 788 OFFCURVE",
"908 773 OFFCURVE",
"908 756 CURVE SMOOTH",
"908 738 OFFCURVE",
"893 724 OFFCURVE",
"876 724 CURVE SMOOTH"
);
}
);
width = 1000;
}
);
unicode = 3071;
},
{
glyphname = "hi-hira";
lastChange = "2020-03-18 19:21:13 +0000";
layers = (
{
anchors = (
{
name = LSB;
position = "{4, 380}";
},
{
name = RSB;
position = "{1022, 380}";
}
);
layerId = "BE1754C0-A605-45AC-AA12-D3A1FC0C380B";
paths = (
{
closed = 1;
nodes = (
"680 -77 OFFCURVE",
"769 183 OFFCURVE",
"776 307 CURVE",
"792 275 OFFCURVE",
"837 192 OFFCURVE",
"895 147 CURVE",
"996 272 LINE",
"857 384 OFFCURVE",
"806 611 OFFCURVE",
"793 679 CURVE",
"642 656 LINE",
"662 283 OFFCURVE",
"585 92 OFFCURVE",
"417 103 CURVE SMOOTH",
"305 111 OFFCURVE",
"264 224 OFFCURVE",
"268 290 CURVE SMOOTH",
"274 396 OFFCURVE",
"328 481 OFFCURVE",
"375 555 CURVE SMOOTH",
"409 611 OFFCURVE",
"439 663 OFFCURVE",
"442 707 CURVE SMOOTH",
"445 756 OFFCURVE",
"398 806 OFFCURVE",
"352 809 CURVE SMOOTH",
"228 817 OFFCURVE",
"100 723 OFFCURVE",
"30 669 CURVE",
"103 516 LINE",
"143 568 OFFCURVE",
"204 599 OFFCURVE",
"241 621 CURVE",
"239 625 LINE",
"236 626 LINE",
"234 626 LINE SMOOTH",
"234 626 OFFCURVE",
"122 465 OFFCURVE",
"112 302 CURVE SMOOTH",
"100 102 OFFCURVE",
"240 -41 OFFCURVE",
"401 -54 CURVE SMOOTH"
);
}
);
width = 1000;
}
);
unicode = 3072;
},
{
glyphname = "bi-hira";
lastChange = "2020-03-18 19:21:13 +0000";
layers = (
{
anchors = (
{
name = LSB;
position = "{4, 380}";
},
{
name = RSB;
position = "{1022, 380}";
}
);
layerId = "BE1754C0-A605-45AC-AA12-D3A1FC0C380B";
paths = (
{
closed = 1;
nodes = (
"680 -77 OFFCURVE",
"769 183 OFFCURVE",
"776 307 CURVE",
"792 275 OFFCURVE",
"837 192 OFFCURVE",
"895 147 CURVE",
"996 272 LINE",
"857 384 OFFCURVE",
"806 611 OFFCURVE",
"793 679 CURVE",
"642 656 LINE",
"662 283 OFFCURVE",
"585 92 OFFCURVE",
"417 103 CURVE SMOOTH",
"305 111 OFFCURVE",
"264 224 OFFCURVE",
"268 290 CURVE SMOOTH",
"274 396 OFFCURVE",
"328 481 OFFCURVE",
"375 555 CURVE SMOOTH",
"409 611 OFFCURVE",
"439 663 OFFCURVE",
"442 707 CURVE SMOOTH",
"445 756 OFFCURVE",
"398 806 OFFCURVE",
"352 809 CURVE SMOOTH",
"228 817 OFFCURVE",
"100 723 OFFCURVE",
"30 669 CURVE",
"103 516 LINE",
"143 568 OFFCURVE",
"204 599 OFFCURVE",
"241 621 CURVE",
"239 625 LINE",
"236 626 LINE",
"234 626 LINE SMOOTH",
"234 626 OFFCURVE",
"122 465 OFFCURVE",
"112 302 CURVE SMOOTH",
"100 102 OFFCURVE",
"240 -41 OFFCURVE",
"401 -54 CURVE SMOOTH"
);
},
{
closed = 1;
nodes = (
"866 747 LINE",
"839 774 OFFCURVE",
"813 819 OFFCURVE",
"800 850 CURVE",
"731 818 LINE",
"741 785 OFFCURVE",
"788 714 OFFCURVE",
"806 695 CURVE"
);
},
{
closed = 1;
nodes = (
"985 777 LINE",
"954 800 OFFCURVE",
"920 839 OFFCURVE",
"902 867 CURVE",
"842 821 LINE",
"858 790 OFFCURVE",
"911 733 OFFCURVE",
"932 718 CURVE"
);
}
);
width = 1000;
}
);
unicode = 3073;
},
{
glyphname = "pi-hira";
lastChange = "2020-03-18 19:21:13 +0000";
layers = (
{
anchors = (
{
name = LSB;
position = "{4, 380}";
},
{
name = RSB;
position = "{1022, 380}";
}
);
layerId = "BE1754C0-A605-45AC-AA12-D3A1FC0C380B";
paths = (
{
closed = 1;
nodes = (
"680 -77 OFFCURVE",
"769 183 OFFCURVE",
"776 307 CURVE",
"792 275 OFFCURVE",
"837 192 OFFCURVE",
"895 147 CURVE",
"996 272 LINE",
"857 384 OFFCURVE",
"806 611 OFFCURVE",
"793 679 CURVE",
"642 656 LINE",
"662 283 OFFCURVE",
"585 92 OFFCURVE",
"417 103 CURVE SMOOTH",
"305 111 OFFCURVE",
"264 224 OFFCURVE",
"268 290 CURVE SMOOTH",
"274 396 OFFCURVE",
"328 481 OFFCURVE",
"375 555 CURVE SMOOTH",
"409 611 OFFCURVE",
"439 663 OFFCURVE",
"442 707 CURVE SMOOTH",
"445 756 OFFCURVE",
"398 806 OFFCURVE",
"352 809 CURVE SMOOTH",
"228 817 OFFCURVE",
"100 723 OFFCURVE",
"30 669 CURVE",
"103 516 LINE",
"143 568 OFFCURVE",
"204 599 OFFCURVE",
"241 621 CURVE",
"239 625 LINE",
"236 626 LINE",
"234 626 LINE SMOOTH",
"234 626 OFFCURVE",
"122 465 OFFCURVE",
"112 302 CURVE SMOOTH",
"100 102 OFFCURVE",
"240 -41 OFFCURVE",
"401 -54 CURVE SMOOTH"
);
},
{
closed = 1;
nodes = (
"927 661 OFFCURVE",
"970 705 OFFCURVE",
"970 758 CURVE SMOOTH",
"970 812 OFFCURVE",
"927 856 OFFCURVE",
"873 856 CURVE SMOOTH",
"819 856 OFFCURVE",
"776 812 OFFCURVE",
"776 758 CURVE SMOOTH",
"776 705 OFFCURVE",
"819 661 OFFCURVE",
"873 661 CURVE SMOOTH"
);
},
{
closed = 1;
nodes = (
"855 727 OFFCURVE",
"841 741 OFFCURVE",
"841 758 CURVE SMOOTH",
"841 776 OFFCURVE",
"855 790 OFFCURVE",
"873 790 CURVE SMOOTH",
"890 790 OFFCURVE",
"905 776 OFFCURVE",
"905 758 CURVE SMOOTH",
"905 741 OFFCURVE",
"890 727 OFFCURVE",
"873 727 CURVE SMOOTH"
);
}
);
width = 1000;
}
);
unicode = 3074;
},
{
glyphname = "hu-hira";
lastChange = "2020-03-18 19:21:13 +0000";
layers = (
{
anchors = (
{
name = LSB;
position = "{3, 380}";
},
{
name = RSB;
position = "{1015, 380}";
}
);
layerId = "BE1754C0-A605-45AC-AA12-D3A1FC0C380B";
paths = (
{
closed = 1;
nodes = (
"628 -15 OFFCURVE",
"744 86 OFFCURVE",
"724 253 CURVE SMOOTH",
"708 385 OFFCURVE",
"630 447 OFFCURVE",
"527 474 CURVE",
"575 499 OFFCURVE",
"647 575 OFFCURVE",
"637 654 CURVE SMOOTH",
"616 822 OFFCURVE",
"408 869 OFFCURVE",
"172 802 CURVE",
"210 652 LINE",
"311 688 OFFCURVE",
"455 698 OFFCURVE",
"466 639 CURVE",
"475 603 OFFCURVE",
"401 528 OFFCURVE",
"262 494 CURVE",
"292 340 LINE",
"391 365 OFFCURVE",
"534 343 OFFCURVE",
"557 257 CURVE SMOOTH",
"588 141 OFFCURVE",
"465 66 OFFCURVE",
"383 37 CURVE",
"508 -79 LINE"
);
},
{
closed = 1;
nodes = (
"200 50 OFFCURVE",
"221 203 OFFCURVE",
"255 305 CURVE",
"108 351 LINE",
"93 305 OFFCURVE",
"36 99 OFFCURVE",
"29 -13 CURVE",
"186 -49 LINE"
);
},
{
closed = 1;
nodes = (
"989 62 LINE",
"976 153 OFFCURVE",
"920 348 OFFCURVE",
"863 435 CURVE",
"726 377 LINE",
"775 277 OFFCURVE",
"817 118 OFFCURVE",
"831 17 CURVE"
);
}
);
width = 1000;
}
);
unicode = 3075;
},
{
glyphname = "bu-hira";
lastChange = "2020-03-18 19:21:13 +0000";
layers = (
{
anchors = (
{
name = LSB;
position = "{3, 380}";
},
{
name = RSB;
position = "{1015, 380}";
}
);
layerId = "BE1754C0-A605-45AC-AA12-D3A1FC0C380B";
paths = (
{
closed = 1;
nodes = (
"813 864 LINE",
"831 837 OFFCURVE",
"865 797 OFFCURVE",
"896 774 CURVE",
"843 715 LINE",
"822 730 OFFCURVE",
"769 788 OFFCURVE",
"753 818 CURVE"
);
},
{
closed = 1;
nodes = (
"711 845 LINE",
"724 814 OFFCURVE",
"750 769 OFFCURVE",
"778 741 CURVE",
"717 690 LINE",
"699 709 OFFCURVE",
"652 780 OFFCURVE",
"642 813 CURVE"
);
},
{
closed = 1;
nodes = (
"628 -15 OFFCURVE",
"744 86 OFFCURVE",
"724 253 CURVE SMOOTH",
"708 385 OFFCURVE",
"630 447 OFFCURVE",
"527 474 CURVE",
"575 499 OFFCURVE",
"647 575 OFFCURVE",
"637 654 CURVE SMOOTH",
"616 822 OFFCURVE",
"408 869 OFFCURVE",
"172 802 CURVE",
"210 652 LINE",
"311 688 OFFCURVE",
"455 698 OFFCURVE",
"466 639 CURVE",
"475 603 OFFCURVE",
"401 528 OFFCURVE",
"262 494 CURVE",
"292 340 LINE",
"391 365 OFFCURVE",
"534 343 OFFCURVE",
"557 257 CURVE SMOOTH",
"588 141 OFFCURVE",
"465 66 OFFCURVE",
"383 37 CURVE",
"508 -79 LINE"
);
},
{
closed = 1;
nodes = (
"200 50 OFFCURVE",
"221 203 OFFCURVE",
"255 305 CURVE",
"108 351 LINE",
"93 305 OFFCURVE",
"36 99 OFFCURVE",
"29 -13 CURVE",
"186 -49 LINE"
);
},
{
closed = 1;
nodes = (
"989 62 LINE",
"976 153 OFFCURVE",
"920 348 OFFCURVE",
"863 435 CURVE",
"726 377 LINE",
"775 277 OFFCURVE",
"817 118 OFFCURVE",
"831 17 CURVE"
);
}
);
width = 1000;
}
);
unicode = 3076;
},
{
glyphname = "pu-hira";
lastChange = "2020-03-18 19:21:13 +0000";
layers = (
{
anchors = (
{
name = LSB;
position = "{3, 380}";
},
{
name = RSB;
position = "{1015, 380}";
}
);
layerId = "BE1754C0-A605-45AC-AA12-D3A1FC0C380B";
paths = (
{
closed = 1;
nodes = (
"829 630 OFFCURVE",
"872 674 OFFCURVE",
"872 728 CURVE",
"872 781 OFFCURVE",
"829 825 OFFCURVE",
"775 825 CURVE",
"721 825 OFFCURVE",
"677 781 OFFCURVE",
"677 728 CURVE",
"677 674 OFFCURVE",
"721 630 OFFCURVE",
"775 630 CURVE"
);
},
{
closed = 1;
nodes = (
"757 696 OFFCURVE",
"743 710 OFFCURVE",
"743 728 CURVE",
"743 745 OFFCURVE",
"757 760 OFFCURVE",
"775 760 CURVE",
"792 760 OFFCURVE",
"807 745 OFFCURVE",
"807 728 CURVE",
"807 710 OFFCURVE",
"792 696 OFFCURVE",
"775 696 CURVE"
);
},
{
closed = 1;
nodes = (
"628 -15 OFFCURVE",
"744 86 OFFCURVE",
"724 253 CURVE SMOOTH",
"708 385 OFFCURVE",
"630 447 OFFCURVE",
"527 474 CURVE",
"575 499 OFFCURVE",
"647 575 OFFCURVE",
"637 654 CURVE SMOOTH",
"616 822 OFFCURVE",
"408 869 OFFCURVE",
"172 802 CURVE",
"210 652 LINE",
"311 688 OFFCURVE",
"455 698 OFFCURVE",
"466 639 CURVE",
"475 603 OFFCURVE",
"401 528 OFFCURVE",
"262 494 CURVE",
"292 340 LINE",
"391 365 OFFCURVE",
"534 343 OFFCURVE",
"557 257 CURVE SMOOTH",
"588 141 OFFCURVE",
"465 66 OFFCURVE",
"383 37 CURVE",
"508 -79 LINE"
);
},
{
closed = 1;
nodes = (
"200 50 OFFCURVE",
"221 203 OFFCURVE",
"255 305 CURVE",
"108 351 LINE",
"93 305 OFFCURVE",
"36 99 OFFCURVE",
"29 -13 CURVE",
"186 -49 LINE"
);
},
{
closed = 1;
nodes = (
"989 62 LINE",
"976 153 OFFCURVE",
"920 348 OFFCURVE",
"863 435 CURVE",
"726 377 LINE",
"775 277 OFFCURVE",
"817 118 OFFCURVE",
"831 17 CURVE"
);
}
);
width = 1000;
}
);
unicode = 3077;
},
{
glyphname = "he-hira";
lastChange = "2020-03-18 19:21:13 +0000";
layers = (
{
anchors = (
{
name = LSB;
position = "{-15, 380}";
},
{
name = RSB;
position = "{1006, 380}";
}
);
layerId = "BE1754C0-A605-45AC-AA12-D3A1FC0C380B";
paths = (
{
closed = 1;
nodes = (
"980 98 LINE",
"899 226 OFFCURVE",
"640 686 OFFCURVE",
"435 701 CURVE",
"230 715 OFFCURVE",
"59 355 OFFCURVE",
"11 257 CURVE",
"149 169 LINE",
"192 259 OFFCURVE",
"327 530 OFFCURVE",
"428 523 CURVE",
"528 516 OFFCURVE",
"720 206 OFFCURVE",
"836 -12 CURVE"
);
}
);
width = 1000;
}
);
unicode = 3078;
},
{
glyphname = "be-hira";
lastChange = "2020-03-18 19:21:13 +0000";
layers = (
{
anchors = (
{
name = LSB;
position = "{-15, 380}";
},
{
name = RSB;
position = "{1006, 380}";
}
);
layerId = "BE1754C0-A605-45AC-AA12-D3A1FC0C380B";
paths = (
{
closed = 1;
nodes = (
"927 674 LINE",
"893 692 OFFCURVE",
"853 726 OFFCURVE",
"831 751 CURVE",
"779 696 LINE",
"799 668 OFFCURVE",
"860 619 OFFCURVE",
"883 608 CURVE"
);
},
{
closed = 1;
nodes = (
"815 623 LINE",
"784 647 OFFCURVE",
"750 687 OFFCURVE",
"733 715 CURVE",
"670 673 LINE",
"685 642 OFFCURVE",
"742 579 OFFCURVE",
"763 564 CURVE"
);
},
{
closed = 1;
nodes = (
"980 98 LINE",
"899 226 OFFCURVE",
"640 686 OFFCURVE",
"435 701 CURVE",
"230 715 OFFCURVE",
"59 355 OFFCURVE",
"11 257 CURVE",
"149 169 LINE",
"192 259 OFFCURVE",
"327 530 OFFCURVE",
"428 523 CURVE",
"528 516 OFFCURVE",
"720 206 OFFCURVE",
"836 -12 CURVE"
);
}
);
width = 1000;
}
);
unicode = 3079;
},
{
glyphname = "pe-hira";
lastChange = "2020-03-18 19:21:13 +0000";
layers = (
{
anchors = (
{
name = LSB;
position = "{-15, 380}";
},
{
name = RSB;
position = "{1006, 380}";
}
);
layerId = "BE1754C0-A605-45AC-AA12-D3A1FC0C380B";
paths = (
{
closed = 1;
nodes = (
"852 515 OFFCURVE",
"895 559 OFFCURVE",
"895 613 CURVE",
"895 666 OFFCURVE",
"852 710 OFFCURVE",
"798 710 CURVE",
"744 710 OFFCURVE",
"701 666 OFFCURVE",
"701 613 CURVE",
"701 559 OFFCURVE",
"744 515 OFFCURVE",
"798 515 CURVE"
);
},
{
closed = 1;
nodes = (
"780 581 OFFCURVE",
"766 595 OFFCURVE",
"766 613 CURVE",
"766 630 OFFCURVE",
"780 645 OFFCURVE",
"798 645 CURVE",
"816 645 OFFCURVE",
"830 630 OFFCURVE",
"830 613 CURVE",
"830 595 OFFCURVE",
"816 581 OFFCURVE",
"798 581 CURVE"
);
},
{
closed = 1;
nodes = (
"980 98 LINE",
"899 226 OFFCURVE",
"640 686 OFFCURVE",
"435 701 CURVE",
"230 715 OFFCURVE",
"59 355 OFFCURVE",
"11 257 CURVE",
"149 169 LINE",
"192 259 OFFCURVE",
"327 530 OFFCURVE",
"428 523 CURVE",
"528 516 OFFCURVE",
"720 206 OFFCURVE",
"836 -12 CURVE"
);
}
);
width = 1000;
}
);
unicode = 307A;
},
{
glyphname = "ho-hira";
lastChange = "2020-03-18 19:21:13 +0000";
layers = (
{
anchors = (
{
name = LSB;
position = "{38.472, 380}";
},
{
name = RSB;
position = "{987, 380}";
}
);
layerId = "BE1754C0-A605-45AC-AA12-D3A1FC0C380B";
paths = (
{
closed = 1;
nodes = (
"563 -67 OFFCURVE",
"774 -77 OFFCURVE",
"784 206 CURVE SMOOTH",
"785 234 OFFCURVE",
"786 491 OFFCURVE",
"736 669 CURVE",
"590 657 LINE",
"590 657 OFFCURVE",
"648 456 OFFCURVE",
"636 253 CURVE SMOOTH",
"630 149 OFFCURVE",
"635 76 OFFCURVE",
"541 74 CURVE SMOOTH",
"501 73 OFFCURVE",
"480 102 OFFCURVE",
"480 122 CURVE",
"481 141 OFFCURVE",
"506 198 OFFCURVE",
"609 190 CURVE SMOOTH",
"691 184 OFFCURVE",
"763 144 OFFCURVE",
"873 28 CURVE",
"961 150 LINE",
"859 249 OFFCURVE",
"746 322 OFFCURVE",
"606 329 CURVE SMOOTH",
"465 336 OFFCURVE",
"344 266 OFFCURVE",
"336 128 CURVE SMOOTH",
"327 -11 OFFCURVE",
"454 -61 OFFCURVE",
"524 -65 CURVE SMOOTH"
);
},
{
closed = 1;
nodes = (
"245 -6 LINE",
"196 221 OFFCURVE",
"213 568 OFFCURVE",
"278 762 CURVE",
"130 797 LINE",
"57 500 OFFCURVE",
"44 219 OFFCURVE",
"96 -40 CURVE"
);
},
{
closed = 1;
nodes = (
"495 401 OFFCURVE",
"756 401 OFFCURVE",
"900 447 CURVE",
"885 579 LINE",
"788 556 OFFCURVE",
"478 532 OFFCURVE",
"359 534 CURVE",
"362 401 LINE"
);
},
{
closed = 1;
nodes = (
"492 635 OFFCURVE",
"758 653 OFFCURVE",
"859 637 CURVE",
"851 779 LINE",
"732 795 OFFCURVE",
"487 781 OFFCURVE",
"377 751 CURVE",
"392 611 LINE"
);
}
);
width = 1000;
}
);
unicode = 307B;
},
{
glyphname = "bo-hira";
lastChange = "2020-03-18 19:21:13 +0000";
layers = (
{
anchors = (
{
name = LSB;
position = "{38.472, 380}";
},
{
name = RSB;
position = "{1024, 380}";
}
);
layerId = "BE1754C0-A605-45AC-AA12-D3A1FC0C380B";
paths = (
{
closed = 1;
nodes = (
"558 -67 OFFCURVE",
"728 -75 OFFCURVE",
"773 121 CURVE",
"803 97 OFFCURVE",
"836 67 OFFCURVE",
"873 28 CURVE",
"961 150 LINE",
"906 203 OFFCURVE",
"848 249 OFFCURVE",
"783 281 CURVE",
"783 319 OFFCURVE",
"780 368 OFFCURVE",
"776 421 CURVE",
"822 427 OFFCURVE",
"864 436 OFFCURVE",
"900 447 CURVE",
"885 579 LINE",
"857 572 OFFCURVE",
"812 566 OFFCURVE",
"759 560 CURVE",
"755 588 OFFCURVE",
"749 616 OFFCURVE",
"743 643 CURVE",
"790 643 OFFCURVE",
"831 641 OFFCURVE",
"859 637 CURVE",
"856 683 LINE",
"823 653 LINE",
"803 671 LINE SMOOTH",
"783 689 OFFCURVE",
"741 747 OFFCURVE",
"722 786 CURVE",
"601 786 OFFCURVE",
"455 772 OFFCURVE",
"377 751 CURVE",
"392 611 LINE",
"436 622 OFFCURVE",
"514 631 OFFCURVE",
"595 637 CURVE",
"600 618 OFFCURVE",
"607 586 OFFCURVE",
"615 546 CURVE",
"515 538 OFFCURVE",
"415 533 OFFCURVE",
"359 534 CURVE",
"362 401 LINE",
"430 401 OFFCURVE",
"531 401 OFFCURVE",
"633 407 CURVE",
"636 381 OFFCURVE",
"637 354 OFFCURVE",
"637 326 CURVE",
"627 328 OFFCURVE",
"617 328 OFFCURVE",
"606 329 CURVE",
"465 336 OFFCURVE",
"344 266 OFFCURVE",
"336 128 CURVE SMOOTH",
"327 -11 OFFCURVE",
"454 -61 OFFCURVE",
"524 -65 CURVE SMOOTH"
);
},
{
closed = 1;
nodes = (
"245 -6 LINE",
"196 221 OFFCURVE",
"213 568 OFFCURVE",
"278 762 CURVE",
"130 797 LINE",
"57 500 OFFCURVE",
"44 219 OFFCURVE",
"96 -40 CURVE"
);
},
{
closed = 1;
nodes = (
"501 73 OFFCURVE",
"480 102 OFFCURVE",
"480 122 CURVE",
"481 141 OFFCURVE",
"506 198 OFFCURVE",
"609 190 CURVE",
"617 189 OFFCURVE",
"624 189 OFFCURVE",
"632 187 CURVE",
"627 119 OFFCURVE",
"614 76 OFFCURVE",
"541 74 CURVE SMOOTH"
);
},
{
closed = 1;
nodes = (
"881 747 LINE",
"853 774 OFFCURVE",
"824 817 OFFCURVE",
"810 847 CURVE",
"742 812 LINE",
"754 779 OFFCURVE",
"804 711 OFFCURVE",
"823 693 CURVE"
);
},
{
closed = 1;
nodes = (
"998 786 LINE",
"966 807 OFFCURVE",
"930 845 OFFCURVE",
"911 872 CURVE",
"853 823 LINE",
"871 793 OFFCURVE",
"926 738 OFFCURVE",
"948 724 CURVE"
);
}
);
width = 1000;
}
);
unicode = 307C;
},
{
glyphname = "po-hira";
lastChange = "2020-03-18 19:21:13 +0000";
layers = (
{
anchors = (
{
name = LSB;
position = "{38.472, 380}";
},
{
name = RSB;
position = "{1007, 380}";
}
);
layerId = "BE1754C0-A605-45AC-AA12-D3A1FC0C380B";
paths = (
{
closed = 1;
nodes = (
"558 -67 OFFCURVE",
"728 -75 OFFCURVE",
"773 121 CURVE",
"803 97 OFFCURVE",
"836 67 OFFCURVE",
"873 28 CURVE",
"961 150 LINE",
"906 203 OFFCURVE",
"848 249 OFFCURVE",
"783 281 CURVE",
"783 319 OFFCURVE",
"780 368 OFFCURVE",
"776 421 CURVE",
"822 427 OFFCURVE",
"864 436 OFFCURVE",
"900 447 CURVE",
"885 579 LINE",
"857 572 OFFCURVE",
"812 566 OFFCURVE",
"759 560 CURVE",
"755 588 OFFCURVE",
"749 616 OFFCURVE",
"743 643 CURVE",
"769 643 OFFCURVE",
"793 643 OFFCURVE",
"814 641 CURVE",
"779 664 OFFCURVE",
"756 703 OFFCURVE",
"756 748 CURVE SMOOTH",
"756 761 OFFCURVE",
"758 773 OFFCURVE",
"762 785 CURVE",
"635 788 OFFCURVE",
"464 775 OFFCURVE",
"377 751 CURVE",
"392 611 LINE",
"436 622 OFFCURVE",
"514 631 OFFCURVE",
"595 637 CURVE",
"600 618 OFFCURVE",
"607 586 OFFCURVE",
"615 546 CURVE",
"515 538 OFFCURVE",
"415 533 OFFCURVE",
"359 534 CURVE",
"362 401 LINE",
"430 401 OFFCURVE",
"531 401 OFFCURVE",
"633 407 CURVE",
"636 381 OFFCURVE",
"637 354 OFFCURVE",
"637 326 CURVE",
"627 328 OFFCURVE",
"617 328 OFFCURVE",
"606 329 CURVE",
"465 336 OFFCURVE",
"344 266 OFFCURVE",
"336 128 CURVE SMOOTH",
"327 -11 OFFCURVE",
"454 -61 OFFCURVE",
"524 -65 CURVE SMOOTH"
);
},
{
closed = 1;
nodes = (
"245 -6 LINE",
"196 221 OFFCURVE",
"213 568 OFFCURVE",
"278 762 CURVE",
"130 797 LINE",
"57 500 OFFCURVE",
"44 219 OFFCURVE",
"96 -40 CURVE"
);
},
{
closed = 1;
nodes = (
"501 73 OFFCURVE",
"480 102 OFFCURVE",
"480 122 CURVE",
"481 141 OFFCURVE",
"506 198 OFFCURVE",
"609 190 CURVE",
"617 189 OFFCURVE",
"624 189 OFFCURVE",
"632 187 CURVE",
"627 119 OFFCURVE",
"614 76 OFFCURVE",
"541 74 CURVE SMOOTH"
);
},
{
closed = 1;
nodes = (
"937 651 OFFCURVE",
"981 694 OFFCURVE",
"981 748 CURVE SMOOTH",
"981 802 OFFCURVE",
"937 845 OFFCURVE",
"883 845 CURVE SMOOTH",
"830 845 OFFCURVE",
"786 802 OFFCURVE",
"786 748 CURVE SMOOTH",
"786 694 OFFCURVE",
"830 651 OFFCURVE",
"883 651 CURVE SMOOTH"
);
},
{
closed = 1;
nodes = (
"866 716 OFFCURVE",
"852 730 OFFCURVE",
"852 748 CURVE SMOOTH",
"852 765 OFFCURVE",
"866 780 OFFCURVE",
"883 780 CURVE SMOOTH",
"901 780 OFFCURVE",
"915 765 OFFCURVE",
"915 748 CURVE SMOOTH",
"915 730 OFFCURVE",
"901 716 OFFCURVE",
"883 716 CURVE SMOOTH"
);
}
);
width = 1000;
}
);
unicode = 307D;
},
{
glyphname = "ma-hira";
lastChange = "2020-03-18 19:21:13 +0000";
layers = (
{
anchors = (
{
name = LSB;
position = "{61, 380}";
},
{
name = RSB;
position = "{920, 380}";
}
);
layerId = "BE1754C0-A605-45AC-AA12-D3A1FC0C380B";
paths = (
{
closed = 1;
nodes = (
"514 -59 OFFCURVE",
"626 26 OFFCURVE",
"604 331 CURVE SMOOTH",
"591 513 OFFCURVE",
"566 719 OFFCURVE",
"535 851 CURVE",
"377 830 LINE",
"419 685 OFFCURVE",
"453 500 OFFCURVE",
"461 318 CURVE SMOOTH",
"469 125 OFFCURVE",
"427 86 OFFCURVE",
"351 77 CURVE SMOOTH",
"301 71 OFFCURVE",
"266 99 OFFCURVE",
"266 123 CURVE SMOOTH",
"266 159 OFFCURVE",
"317 192 OFFCURVE",
"402 195 CURVE SMOOTH",
"556 200 OFFCURVE",
"662 140 OFFCURVE",
"770 -13 CURVE",
"894 81 LINE",
"783 217 OFFCURVE",
"639 345 OFFCURVE",
"404 337 CURVE SMOOTH",
"201 330 OFFCURVE",
"120 216 OFFCURVE",
"118 128 CURVE SMOOTH",
"116 38 OFFCURVE",
"192 -61 OFFCURVE",
"326 -60 CURVE SMOOTH"
);
},
{
closed = 1;
nodes = (
"255 385 OFFCURVE",
"658 397 OFFCURVE",
"847 428 CURVE",
"830 566 LINE",
"652 532 OFFCURVE",
"276 521 OFFCURVE",
"132 530 CURVE",
"136 399 LINE"
);
},
{
closed = 1;
nodes = (
"302 619 OFFCURVE",
"690 638 OFFCURVE",
"857 616 CURVE",
"870 752 LINE",
"717 776 OFFCURVE",
"322 760 OFFCURVE",
"87 714 CURVE",
"112 575 LINE"
);
}
);
width = 1000;
}
);
unicode = 307E;
},
{
glyphname = "mi-hira";
lastChange = "2020-03-18 19:21:13 +0000";
layers = (
{
anchors = (
{
name = LSB;
position = "{22.691, 380}";
},
{
name = RSB;
position = "{1004, 380}";
}
);
layerId = "BE1754C0-A605-45AC-AA12-D3A1FC0C380B";
paths = (
{
closed = 1;
nodes = (
"381 -31 OFFCURVE",
"474 108 OFFCURVE",
"514 286 CURVE SMOOTH",
"598 656 OFFCURVE",
"512 742 OFFCURVE",
"423 780 CURVE SMOOTH",
"331 819 OFFCURVE",
"220 805 OFFCURVE",
"113 751 CURVE",
"162 604 LINE",
"221 637 OFFCURVE",
"283 655 OFFCURVE",
"331 650 CURVE SMOOTH",
"387 645 OFFCURVE",
"409 604 OFFCURVE",
"402 526 CURVE SMOOTH",
"387 369 OFFCURVE",
"353 125 OFFCURVE",
"242 134 CURVE SMOOTH",
"208 136 OFFCURVE",
"191 155 OFFCURVE",
"196 190 CURVE SMOOTH",
"206 259 OFFCURVE",
"268 358 OFFCURVE",
"470 361 CURVE SMOOTH",
"572 363 OFFCURVE",
"693 338 OFFCURVE",
"916 174 CURVE",
"978 314 LINE",
"800 441 OFFCURVE",
"668 506 OFFCURVE",
"492 511 CURVE SMOOTH",
"266 517 OFFCURVE",
"67 406 OFFCURVE",
"50 217 CURVE SMOOTH",
"34 41 OFFCURVE",
"169 -10 OFFCURVE",
"218 -15 CURVE SMOOTH"
);
},
{
closed = 1;
nodes = (
"881 145 OFFCURVE",
"901 514 OFFCURVE",
"840 710 CURVE",
"692 691 LINE",
"742 544 OFFCURVE",
"764 239 OFFCURVE",
"574 19 CURVE",
"701 -76 LINE"
);
}
);
width = 1000;
}
);
unicode = 307F;
},
{
glyphname = "mu-hira";
lastChange = "2020-03-18 19:21:13 +0000";
layers = (
{
anchors = (
{
name = LSB;
position = "{22.616, 380}";
},
{
name = RSB;
position = "{992, 380}";
}
);
layerId = "BE1754C0-A605-45AC-AA12-D3A1FC0C380B";
paths = (
{
closed = 1;
nodes = (
"895 -38 OFFCURVE",
"930 261 OFFCURVE",
"931 260 CURVE",
"930 261 LINE",
"768 288 LINE",
"762 188 OFFCURVE",
"681 112 OFFCURVE",
"554 85 CURVE SMOOTH",
"433 60 OFFCURVE",
"364 136 OFFCURVE",
"348 169 CURVE",
"222 69 LINE",
"251 31 OFFCURVE",
"339 -95 OFFCURVE",
"551 -74 CURVE SMOOTH"
);
},
{
closed = 1;
nodes = (
"237 -23 OFFCURVE",
"419 94 OFFCURVE",
"437 258 CURVE SMOOTH",
"454 413 OFFCURVE",
"369 460 OFFCURVE",
"324 473 CURVE SMOOTH",
"166 517 OFFCURVE",
"83 394 OFFCURVE",
"62 329 CURVE SMOOTH",
"39 259 OFFCURVE",
"39 139 OFFCURVE",
"116 77 CURVE SMOOTH"
);
},
{
closed = 1;
nodes = (
"166 207 OFFCURVE",
"178 361 OFFCURVE",
"280 341 CURVE SMOOTH",
"306 336 OFFCURVE",
"290 179 OFFCURVE",
"206 198 CURVE SMOOTH"
);
},
{
closed = 1;
nodes = (
"519 219 OFFCURVE",
"422 727 OFFCURVE",
"401 835 CURVE",
"257 819 LINE",
"280 729 OFFCURVE",
"315 529 OFFCURVE",
"303 382 CURVE",
"366 112 LINE"
);
},
{
closed = 1;
nodes = (
"217 541 OFFCURVE",
"463 579 OFFCURVE",
"578 565 CURVE",
"582 705 LINE",
"451 713 OFFCURVE",
"172 677 OFFCURVE",
"77 638 CURVE",
"99 499 LINE"
);
},
{
closed = 1;
nodes = (
"966 497 LINE",
"935 533 OFFCURVE",
"869 638 OFFCURVE",
"844 702 CURVE",
"705 642 LINE",
"735 568 OFFCURVE",
"774 497 OFFCURVE",
"824 432 CURVE"
);
}
);
width = 1000;
}
);
unicode = 3080;
},
{
glyphname = "me-hira";
lastChange = "2020-03-18 19:21:13 +0000";
layers = (
{
anchors = (
{
name = LSB;
position = "{11.031, 380}";
},
{
name = RSB;
position = "{988.296, 380}";
}
);
layerId = "BE1754C0-A605-45AC-AA12-D3A1FC0C380B";
paths = (
{
closed = 1;
nodes = (
"851 -13 OFFCURVE",
"912 53 OFFCURVE",
"947 168 CURVE",
"999 352 OFFCURVE",
"925 647 OFFCURVE",
"623 678 CURVE",
"204 719 OFFCURVE",
"70 417 OFFCURVE",
"53 308 CURVE",
"1 135 OFFCURVE",
"76 -72 OFFCURVE",
"278 -12 CURVE",
"568 73 OFFCURVE",
"698 415 OFFCURVE",
"745 794 CURVE",
"580 826 LINE",
"559 268 OFFCURVE",
"291 122 OFFCURVE",
"214 137 CURVE",
"183 141 OFFCURVE",
"163 176 OFFCURVE",
"173 232 CURVE",
"216 472 OFFCURVE",
"435 566 OFFCURVE",
"611 531 CURVE",
"781 496 OFFCURVE",
"833 376 OFFCURVE",
"802 235 CURVE",
"782 143 OFFCURVE",
"701 48 OFFCURVE",
"628 14 CURVE",
"781 -76 LINE"
);
},
{
closed = 1;
nodes = (
"581 135 LINE",
"418 248 OFFCURVE",
"284 596 OFFCURVE",
"284 773 CURVE",
"144 727 LINE",
"159 514 OFFCURVE",
"310 160 OFFCURVE",
"495 16 CURVE"
);
}
);
width = 1000;
}
);
unicode = 3081;
},
{
glyphname = "mo-hira";
lastChange = "2020-03-18 19:21:13 +0000";
layers = (
{
anchors = (
{
name = LSB;
position = "{35, 380}";
},
{
name = RSB;
position = "{989, 380}";
}
);
layerId = "BE1754C0-A605-45AC-AA12-D3A1FC0C380B";
paths = (
{
closed = 1;
nodes = (
"812 -59 OFFCURVE",
"910 102 OFFCURVE",
"963 254 CURVE",
"831 332 LINE",
"771 168 OFFCURVE",
"689 80 OFFCURVE",
"547 99 CURVE SMOOTH",
"339 127 OFFCURVE",
"386 573 OFFCURVE",
"484 821 CURVE",
"332 853 LINE",
"207 497 OFFCURVE",
"164 -38 OFFCURVE",
"558 -51 CURVE SMOOTH"
);
},
{
closed = 1;
nodes = (
"252 215 OFFCURVE",
"583 285 OFFCURVE",
"729 331 CURVE",
"694 467 LINE",
"542 419 OFFCURVE",
"223 366 OFFCURVE",
"87 359 CURVE",
"96 221 LINE"
);
},
{
closed = 1;
nodes = (
"205 529 OFFCURVE",
"574 554 OFFCURVE",
"732 539 CURVE",
"738 676 LINE",
"596 701 OFFCURVE",
"217 685 OFFCURVE",
"61 636 CURVE",
"67 506 LINE"
);
}
);
width = 1000;
}
);
unicode = 3082;
},
{
glyphname = "ya-hira";
lastChange = "2020-03-18 19:21:13 +0000";
layers = (
{
anchors = (
{
name = LSB;
position = "{-13, 380}";
},
{
name = RSB;
position = "{983.099, 380}";
}
);
layerId = "BE1754C0-A605-45AC-AA12-D3A1FC0C380B";
paths = (
{
closed = 1;
nodes = (
"742 178 OFFCURVE",
"929 254 OFFCURVE",
"954 436 CURVE SMOOTH",
"979 611 OFFCURVE",
"847 671 OFFCURVE",
"765 681 CURVE SMOOTH",
"621 698 OFFCURVE",
"311 637 OFFCURVE",
"13 477 CURVE",
"83 342 LINE",
"311 460 OFFCURVE",
"553 556 OFFCURVE",
"726 540 CURVE SMOOTH",
"784 534 OFFCURVE",
"811 503 OFFCURVE",
"804 450 CURVE SMOOTH",
"799 404 OFFCURVE",
"749 345 OFFCURVE",
"653 304 CURVE",
"742 178 LINE"
);
},
{
closed = 1;
nodes = (
"570 -8 LINE",
"405 233 OFFCURVE",
"263 625 OFFCURVE",
"228 803 CURVE",
"82 775 LINE",
"122 556 OFFCURVE",
"288 126 OFFCURVE",
"421 -76 CURVE"
);
},
{
closed = 1;
nodes = (
"681 509 OFFCURVE",
"700 733 OFFCURVE",
"700 832 CURVE",
"547 848 LINE",
"556 755 OFFCURVE",
"524 528 OFFCURVE",
"477 375 CURVE",
"636 361 LINE"
);
}
);
width = 1000;
}
);
unicode = 3084;
},
{
glyphname = "yasmall-hira";
lastChange = "2020-03-18 19:21:13 +0000";
layers = (
{
anchors = (
{
name = LSB;
position = "{66, 380}";
},
{
name = RSB;
position = "{896.667, 380}";
}
);
layerId = "BE1754C0-A605-45AC-AA12-D3A1FC0C380B";
paths = (
{
closed = 1;
nodes = (
"566 -26 LINE",
"559 -16 LINE SMOOTH",
"497 74 OFFCURVE",
"433 202 OFFCURVE",
"376 346 CURVE",
"417 362 OFFCURVE",
"456 374 OFFCURVE",
"492 384 CURVE",
"484 349 OFFCURVE",
"476 316 OFFCURVE",
"467 287 CURVE SMOOTH",
"464 276 LINE",
"611 263 LINE",
"614 270 LINE",
"625 308 OFFCURVE",
"635 355 OFFCURVE",
"644 408 CURVE",
"645 408 LINE SMOOTH",
"655 408 OFFCURVE",
"665 407 OFFCURVE",
"675 407 CURVE",
"696 404 OFFCURVE",
"712 398 OFFCURVE",
"720 387 CURVE",
"728 377 OFFCURVE",
"731 363 OFFCURVE",
"728 346 CURVE",
"725 317 OFFCURVE",
"693 271 OFFCURVE",
"614 237 CURVE SMOOTH",
"602 232 LINE",
"685 115 LINE",
"693 118 LINE",
"694 118 OFFCURVE",
"732 134 OFFCURVE",
"772 168 CURVE SMOOTH",
"796 188 OFFCURVE",
"816 210 OFFCURVE",
"832 234 CURVE SMOOTH",
"851 264 OFFCURVE",
"864 297 OFFCURVE",
"868 332 CURVE SMOOTH",
"876 387 OFFCURVE",
"866 433 OFFCURVE",
"838 470 CURVE SMOOTH",
"822 490 OFFCURVE",
"801 507 OFFCURVE",
"775 520 CURVE SMOOTH",
"749 532 OFFCURVE",
"724 537 OFFCURVE",
"708 539 CURVE",
"696 541 OFFCURVE",
"681 541 OFFCURVE",
"666 541 CURVE SMOOTH",
"660 541 LINE",
"663 582 OFFCURVE",
"665 621 OFFCURVE",
"665 650 CURVE SMOOTH",
"665 659 LINE",
"522 674 LINE",
"523 662 LINE SMOOTH",
"526 632 OFFCURVE",
"523 584 OFFCURVE",
"516 525 CURVE",
"456 514 OFFCURVE",
"393 497 OFFCURVE",
"330 475 CURVE",
"310 534 OFFCURVE",
"295 589 OFFCURVE",
"287 629 CURVE SMOOTH",
"285 639 LINE",
"149 612 LINE",
"151 603 LINE SMOOTH",
"160 555 OFFCURVE",
"176 493 OFFCURVE",
"199 423 CURVE",
"165 408 OFFCURVE",
"133 392 OFFCURVE",
"101 375 CURVE SMOOTH",
"92 370 LINE",
"157 245 LINE",
"166 249 LINE",
"194 263 OFFCURVE",
"220 277 OFFCURVE",
"246 289 CURVE",
"303 139 OFFCURVE",
"369 0 OFFCURVE",
"424 -82 CURVE",
"428 -89 LINE"
);
}
);
width = 1000;
}
);
unicode = 3083;
},
{
glyphname = "yu-hira";
lastChange = "2020-03-18 19:21:13 +0000";
layers = (
{
anchors = (
{
name = LSB;
position = "{0, 380}";
},
{
name = RSB;
position = "{967, 380}";
}
);
layerId = "BE1754C0-A605-45AC-AA12-D3A1FC0C380B";
paths = (
{
closed = 1;
nodes = (
"827 48 OFFCURVE",
"941 226 OFFCURVE",
"941 411 CURVE SMOOTH",
"941 599 OFFCURVE",
"813 744 OFFCURVE",
"585 744 CURVE SMOOTH",
"356 744 OFFCURVE",
"217 519 OFFCURVE",
"201 432 CURVE",
"183 493 OFFCURVE",
"170 571 OFFCURVE",
"168 638 CURVE",
"26 609 LINE",
"32 429 OFFCURVE",
"101 171 OFFCURVE",
"139 103 CURVE",
"256 147 LINE",
"264 454 OFFCURVE",
"448 595 OFFCURVE",
"584 595 CURVE SMOOTH",
"718 595 OFFCURVE",
"799 523 OFFCURVE",
"799 408 CURVE SMOOTH",
"799 280 OFFCURVE",
"707 202 OFFCURVE",
"619 202 CURVE SMOOTH",
"532 202 OFFCURVE",
"444 242 OFFCURVE",
"391 269 CURVE",
"340 126 LINE",
"368 113 OFFCURVE",
"476 48 OFFCURVE",
"616 48 CURVE SMOOTH"
);
},
{
closed = 1;
nodes = (
"553 -23 OFFCURVE",
"679 145 OFFCURVE",
"675 384 CURVE SMOOTH",
"671 644 OFFCURVE",
"578 763 OFFCURVE",
"446 837 CURVE",
"307 760 LINE",
"422 702 OFFCURVE",
"529 591 OFFCURVE",
"529 379 CURVE SMOOTH",
"529 212 OFFCURVE",
"453 79 OFFCURVE",
"326 -7 CURVE",
"476 -74 LINE"
);
}
);
width = 1000;
}
);
unicode = 3086;
},
{
glyphname = "yusmall-hira";
lastChange = "2020-03-18 19:21:13 +0000";
layers = (
{
anchors = (
{
name = LSB;
position = "{100, 380}";
},
{
name = RSB;
position = "{904, 380}";
}
);
layerId = "BE1754C0-A605-45AC-AA12-D3A1FC0C380B";
paths = (
{
closed = 1;
nodes = (
"502 -83 LINE",
"531 -64 OFFCURVE",
"563 -29 OFFCURVE",
"589 13 CURVE",
"608 13 LINE SMOOTH",
"690 13 OFFCURVE",
"760 45 OFFCURVE",
"809 106 CURVE SMOOTH",
"854 161 OFFCURVE",
"878 234 OFFCURVE",
"878 313 CURVE SMOOTH",
"878 352 OFFCURVE",
"872 388 OFFCURVE",
"859 422 CURVE",
"845 455 OFFCURVE",
"826 485 OFFCURVE",
"801 510 CURVE SMOOTH",
"748 562 OFFCURVE",
"673 589 OFFCURVE",
"583 589 CURVE SMOOTH",
"571 589 LINE",
"546 617 OFFCURVE",
"515 641 OFFCURVE",
"477 663 CURVE",
"472 665 LINE",
"340 592 LINE",
"356 583 LINE",
"381 571 OFFCURVE",
"403 557 OFFCURVE",
"422 540 CURVE",
"349 493 OFFCURVE",
"299 419 OFFCURVE",
"277 366 CURVE",
"267 408 OFFCURVE",
"261 455 OFFCURVE",
"260 495 CURVE",
"259 507 LINE",
"126 480 LINE",
"126 471 LINE SMOOTH",
"129 383 OFFCURVE",
"150 284 OFFCURVE",
"162 233 CURVE SMOOTH",
"180 157 OFFCURVE",
"202 90 OFFCURVE",
"218 62 CURVE",
"222 54 LINE",
"330 95 LINE",
"330 102 LINE SMOOTH",
"332 189 OFFCURVE",
"353 264 OFFCURVE",
"390 325 CURVE SMOOTH",
"426 384 OFFCURVE",
"470 415 OFFCURVE",
"502 431 CURVE",
"520 389 OFFCURVE",
"529 341 OFFCURVE",
"529 287 CURVE SMOOTH",
"529 248 OFFCURVE",
"523 210 OFFCURVE",
"512 174 CURVE",
"480 185 OFFCURVE",
"452 199 OFFCURVE",
"433 208 CURVE SMOOTH",
"423 213 LINE",
"375 80 LINE",
"383 76 LINE",
"386 75 OFFCURVE",
"389 73 OFFCURVE",
"393 71 CURVE SMOOTH",
"405 65 OFFCURVE",
"421 57 OFFCURVE",
"441 48 CURVE",
"421 25 OFFCURVE",
"397 5 OFFCURVE",
"371 -13 CURVE SMOOTH",
"356 -23 LINE",
"497 -86 LINE"
);
},
{
closed = 1;
nodes = (
"661 205 OFFCURVE",
"666 248 OFFCURVE",
"665 292 CURVE SMOOTH",
"664 348 OFFCURVE",
"658 398 OFFCURVE",
"647 442 CURVE",
"675 433 OFFCURVE",
"698 419 OFFCURVE",
"715 399 CURVE SMOOTH",
"735 376 OFFCURVE",
"745 346 OFFCURVE",
"745 311 CURVE SMOOTH",
"745 271 OFFCURVE",
"733 236 OFFCURVE",
"711 208 CURVE SMOOTH",
"695 187 OFFCURVE",
"675 172 OFFCURVE",
"652 163 CURVE"
);
}
);
width = 1000;
}
);
unicode = 3085;
},
{
glyphname = "yo-hira";
lastChange = "2020-03-18 19:21:13 +0000";
layers = (
{
anchors = (
{
name = LSB;
position = "{69, 380}";
},
{
name = RSB;
position = "{954, 380}";
}
);
layerId = "BE1754C0-A605-45AC-AA12-D3A1FC0C380B";
paths = (
{
closed = 1;
nodes = (
"465 -54 OFFCURVE",
"608 7 OFFCURVE",
"600 226 CURVE SMOOTH",
"591 478 OFFCURVE",
"536 732 OFFCURVE",
"501 842 CURVE",
"337 819 LINE",
"402 610 OFFCURVE",
"424 448 OFFCURVE",
"442 248 CURVE SMOOTH",
"453 116 OFFCURVE",
"384 91 OFFCURVE",
"342 89 CURVE SMOOTH",
"273 86 OFFCURVE",
"239 123 OFFCURVE",
"239 161 CURVE SMOOTH",
"239 232 OFFCURVE",
"306 268 OFFCURVE",
"378 268 CURVE SMOOTH",
"548 268 OFFCURVE",
"680 201 OFFCURVE",
"819 30 CURVE",
"928 142 LINE",
"784 309 OFFCURVE",
"602 412 OFFCURVE",
"383 412 CURVE SMOOTH",
"218 412 OFFCURVE",
"95 311 OFFCURVE",
"95 162 CURVE SMOOTH",
"95 10 OFFCURVE",
"239 -64 OFFCURVE",
"364 -59 CURVE SMOOTH"
);
},
{
closed = 1;
nodes = (
"606 537 OFFCURVE",
"744 538 OFFCURVE",
"849 516 CURVE",
"853 662 LINE",
"749 690 OFFCURVE",
"566 677 OFFCURVE",
"492 648 CURVE",
"521 512 LINE"
);
}
);
width = 1000;
}
);
unicode = 3088;
},
{
glyphname = "yosmall-hira";
lastChange = "2020-03-18 19:21:13 +0000";
layers = (
{
anchors = (
{
name = LSB;
position = "{159, 380}";
},
{
name = RSB;
position = "{901, 380}";
}
);
layerId = "BE1754C0-A605-45AC-AA12-D3A1FC0C380B";
paths = (
{
closed = 1;
nodes = (
"404 -84 OFFCURVE",
"408 -84 OFFCURVE",
"411 -83 CURVE",
"440 -82 OFFCURVE",
"497 -73 OFFCURVE",
"543 -32 CURVE SMOOTH",
"564 -13 OFFCURVE",
"581 11 OFFCURVE",
"592 39 CURVE SMOOTH",
"603 66 OFFCURVE",
"609 97 OFFCURVE",
"609 132 CURVE",
"663 102 OFFCURVE",
"714 56 OFFCURVE",
"767 -9 CURVE SMOOTH",
"774 -17 LINE",
"875 87 LINE",
"869 94 LINE SMOOTH",
"789 186 OFFCURVE",
"699 251 OFFCURVE",
"600 285 CURVE",
"597 317 OFFCURVE",
"592 350 OFFCURVE",
"587 384 CURVE",
"612 387 OFFCURVE",
"640 389 OFFCURVE",
"669 389 CURVE SMOOTH",
"713 389 OFFCURVE",
"758 385 OFFCURVE",
"796 377 CURVE",
"808 374 LINE",
"812 511 LINE",
"804 513 LINE SMOOTH",
"765 524 OFFCURVE",
"718 526 OFFCURVE",
"685 526 CURVE SMOOTH",
"643 526 OFFCURVE",
"600 522 OFFCURVE",
"564 516 CURVE",
"553 568 OFFCURVE",
"541 616 OFFCURVE",
"530 650 CURVE",
"527 658 LINE",
"376 637 LINE",
"379 626 LINE",
"412 520 OFFCURVE",
"433 426 OFFCURVE",
"448 313 CURVE",
"426 313 LINE SMOOTH",
"359 313 OFFCURVE",
"298 293 OFFCURVE",
"254 256 CURVE SMOOTH",
"232 237 OFFCURVE",
"215 215 OFFCURVE",
"204 189 CURVE",
"191 163 OFFCURVE",
"185 134 OFFCURVE",
"185 103 CURVE SMOOTH",
"185 46 OFFCURVE",
"209 -3 OFFCURVE",
"255 -37 CURVE SMOOTH",
"295 -67 OFFCURVE",
"348 -84 OFFCURVE",
"401 -84 CURVE SMOOTH"
);
},
{
closed = 1;
nodes = (
"365 55 OFFCURVE",
"348 60 OFFCURVE",
"336 70 CURVE",
"326 79 OFFCURVE",
"320 90 OFFCURVE",
"320 103 CURVE SMOOTH",
"320 126 OFFCURVE",
"331 145 OFFCURVE",
"350 158 CURVE SMOOTH",
"368 171 OFFCURVE",
"394 178 OFFCURVE",
"422 178 CURVE SMOOTH",
"436 178 OFFCURVE",
"449 178 OFFCURVE",
"462 176 CURVE",
"463 175 OFFCURVE",
"463 173 OFFCURVE",
"463 171 CURVE",
"466 129 OFFCURVE",
"460 97 OFFCURVE",
"442 77 CURVE SMOOTH",
"427 60 OFFCURVE",
"407 56 OFFCURVE",
"392 55 CURVE",
"387 55 LINE SMOOTH"
);
}
);
width = 1000;
}
);
unicode = 3087;
},
{
glyphname = "ra-hira";
lastChange = "2020-03-18 19:21:13 +0000";
layers = (
{
anchors = (
{
name = LSB;
position = "{56, 380}";
},
{
name = RSB;
position = "{930.058, 380}";
}
);
layerId = "BE1754C0-A605-45AC-AA12-D3A1FC0C380B";
paths = (
{
closed = 1;
nodes = (
"704 -41 OFFCURVE",
"908 66 OFFCURVE",
"904 258 CURVE SMOOTH",
"898 450 OFFCURVE",
"698 495 OFFCURVE",
"598 492 CURVE",
"385 492 OFFCURVE",
"254 385 OFFCURVE",
"269 390 CURVE",
"287 462 OFFCURVE",
"306 528 OFFCURVE",
"362 636 CURVE",
"218 698 LINE",
"143 535 OFFCURVE",
"105 388 OFFCURVE",
"82 201 CURVE",
"220 185 LINE",
"221 185 LINE",
"350 306 OFFCURVE",
"497 354 OFFCURVE",
"588 357 CURVE SMOOTH",
"660 359 OFFCURVE",
"730 341 OFFCURVE",
"741 257 CURVE",
"745 158 OFFCURVE",
"601 88 OFFCURVE",
"434 58 CURVE",
"538 -76 LINE"
);
},
{
closed = 1;
nodes = (
"747 788 LINE",
"640 783 OFFCURVE",
"443 819 OFFCURVE",
"376 856 CURVE",
"313 718 LINE",
"385 682 OFFCURVE",
"596 629 OFFCURVE",
"731 638 CURVE"
);
}
);
width = 1000;
}
);
unicode = 3089;
},
{
glyphname = "ri-hira";
lastChange = "2020-03-18 19:21:13 +0000";
layers = (
{
anchors = (
{
name = LSB;
position = "{123.575, 380}";
},
{
name = RSB;
position = "{880.797, 380}";
}
);
layerId = "BE1754C0-A605-45AC-AA12-D3A1FC0C380B";
paths = (
{
closed = 1;
nodes = (
"816 98 OFFCURVE",
"923 393 OFFCURVE",
"811 816 CURVE",
"655 772 LINE",
"725 508 OFFCURVE",
"708 200 OFFCURVE",
"402 29 CURVE",
"538 -84 LINE"
);
},
{
closed = 1;
nodes = (
"351 227 OFFCURVE",
"400 246 OFFCURVE",
"461 309 CURVE",
"399 471 LINE",
"370 433 OFFCURVE",
"339 398 OFFCURVE",
"320 407 CURVE",
"295 420 OFFCURVE",
"297 626 OFFCURVE",
"343 773 CURVE",
"193 803 LINE",
"168 706 OFFCURVE",
"153 585 OFFCURVE",
"150 522 CURVE SMOOTH",
"146 412 OFFCURVE",
"168 237 OFFCURVE",
"313 229 CURVE SMOOTH"
);
}
);
width = 1000;
}
);
unicode = 308A;
},
{
glyphname = "ru-hira";
lastChange = "2020-03-18 19:21:13 +0000";
layers = (
{
anchors = (
{
name = LSB;
position = "{82, 380}";
},
{
name = RSB;
position = "{900.509, 380}";
}
);
layerId = "BE1754C0-A605-45AC-AA12-D3A1FC0C380B";
paths = (
{
closed = 1;
nodes = (
"752 -78 OFFCURVE",
"864 88 OFFCURVE",
"874 232 CURVE SMOOTH",
"881 343 OFFCURVE",
"817 488 OFFCURVE",
"605 503 CURVE",
"587 496 OFFCURVE",
"732 544 OFFCURVE",
"733 685 CURVE SMOOTH",
"734 769 OFFCURVE",
"654 820 OFFCURVE",
"527 819 CURVE SMOOTH",
"417 819 OFFCURVE",
"206 767 OFFCURVE",
"108 724 CURVE",
"157 580 LINE",
"280 626 OFFCURVE",
"432 672 OFFCURVE",
"514 680 CURVE SMOOTH",
"572 684 OFFCURVE",
"581 661 OFFCURVE",
"534 621 CURVE SMOOTH",
"476 574 OFFCURVE",
"378 535 OFFCURVE",
"173 468 CURVE",
"224 315 LINE",
"354 379 OFFCURVE",
"461 394 OFFCURVE",
"549 383 CURVE SMOOTH",
"623 374 OFFCURVE",
"693 347 OFFCURVE",
"710 274 CURVE SMOOTH",
"737 157 OFFCURVE",
"628 72 OFFCURVE",
"451 75 CURVE SMOOTH",
"366 77 OFFCURVE",
"313 95 OFFCURVE",
"314 124 CURVE SMOOTH",
"315 141 OFFCURVE",
"333 163 OFFCURVE",
"366 163 CURVE SMOOTH",
"418 163 OFFCURVE",
"433 123 OFFCURVE",
"417 34 CURVE",
"546 26 LINE",
"573 107 OFFCURVE",
"544 301 OFFCURVE",
"361 294 CURVE SMOOTH",
"247 290 OFFCURVE",
"190 214 OFFCURVE",
"178 139 CURVE SMOOTH",
"170 86 OFFCURVE",
"184 -48 OFFCURVE",
"457 -61 CURVE SMOOTH"
);
}
);
width = 1000;
}
);
unicode = 308B;
},
{
glyphname = "re-hira";
lastChange = "2020-03-18 19:21:13 +0000";
layers = (
{
anchors = (
{
name = LSB;
position = "{1, 380}";
},
{
name = RSB;
position = "{986, 380}";
}
);
layerId = "BE1754C0-A605-45AC-AA12-D3A1FC0C380B";
paths = (
{
closed = 1;
nodes = (
"816 -19 OFFCURVE",
"918 6 OFFCURVE",
"946 22 CURVE",
"960 191 LINE",
"911 165 OFFCURVE",
"870 157 OFFCURVE",
"848 158 CURVE SMOOTH",
"818 159 OFFCURVE",
"810 168 OFFCURVE",
"806 185 CURVE SMOOTH",
"779 299 OFFCURVE",
"840 534 OFFCURVE",
"826 620 CURVE SMOOTH",
"816 683 OFFCURVE",
"766 753 OFFCURVE",
"662 736 CURVE SMOOTH",
"522 713 OFFCURVE",
"134 284 OFFCURVE",
"27 141 CURVE",
"134 29 LINE",
"296 245 OFFCURVE",
"509 454 OFFCURVE",
"630 551 CURVE SMOOTH",
"655 571 OFFCURVE",
"678 563 OFFCURVE",
"673 524 CURVE SMOOTH",
"620 114 OFFCURVE",
"673 59 OFFCURVE",
"750 17 CURVE SMOOTH"
);
},
{
closed = 1;
nodes = (
"417 -27 LINE",
"368 248 OFFCURVE",
"387 662 OFFCURVE",
"420 802 CURVE",
"271 821 LINE",
"221 519 OFFCURVE",
"238 120 OFFCURVE",
"268 -47 CURVE"
);
},
{
closed = 1;
nodes = (
"294 635 LINE",
"236 657 OFFCURVE",
"156 678 OFFCURVE",
"83 690 CURVE",
"59 540 LINE",
"113 534 OFFCURVE",
"231 506 OFFCURVE",
"259 490 CURVE"
);
}
);
width = 1000;
}
);
unicode = 308C;
},
{
glyphname = "ro-hira";
lastChange = "2020-03-18 19:21:13 +0000";
layers = (
{
anchors = (
{
name = LSB;
position = "{99, 380}";
},
{
name = RSB;
position = "{916.51, 380}";
}
);
layerId = "BE1754C0-A605-45AC-AA12-D3A1FC0C380B";
paths = (
{
closed = 1;
nodes = (
"768 -156 OFFCURVE",
"883 131 OFFCURVE",
"890 227 CURVE",
"901 413 OFFCURVE",
"732 498 OFFCURVE",
"591 493 CURVE",
"713 555 OFFCURVE",
"769 630 OFFCURVE",
"739 721 CURVE",
"716 795 OFFCURVE",
"606 824 OFFCURVE",
"506 819 CURVE",
"397 815 OFFCURVE",
"277 790 OFFCURVE",
"125 725 CURVE",
"170 567 LINE",
"298 626 OFFCURVE",
"465 672 OFFCURVE",
"533 670 CURVE",
"564 669 OFFCURVE",
"571 652 OFFCURVE",
"548 632 CURVE",
"485 567 OFFCURVE",
"391 503 OFFCURVE",
"197 438 CURVE",
"248 281 LINE",
"360 333 OFFCURVE",
"430 354 OFFCURVE",
"524 364 CURVE",
"624 370 OFFCURVE",
"719 332 OFFCURVE",
"722 245 CURVE",
"726 175 OFFCURVE",
"580 20 OFFCURVE",
"204 150 CURVE",
"222 -15 LINE"
);
}
);
width = 1000;
}
);
unicode = 308D;
},
{
glyphname = "wa-hira";
lastChange = "2020-03-18 19:21:13 +0000";
layers = (
{
anchors = (
{
name = LSB;
position = "{0, 380}";
},
{
name = RSB;
position = "{968.085, 380}";
}
);
layerId = "BE1754C0-A605-45AC-AA12-D3A1FC0C380B";
paths = (
{
closed = 1;
nodes = (
"818 46 OFFCURVE",
"930 216 OFFCURVE",
"941 359 CURVE",
"952 502 OFFCURVE",
"880 657 OFFCURVE",
"696 699 CURVE",
"365 774 OFFCURVE",
"85 278 OFFCURVE",
"26 148 CURVE",
"147 69 LINE",
"276 281 OFFCURVE",
"454 589 OFFCURVE",
"668 554 CURVE",
"840 524 OFFCURVE",
"850 248 OFFCURVE",
"547 55 CURVE",
"685 -44 LINE"
);
},
{
closed = 1;
nodes = (
"397 -15 LINE",
"337 225 OFFCURVE",
"354 595 OFFCURVE",
"401 802 CURVE",
"256 829 LINE",
"202 582 OFFCURVE",
"195 153 OFFCURVE",
"249 -42 CURVE"
);
},
{
closed = 1;
nodes = (
"268 633 LINE",
"201 668 OFFCURVE",
"107 684 OFFCURVE",
"54 687 CURVE",
"41 533 LINE",
"97 526 OFFCURVE",
"171 516 OFFCURVE",
"237 487 CURVE"
);
}
);
width = 1000;
}
);
unicode = 308F;
},
{
glyphname = "wasmall-hira";
lastChange = "2020-03-18 19:21:13 +0000";
layers = (
{
anchors = (
{
name = LSB;
position = "{108, 380}";
},
{
name = RSB;
position = "{900, 380}";
}
);
layerId = "BE1754C0-A605-45AC-AA12-D3A1FC0C380B";
paths = (
{
closed = 1;
nodes = (
"451 -51 LINE",
"448 -41 LINE",
"434 19 OFFCURVE",
"416 122 OFFCURVE",
"418 279 CURVE",
"486 369 OFFCURVE",
"552 413 OFFCURVE",
"620 413 CURVE SMOOTH",
"634 413 LINE",
"679 408 OFFCURVE",
"712 380 OFFCURVE",
"725 335 CURVE SMOOTH",
"736 293 OFFCURVE",
"729 242 OFFCURVE",
"706 191 CURVE SMOOTH",
"678 132 OFFCURVE",
"628 74 OFFCURVE",
"562 25 CURVE SMOOTH",
"550 16 LINE",
"685 -66 LINE",
"690 -61 LINE",
"741 -22 OFFCURVE",
"787 34 OFFCURVE",
"821 97 CURVE SMOOTH",
"855 160 OFFCURVE",
"874 227 OFFCURVE",
"874 283 CURVE SMOOTH",
"874 346 OFFCURVE",
"855 406 OFFCURVE",
"820 452 CURVE SMOOTH",
"781 505 OFFCURVE",
"722 538 OFFCURVE",
"650 549 CURVE SMOOTH",
"637 551 OFFCURVE",
"624 552 OFFCURVE",
"612 552 CURVE SMOOTH",
"551 552 OFFCURVE",
"491 531 OFFCURVE",
"431 488 CURVE",
"437 532 OFFCURVE",
"444 574 OFFCURVE",
"452 608 CURVE SMOOTH",
"454 618 LINE",
"318 644 LINE",
"316 634 LINE SMOOTH",
"307 593 OFFCURVE",
"299 544 OFFCURVE",
"294 490 CURVE",
"247 506 OFFCURVE",
"196 513 OFFCURVE",
"165 515 CURVE",
"155 515 LINE",
"143 373 LINE",
"153 372 LINE SMOOTH",
"195 367 OFFCURVE",
"240 360 OFFCURVE",
"283 345 CURVE",
"283 341 OFFCURVE",
"282 337 OFFCURVE",
"282 333 CURVE",
"208 229 OFFCURVE",
"156 115 OFFCURVE",
"137 64 CURVE SMOOTH",
"134 55 LINE",
"253 -10 LINE",
"257 0 LINE",
"266 16 LINE",
"273 31 OFFCURVE",
"281 46 OFFCURVE",
"289 62 CURVE",
"294 10 OFFCURVE",
"301 -33 OFFCURVE",
"311 -67 CURVE",
"313 -76 LINE"
);
}
);
width = 1000;
}
);
unicode = 308E;
},
{
glyphname = "wi-hira";
lastChange = "2020-03-18 19:21:13 +0000";
layers = (
{
anchors = (
{
name = LSB;
position = "{38.941, 380}";
},
{
name = RSB;
position = "{964.8, 380}";
}
);
layerId = "BE1754C0-A605-45AC-AA12-D3A1FC0C380B";
paths = (
{
closed = 1;
nodes = (
"706 -77 OFFCURVE",
"919 -35 OFFCURVE",
"938 241 CURVE SMOOTH",
"951 421 OFFCURVE",
"804 574 OFFCURVE",
"606 587 CURVE SMOOTH",
"380 602 OFFCURVE",
"113 465 OFFCURVE",
"71 224 CURVE SMOOTH",
"43 50 OFFCURVE",
"119 9 OFFCURVE",
"157 -5 CURVE SMOOTH",
"218 -26 OFFCURVE",
"316 -22 OFFCURVE",
"511 325 CURVE SMOOTH",
"623 524 OFFCURVE",
"725 719 OFFCURVE",
"649 781 CURVE SMOOTH",
"567 848 OFFCURVE",
"350 802 OFFCURVE",
"159 722 CURVE",
"219 576 LINE",
"312 626 OFFCURVE",
"399 654 OFFCURVE",
"458 663 CURVE SMOOTH",
"506 670 OFFCURVE",
"517 658 OFFCURVE",
"504 623 CURVE SMOOTH",
"464 526 OFFCURVE",
"281 156 OFFCURVE",
"210 163 CURVE SMOOTH",
"178 166 OFFCURVE",
"237 459 OFFCURVE",
"602 453 CURVE SMOOTH",
"660 452 OFFCURVE",
"809 388 OFFCURVE",
"799 252 CURVE SMOOTH",
"788 117 OFFCURVE",
"705 62 OFFCURVE",
"615 71 CURVE SMOOTH",
"583 74 OFFCURVE",
"559 94 OFFCURVE",
"562 116 CURVE SMOOTH",
"568 155 OFFCURVE",
"595 168 OFFCURVE",
"618 167 CURVE SMOOTH",
"671 165 OFFCURVE",
"709 120 OFFCURVE",
"730 69 CURVE",
"848 155 LINE",
"820 201 OFFCURVE",
"755 292 OFFCURVE",
"647 299 CURVE SMOOTH",
"485 310 OFFCURVE",
"430 209 OFFCURVE",
"420 120 CURVE",
"412 36 OFFCURVE",
"490 -41 OFFCURVE",
"598 -59 CURVE SMOOTH"
);
}
);
width = 1000;
}
);
unicode = 3090;
},
{
glyphname = "we-hira";
lastChange = "2020-03-18 19:21:13 +0000";
layers = (
{
anchors = (
{
name = LSB;
position = "{-2, 380}";
},
{
name = RSB;
position = "{979, 380}";
}
);
layerId = "BE1754C0-A605-45AC-AA12-D3A1FC0C380B";
paths = (
{
closed = 1;
nodes = (
"233 -2 OFFCURVE",
"474 129 OFFCURVE",
"474 268 CURVE SMOOTH",
"474 297 OFFCURVE",
"457 391 OFFCURVE",
"337 372 CURVE SMOOTH",
"251 358 OFFCURVE",
"206 297 OFFCURVE",
"213 241 CURVE SMOOTH",
"219 191 OFFCURVE",
"287 124 OFFCURVE",
"431 146 CURVE SMOOTH",
"561 166 OFFCURVE",
"810 270 OFFCURVE",
"810 446 CURVE SMOOTH",
"810 498 OFFCURVE",
"766 619 OFFCURVE",
"592 617 CURVE SMOOTH",
"592 617 OFFCURVE",
"656 665 OFFCURVE",
"656 727 CURVE SMOOTH",
"656 788 OFFCURVE",
"606 822 OFFCURVE",
"484 822 CURVE SMOOTH",
"361 822 OFFCURVE",
"186 767 OFFCURVE",
"162 756 CURVE",
"219 627 LINE",
"285 655 OFFCURVE",
"353 673 OFFCURVE",
"414 677 CURVE SMOOTH",
"463 680 OFFCURVE",
"466 662 OFFCURVE",
"433 633 CURVE SMOOTH",
"381 587 OFFCURVE",
"307 538 OFFCURVE",
"224 495 CURVE",
"297 377 LINE",
"390 439 OFFCURVE",
"484 483 OFFCURVE",
"583 481 CURVE SMOOTH",
"628 480 OFFCURVE",
"645 460 OFFCURVE",
"648 438 CURVE",
"655 400 OFFCURVE",
"559 290 OFFCURVE",
"341 255 CURVE",
"332 254 OFFCURVE",
"328 257 OFFCURVE",
"328 260 CURVE SMOOTH",
"328 265 OFFCURVE",
"332 266 OFFCURVE",
"336 266 CURVE SMOOTH",
"340 266 OFFCURVE",
"343 266 OFFCURVE",
"343 256 CURVE SMOOTH",
"343 213 OFFCURVE",
"105 91 OFFCURVE",
"24 61 CURVE",
"105 -79 LINE"
);
},
{
closed = 1;
nodes = (
"206 -22 OFFCURVE",
"321 41 OFFCURVE",
"397 37 CURVE SMOOTH",
"433 35 OFFCURVE",
"467 18 OFFCURVE",
"482 -25 CURVE",
"621 -56 LINE",
"636 -2 OFFCURVE",
"645 79 OFFCURVE",
"694 79 CURVE SMOOTH",
"745 79 OFFCURVE",
"788 10 OFFCURVE",
"812 -61 CURVE",
"953 18 LINE",
"909 112 OFFCURVE",
"822 217 OFFCURVE",
"690 217 CURVE SMOOTH",
"634 217 OFFCURVE",
"567 154 OFFCURVE",
"542 104 CURVE",
"471 178 OFFCURVE",
"371 190 OFFCURVE",
"279 163 CURVE SMOOTH",
"231 149 OFFCURVE",
"156 112 OFFCURVE",
"28 59 CURVE",
"105 -79 LINE"
);
}
);
width = 1000;
}
);
unicode = 3091;
},
{
glyphname = "wo-hira";
lastChange = "2020-03-18 19:21:13 +0000";
layers = (
{
anchors = (
{
name = LSB;
position = "{39, 380}";
},
{
name = RSB;
position = "{922, 380}";
}
);
layerId = "BE1754C0-A605-45AC-AA12-D3A1FC0C380B";
paths = (
{
closed = 1;
nodes = (
"639 -63 OFFCURVE",
"747 -42 OFFCURVE",
"896 9 CURVE",
"883 179 LINE",
"746 113 OFFCURVE",
"638 89 OFFCURVE",
"497 89 CURVE SMOOTH",
"370 89 OFFCURVE",
"298 124 OFFCURVE",
"298 176 CURVE SMOOTH",
"298 337 OFFCURVE",
"721 415 OFFCURVE",
"830 435 CURVE",
"772 582 LINE",
"206 461 OFFCURVE",
"143 284 OFFCURVE",
"142 179 CURVE SMOOTH",
"141 62 OFFCURVE",
"210 -55 OFFCURVE",
"471 -60 CURVE SMOOTH"
);
},
{
closed = 1;
nodes = (
"694 295 LINE",
"652 304 OFFCURVE",
"445 338 OFFCURVE",
"399 478 CURVE SMOOTH",
"367 576 OFFCURVE",
"421 740 OFFCURVE",
"463 811 CURVE",
"306 840 LINE",
"230 668 OFFCURVE",
"228 536 OFFCURVE",
"246 454 CURVE SMOOTH",
"292 245 OFFCURVE",
"510 177 OFFCURVE",
"657 155 CURVE"
);
},
{
closed = 1;
nodes = (
"287 588 OFFCURVE",
"660 617 OFFCURVE",
"863 605 CURVE",
"883 740 LINE",
"695 754 OFFCURVE",
"274 733 OFFCURVE",
"65 662 CURVE",
"91 530 LINE"
);
}
);
width = 1000;
}
);
unicode = 3092;
},
{
glyphname = "n-hira";
lastChange = "2020-03-18 19:21:13 +0000";
layers = (
{
anchors = (
{
name = LSB;
position = "{16, 380}";
},
{
name = RSB;
position = "{958, 380}";
}
);
layerId = "BE1754C0-A605-45AC-AA12-D3A1FC0C380B";
paths = (
{
closed = 1;
nodes = (
"275 812 LINE",
"187 605 OFFCURVE",
"77 192 OFFCURVE",
"42 -4 CURVE",
"201 -47 LINE",
"254 180 OFFCURVE",
"305 293 OFFCURVE",
"408 295 CURVE",
"451 292 OFFCURVE",
"478 241 OFFCURVE",
"506 140 CURVE SMOOTH",
"535 36 OFFCURVE",
"595 -39 OFFCURVE",
"700 -37 CURVE SMOOTH",
"842 -34 OFFCURVE",
"895 122 OFFCURVE",
"932 230 CURVE",
"799 315 LINE",
"771 192 OFFCURVE",
"737 132 OFFCURVE",
"703 131 CURVE",
"667 135 OFFCURVE",
"652 194 OFFCURVE",
"630 258 CURVE SMOOTH",
"588 382 OFFCURVE",
"550 433 OFFCURVE",
"480 449 CURVE SMOOTH",
"426 461 OFFCURVE",
"369 456 OFFCURVE",
"295 385 CURVE",
"319 471 OFFCURVE",
"358 589 OFFCURVE",
"435 768 CURVE"
);
}
);
width = 1000;
}
);
unicode = 3093;
},
{
glyphname = "vu-hira";
lastChange = "2020-03-18 19:21:13 +0000";
layers = (
{
anchors = (
{
name = LSB;
position = "{24, 380}";
},
{
name = RSB;
position = "{991, 380}";
}
);
layerId = "BE1754C0-A605-45AC-AA12-D3A1FC0C380B";
paths = (
{
closed = 1;
nodes = (
"689 36 OFFCURVE",
"916 180 OFFCURVE",
"906 399 CURVE SMOOTH",
"890 740 OFFCURVE",
"306 635 OFFCURVE",
"50 462 CURVE",
"131 315 LINE",
"342 460 OFFCURVE",
"721 535 OFFCURVE",
"747 407 CURVE SMOOTH",
"771 290 OFFCURVE",
"595 137 OFFCURVE",
"359 57 CURVE",
"493 -60 LINE"
);
},
{
closed = 1;
nodes = (
"699 743 LINE",
"574 750 OFFCURVE",
"438 811 OFFCURVE",
"326 873 CURVE",
"251 724 LINE",
"333 669 OFFCURVE",
"541 593 OFFCURVE",
"667 579 CURVE"
);
},
{
closed = 1;
nodes = (
"845 728 LINE",
"820 757 OFFCURVE",
"796 804 OFFCURVE",
"785 835 CURVE",
"714 807 LINE",
"722 773 OFFCURVE",
"764 700 OFFCURVE",
"781 680 CURVE"
);
},
{
closed = 1;
nodes = (
"965 753 LINE",
"935 778 OFFCURVE",
"904 819 OFFCURVE",
"888 848 CURVE",
"825 806 LINE",
"839 774 OFFCURVE",
"888 714 OFFCURVE",
"908 697 CURVE"
);
}
);
width = 1000;
}
);
unicode = 3094;
},
{
glyphname = "a-kata";
lastChange = "2020-03-18 19:21:13 +0000";
layers = (
{
anchors = (
{
name = LSB;
position = "{10, 380}";
},
{
name = RSB;
position = "{957.43, 380}";
}
);
layerId = "BE1754C0-A605-45AC-AA12-D3A1FC0C380B";
paths = (
{
closed = 1;
nodes = (
"710 303 OFFCURVE",
"920 435 OFFCURVE",
"931 590 CURVE SMOOTH",
"936 662 OFFCURVE",
"897 732 OFFCURVE",
"835 764 CURVE SMOOTH",
"636 860 OFFCURVE",
"213 757 OFFCURVE",
"36 685 CURVE",
"107 528 LINE",
"328 624 OFFCURVE",
"580 669 OFFCURVE",
"715 638 CURVE SMOOTH",
"758 628 OFFCURVE",
"769 605 OFFCURVE",
"748 563 CURVE SMOOTH",
"718 503 OFFCURVE",
"652 450 OFFCURVE",
"549 405 CURVE",
"638 268 LINE"
);
},
{
closed = 1;
nodes = (
"542 88 OFFCURVE",
"594 371 OFFCURVE",
"524 546 CURVE",
"363 513 LINE",
"429 393 OFFCURVE",
"365 149 OFFCURVE",
"148 37 CURVE",
"279 -79 LINE"
);
}
);
width = 1000;
}
);
unicode = 30A2;
},
{
glyphname = "asmall-kata";
lastChange = "2020-03-18 19:21:13 +0000";
layers = (
{
anchors = (
{
name = LSB;
position = "{86, 380}";
},
{
name = RSB;
position = "{877.327, 380}";
}
);
layerId = "BE1754C0-A605-45AC-AA12-D3A1FC0C380B";
paths = (
{
closed = 1;
nodes = (
"325 -72 LINE SMOOTH",
"401 -24 OFFCURVE",
"459 39 OFFCURVE",
"498 113 CURVE SMOOTH",
"527 168 OFFCURVE",
"544 228 OFFCURVE",
"547 287 CURVE",
"603 201 LINE",
"611 205 LINE SMOOTH",
"644 221 OFFCURVE",
"700 256 OFFCURVE",
"749 300 CURVE SMOOTH",
"777 325 OFFCURVE",
"800 352 OFFCURVE",
"817 378 CURVE SMOOTH",
"838 409 OFFCURVE",
"849 441 OFFCURVE",
"851 471 CURVE SMOOTH",
"855 533 OFFCURVE",
"822 592 OFFCURVE",
"769 620 CURVE",
"724 641 OFFCURVE",
"664 652 OFFCURVE",
"590 652 CURVE SMOOTH",
"418 652 OFFCURVE",
"215 595 OFFCURVE",
"121 557 CURVE SMOOTH",
"112 553 LINE",
"177 409 LINE",
"186 413 LINE SMOOTH",
"321 472 OFFCURVE",
"475 508 OFFCURVE",
"588 508 CURVE SMOOTH",
"618 508 OFFCURVE",
"644 505 OFFCURVE",
"666 501 CURVE",
"680 497 OFFCURVE",
"688 492 OFFCURVE",
"691 486 CURVE",
"695 479 OFFCURVE",
"693 469 OFFCURVE",
"686 455 CURVE SMOOTH",
"664 412 OFFCURVE",
"618 373 OFFCURVE",
"547 340 CURVE",
"545 376 OFFCURVE",
"537 410 OFFCURVE",
"525 440 CURVE SMOOTH",
"522 448 LINE",
"371 417 LINE",
"378 405 LINE SMOOTH",
"400 365 OFFCURVE",
"403 304 OFFCURVE",
"384 243 CURVE SMOOTH",
"372 203 OFFCURVE",
"351 164 OFFCURVE",
"323 130 CURVE SMOOTH",
"293 92 OFFCURVE",
"254 61 OFFCURVE",
"210 38 CURVE",
"197 32 LINE",
"319 -76 LINE"
);
}
);
width = 1000;
}
);
unicode = 30A1;
},
{
glyphname = "i-kata";
lastChange = "2020-03-18 19:21:13 +0000";
layers = (
{
anchors = (
{
name = LSB;
position = "{31, 380}";
},
{
name = RSB;
position = "{893, 380}";
}
);
layerId = "BE1754C0-A605-45AC-AA12-D3A1FC0C380B";
paths = (
{
closed = 1;
nodes = (
"645 118 OFFCURVE",
"643 425 OFFCURVE",
"607 572 CURVE",
"436 512 LINE",
"470 372 OFFCURVE",
"466 90 OFFCURVE",
"454 -44 CURVE",
"626 -53 LINE"
);
},
{
closed = 1;
nodes = (
"300 347 OFFCURVE",
"594 602 OFFCURVE",
"867 704 CURVE",
"759 829 LINE",
"523 747 OFFCURVE",
"164 452 OFFCURVE",
"57 302 CURVE",
"176 193 LINE"
);
}
);
width = 1000;
}
);
unicode = 30A4;
},
{
glyphname = "ismall-kata";
lastChange = "2020-03-18 19:21:13 +0000";
layers = (
{
anchors = (
{
name = LSB;
position = "{123, 380}";
},
{
name = RSB;
position = "{853, 380}";
}
);
layerId = "BE1754C0-A605-45AC-AA12-D3A1FC0C380B";
paths = (
{
closed = 1;
nodes = (
"627 -47 LINE SMOOTH",
"635 21 OFFCURVE",
"638 117 OFFCURVE",
"636 209 CURVE SMOOTH",
"634 308 OFFCURVE",
"626 392 OFFCURVE",
"614 447 CURVE",
"684 492 OFFCURVE",
"751 527 OFFCURVE",
"814 550 CURVE SMOOTH",
"827 555 LINE",
"727 671 LINE",
"720 669 LINE",
"527 602 OFFCURVE",
"240 363 OFFCURVE",
"154 244 CURVE",
"149 236 LINE",
"258 136 LINE",
"265 144 LINE",
"312 203 OFFCURVE",
"387 275 OFFCURVE",
"467 340 CURVE",
"481 220 OFFCURVE",
"478 50 OFFCURVE",
"470 -38 CURVE SMOOTH",
"469 -49 LINE",
"626 -57 LINE"
);
}
);
width = 1000;
}
);
unicode = 30A3;
},
{
glyphname = "u-kata";
lastChange = "2020-03-18 19:21:13 +0000";
layers = (
{
anchors = (
{
name = LSB;
position = "{58.183, 380}";
},
{
name = RSB;
position = "{925.082, 380}";
}
);
layerId = "BE1754C0-A605-45AC-AA12-D3A1FC0C380B";
paths = (
{
closed = 1;
nodes = (
"679 14 OFFCURVE",
"904 327 OFFCURVE",
"899 520 CURVE SMOOTH",
"897 611 OFFCURVE",
"862 647 OFFCURVE",
"762 669 CURVE SMOOTH",
"674 688 OFFCURVE",
"392 673 OFFCURVE",
"151 573 CURVE",
"176 406 LINE",
"340 475 OFFCURVE",
"558 526 OFFCURVE",
"677 513 CURVE SMOOTH",
"721 507 OFFCURVE",
"732 492 OFFCURVE",
"720 449 CURVE SMOOTH",
"685 331 OFFCURVE",
"582 162 OFFCURVE",
"380 23 CURVE",
"526 -83 LINE"
);
},
{
closed = 1;
nodes = (
"263 332 LINE",
"235 452 OFFCURVE",
"232 586 OFFCURVE",
"249 679 CURVE",
"91 675 LINE",
"77 573 OFFCURVE",
"85 402 OFFCURVE",
"111 289 CURVE"
);
},
{
closed = 1;
nodes = (
"565 649 LINE",
"557 687 OFFCURVE",
"558 781 OFFCURVE",
"563 837 CURVE",
"393 827 LINE",
"391 775 OFFCURVE",
"394 673 OFFCURVE",
"403 614 CURVE"
);
}
);
width = 1000;
}
);
unicode = 30A6;
},
{
glyphname = "usmall-kata";
lastChange = "2020-03-18 19:21:13 +0000";
layers = (
{
anchors = (
{
name = LSB;
position = "{124.806, 380}";
},
{
name = RSB;
position = "{849.068, 380}";
}
);
layerId = "BE1754C0-A605-45AC-AA12-D3A1FC0C380B";
paths = (
{
closed = 1;
nodes = (
"520 -69 LINE SMOOTH",
"582 -30 OFFCURVE",
"658 53 OFFCURVE",
"719 146 CURVE SMOOTH",
"751 194 OFFCURVE",
"777 243 OFFCURVE",
"794 288 CURVE SMOOTH",
"814 339 OFFCURVE",
"824 384 OFFCURVE",
"823 422 CURVE SMOOTH",
"822 462 OFFCURVE",
"813 489 OFFCURVE",
"795 509 CURVE SMOOTH",
"777 528 OFFCURVE",
"749 541 OFFCURVE",
"705 550 CURVE SMOOTH",
"687 554 OFFCURVE",
"661 556 OFFCURVE",
"629 556 CURVE SMOOTH",
"605 556 OFFCURVE",
"579 555 OFFCURVE",
"552 553 CURVE",
"550 589 OFFCURVE",
"551 641 OFFCURVE",
"554 674 CURVE SMOOTH",
"555 686 LINE",
"398 677 LINE",
"398 667 LINE SMOOTH",
"397 636 OFFCURVE",
"398 579 OFFCURVE",
"402 531 CURVE",
"366 524 OFFCURVE",
"330 515 OFFCURVE",
"297 504 CURVE",
"298 519 OFFCURVE",
"300 534 OFFCURVE",
"302 547 CURVE",
"305 559 LINE",
"157 555 LINE",
"156 547 LINE SMOOTH",
"145 462 OFFCURVE",
"152 325 OFFCURVE",
"172 234 CURVE",
"175 224 LINE",
"316 264 LINE",
"314 273 LINE",
"308 296 OFFCURVE",
"304 320 OFFCURVE",
"301 345 CURVE",
"410 384 OFFCURVE",
"525 408 OFFCURVE",
"602 408 CURVE SMOOTH",
"614 408 OFFCURVE",
"624 407 OFFCURVE",
"634 406 CURVE SMOOTH",
"649 404 OFFCURVE",
"658 401 OFFCURVE",
"661 396 CURVE SMOOTH",
"664 391 OFFCURVE",
"664 382 OFFCURVE",
"660 367 CURVE",
"649 331 OFFCURVE",
"626 274 OFFCURVE",
"575 207 CURVE SMOOTH",
"527 141 OFFCURVE",
"465 83 OFFCURVE",
"392 32 CURVE SMOOTH",
"380 24 LINE",
"514 -73 LINE"
);
}
);
width = 1000;
}
);
unicode = 30A5;
},
{
glyphname = "e-kata";
lastChange = "2020-03-18 19:21:13 +0000";
layers = (
{
anchors = (
{
name = LSB;
position = "{45, 380}";
},
{
name = RSB;
position = "{969, 380}";
}
);
layerId = "BE1754C0-A605-45AC-AA12-D3A1FC0C380B";
paths = (
{
closed = 1;
nodes = (
"326 581 OFFCURVE",
"660 603 OFFCURVE",
"833 576 CURVE",
"842 735 LINE",
"699 759 OFFCURVE",
"323 749 OFFCURVE",
"138 703 CURVE",
"161 543 LINE"
);
},
{
closed = 1;
nodes = (
"581 101 LINE",
"554 284 OFFCURVE",
"566 544 OFFCURVE",
"584 634 CURVE",
"422 624 LINE",
"406 535 OFFCURVE",
"393 269 OFFCURVE",
"418 95 CURVE"
);
},
{
closed = 1;
nodes = (
"353 -7 OFFCURVE",
"688 4 OFFCURVE",
"943 71 CURVE",
"926 236 LINE",
"720 167 OFFCURVE",
"317 151 OFFCURVE",
"84 205 CURVE",
"71 45 LINE"
);
}
);
width = 1000;
}
);
unicode = 30A8;
},
{
glyphname = "esmall-kata";
lastChange = "2020-03-18 19:21:13 +0000";
layers = (
{
anchors = (
{
name = LSB;
position = "{105, 380}";
},
{
name = RSB;
position = "{876, 380}";
}
);
layerId = "BE1754C0-A605-45AC-AA12-D3A1FC0C380B";
paths = (
{
closed = 1;
nodes = (
"586 -14 OFFCURVE",
"724 2 OFFCURVE",
"842 33 CURVE",
"850 36 LINE",
"834 188 LINE",
"823 185 LINE",
"756 162 OFFCURVE",
"660 146 OFFCURVE",
"552 139 CURVE",
"543 249 OFFCURVE",
"547 372 OFFCURVE",
"556 446 CURVE",
"569 446 OFFCURVE",
"582 447 OFFCURVE",
"595 447 CURVE SMOOTH",
"657 447 OFFCURVE",
"710 443 OFFCURVE",
"750 437 CURVE SMOOTH",
"761 435 LINE",
"769 583 LINE",
"760 584 LINE",
"721 591 OFFCURVE",
"659 594 OFFCURVE",
"585 594 CURVE SMOOTH",
"471 594 OFFCURVE",
"300 585 OFFCURVE",
"193 558 CURVE SMOOTH",
"184 556 LINE",
"205 408 LINE",
"216 411 LINE",
"264 422 OFFCURVE",
"331 432 OFFCURVE",
"406 438 CURVE",
"399 362 OFFCURVE",
"395 240 OFFCURVE",
"402 135 CURVE",
"306 136 OFFCURVE",
"221 145 OFFCURVE",
"154 160 CURVE",
"143 163 LINE",
"131 14 LINE",
"140 12 LINE",
"233 -5 OFFCURVE",
"338 -14 OFFCURVE",
"443 -14 CURVE SMOOTH"
);
}
);
width = 1000;
}
);
unicode = 30A7;
},
{
glyphname = "o-kata";
lastChange = "2020-03-18 19:21:13 +0000";
layers = (
{
anchors = (
{
name = LSB;
position = "{50, 380}";
},
{
name = RSB;
position = "{945, 380}";
}
);
layerId = "BE1754C0-A605-45AC-AA12-D3A1FC0C380B";
paths = (
{
closed = 1;
nodes = (
"328 106 OFFCURVE",
"561 339 OFFCURVE",
"655 492 CURVE",
"531 585 LINE",
"468 477 OFFCURVE",
"222 230 OFFCURVE",
"80 127 CURVE",
"185 -7 LINE"
);
},
{
closed = 1;
nodes = (
"752 -33 LINE",
"758 173 OFFCURVE",
"758 606 OFFCURVE",
"729 818 CURVE",
"571 809 LINE",
"598 521 OFFCURVE",
"595 181 OFFCURVE",
"583 -34 CURVE"
);
},
{
closed = 1;
nodes = (
"306 512 OFFCURVE",
"701 532 OFFCURVE",
"896 490 CURVE",
"919 648 LINE",
"700 676 OFFCURVE",
"304 671 OFFCURVE",
"76 605 CURVE",
"116 452 LINE"
);
}
);
width = 1000;
}
);
unicode = 30AA;
},
{
glyphname = "osmall-kata";
lastChange = "2020-03-18 19:21:13 +0000";
layers = (
{
anchors = (
{
name = LSB;
position = "{124, 380}";
},
{
name = RSB;
position = "{874, 380}";
}
);
layerId = "BE1754C0-A605-45AC-AA12-D3A1FC0C380B";
paths = (
{
closed = 1;
nodes = (
"713 -30 LINE",
"713 -21 LINE SMOOTH",
"716 76 OFFCURVE",
"718 243 OFFCURVE",
"713 402 CURVE",
"753 399 OFFCURVE",
"788 394 OFFCURVE",
"816 388 CURVE SMOOTH",
"827 386 LINE",
"848 533 LINE",
"838 534 LINE SMOOTH",
"800 539 OFFCURVE",
"754 543 OFFCURVE",
"706 545 CURVE",
"703 591 OFFCURVE",
"699 630 OFFCURVE",
"695 662 CURVE SMOOTH",
"694 671 LINE",
"548 663 LINE",
"549 652 LINE SMOOTH",
"552 619 OFFCURVE",
"554 584 OFFCURVE",
"557 547 CURVE",
"459 545 OFFCURVE",
"288 537 OFFCURVE",
"160 500 CURVE SMOOTH",
"150 497 LINE",
"187 355 LINE",
"197 358 LINE SMOOTH",
"260 378 OFFCURVE",
"354 393 OFFCURVE",
"459 401 CURVE",
"376 303 OFFCURVE",
"244 177 OFFCURVE",
"160 116 CURVE",
"151 110 LINE",
"248 -14 LINE",
"256 -7 LINE",
"339 58 OFFCURVE",
"472 185 OFFCURVE",
"565 299 CURVE",
"566 189 OFFCURVE",
"563 76 OFFCURVE",
"558 -21 CURVE",
"558 -31 LINE"
);
}
);
width = 1000;
}
);
unicode = 30A9;
},
{
glyphname = "ka-kata";
lastChange = "2020-03-18 19:21:13 +0000";
layers = (
{
anchors = (
{
name = LSB;
position = "{0, 380}";
},
{
name = RSB;
position = "{927.139, 380}";
}
);
layerId = "BE1754C0-A605-45AC-AA12-D3A1FC0C380B";
paths = (
{
closed = 1;
nodes = (
"855 96 OFFCURVE",
"972 463 OFFCURVE",
"845 596 CURVE SMOOTH",
"718 729 OFFCURVE",
"321 678 OFFCURVE",
"26 544 CURVE",
"85 397 LINE",
"280 473 OFFCURVE",
"518 548 OFFCURVE",
"674 506 CURVE SMOOTH",
"700 499 OFFCURVE",
"733 475 OFFCURVE",
"734 422 CURVE SMOOTH",
"735 365 OFFCURVE",
"715 174 OFFCURVE",
"622 20 CURVE",
"774 -53 LINE"
);
},
{
closed = 1;
nodes = (
"351 184 OFFCURVE",
"497 647 OFFCURVE",
"583 810 CURVE",
"412 848 LINE",
"314 623 OFFCURVE",
"198 251 OFFCURVE",
"150 16 CURVE",
"309 -21 LINE"
);
}
);
width = 1000;
}
);
unicode = 30AB;
},
{
glyphname = "kasmall-kata";
lastChange = "2020-03-18 19:21:13 +0000";
layers = (
{
anchors = (
{
name = LSB;
position = "{90, 380}";
},
{
name = RSB;
position = "{866.234, 380}";
}
);
layerId = "BE1754C0-A605-45AC-AA12-D3A1FC0C380B";
paths = (
{
closed = 1;
nodes = (
"736 -69 LINE",
"768 -11 OFFCURVE",
"809 95 OFFCURVE",
"829 199 CURVE",
"845 285 OFFCURVE",
"852 401 OFFCURVE",
"793 463 CURVE",
"752 506 OFFCURVE",
"677 529 OFFCURVE",
"574 529 CURVE",
"507 529 OFFCURVE",
"430 519 OFFCURVE",
"351 500 CURVE",
"272 482 OFFCURVE",
"194 456 OFFCURVE",
"124 424 CURVE",
"116 420 LINE",
"170 277 LINE",
"179 281 LINE",
"269 315 OFFCURVE",
"439 374 OFFCURVE",
"575 374 CURVE",
"606 374 OFFCURVE",
"634 371 OFFCURVE",
"658 365 CURVE",
"674 360 OFFCURVE",
"684 355 OFFCURVE",
"685 316 CURVE",
"685 297 OFFCURVE",
"682 248 OFFCURVE",
"669 187 CURVE",
"658 138 OFFCURVE",
"636 65 OFFCURVE",
"597 0 CURVE",
"591 -10 LINE",
"732 -78 LINE"
);
},
{
closed = 1;
nodes = (
"370 -41 LINE",
"405 130 OFFCURVE",
"520 494 OFFCURVE",
"585 618 CURVE",
"590 628 LINE",
"443 684 LINE",
"439 675 LINE",
"365 504 OFFCURVE",
"258 189 OFFCURVE",
"218 -7 CURVE",
"216 -17 LINE",
"368 -51 LINE"
);
}
);
width = 1000;
}
);
unicode = 30F5;
},
{
glyphname = "ga-kata";
lastChange = "2020-03-18 19:21:13 +0000";
layers = (
{
anchors = (
{
name = LSB;
position = "{0, 380}";
},
{
name = RSB;
position = "{1015, 380}";
}
);
layerId = "BE1754C0-A605-45AC-AA12-D3A1FC0C380B";
paths = (
{
closed = 1;
nodes = (
"870 741 LINE",
"843 768 OFFCURVE",
"816 814 OFFCURVE",
"803 844 CURVE",
"734 812 LINE",
"745 779 OFFCURVE",
"791 708 OFFCURVE",
"809 690 CURVE"
);
},
{
closed = 1;
nodes = (
"989 774 LINE",
"957 796 OFFCURVE",
"923 836 OFFCURVE",
"905 864 CURVE",
"846 818 LINE",
"861 787 OFFCURVE",
"914 729 OFFCURVE",
"935 715 CURVE"
);
},
{
closed = 1;
nodes = (
"855 96 OFFCURVE",
"972 463 OFFCURVE",
"845 596 CURVE SMOOTH",
"718 729 OFFCURVE",
"321 678 OFFCURVE",
"26 544 CURVE",
"85 397 LINE",
"280 473 OFFCURVE",
"518 548 OFFCURVE",
"674 506 CURVE SMOOTH",
"700 499 OFFCURVE",
"733 475 OFFCURVE",
"734 422 CURVE SMOOTH",
"735 365 OFFCURVE",
"715 174 OFFCURVE",
"622 20 CURVE",
"774 -53 LINE"
);
},
{
closed = 1;
nodes = (
"351 184 OFFCURVE",
"497 647 OFFCURVE",
"583 810 CURVE",
"412 848 LINE",
"314 623 OFFCURVE",
"198 251 OFFCURVE",
"150 16 CURVE",
"309 -21 LINE"
);
}
);
width = 1000;
}
);
unicode = 30AC;
},
{
glyphname = "ki-kata";
lastChange = "2020-03-18 19:21:13 +0000";
layers = (
{
anchors = (
{
name = LSB;
position = "{34, 380}";
},
{
name = RSB;
position = "{927, 380}";
}
);
layerId = "BE1754C0-A605-45AC-AA12-D3A1FC0C380B";
paths = (
{
closed = 1;
nodes = (
"745 1 LINE",
"643 154 OFFCURVE",
"505 610 OFFCURVE",
"507 827 CURVE",
"344 811 LINE",
"358 539 OFFCURVE",
"482 104 OFFCURVE",
"590 -66 CURVE"
);
},
{
closed = 1;
nodes = (
"286 154 OFFCURVE",
"693 201 OFFCURVE",
"901 248 CURVE",
"882 397 LINE",
"717 360 OFFCURVE",
"266 306 OFFCURVE",
"112 305 CURVE",
"128 149 LINE"
);
},
{
closed = 1;
nodes = (
"269 501 OFFCURVE",
"716 548 OFFCURVE",
"891 546 CURVE",
"888 697 LINE",
"698 701 OFFCURVE",
"251 654 OFFCURVE",
"60 609 CURVE",
"90 459 LINE"
);
}
);
width = 1000;
}
);
unicode = 30AD;
},
{
glyphname = "gi-kata";
lastChange = "2020-03-18 19:21:13 +0000";
layers = (
{
anchors = (
{
name = LSB;
position = "{34, 380}";
},
{
name = RSB;
position = "{987, 380}";
}
);
layerId = "BE1754C0-A605-45AC-AA12-D3A1FC0C380B";
paths = (
{
closed = 1;
nodes = (
"745 1 LINE",
"643 154 OFFCURVE",
"505 610 OFFCURVE",
"507 827 CURVE",
"344 811 LINE",
"358 539 OFFCURVE",
"482 104 OFFCURVE",
"590 -66 CURVE"
);
},
{
closed = 1;
nodes = (
"286 154 OFFCURVE",
"693 201 OFFCURVE",
"901 248 CURVE",
"882 397 LINE",
"717 360 OFFCURVE",
"266 306 OFFCURVE",
"112 305 CURVE",
"128 149 LINE"
);
},
{
closed = 1;
nodes = (
"269 501 OFFCURVE",
"716 548 OFFCURVE",
"891 546 CURVE",
"888 697 LINE",
"698 701 OFFCURVE",
"251 654 OFFCURVE",
"60 609 CURVE",
"90 459 LINE"
);
},
{
closed = 1;
nodes = (
"852 762 LINE",
"830 788 OFFCURVE",
"808 830 OFFCURVE",
"798 858 CURVE",
"735 833 LINE",
"742 803 OFFCURVE",
"780 737 OFFCURVE",
"795 719 CURVE"
);
},
{
closed = 1;
nodes = (
"961 785 LINE",
"934 807 OFFCURVE",
"905 844 OFFCURVE",
"891 870 CURVE",
"835 832 LINE",
"847 804 OFFCURVE",
"891 749 OFFCURVE",
"909 735 CURVE"
);
}
);
width = 1000;
}
);
unicode = 30AE;
},
{
glyphname = "ku-kata";
lastChange = "2020-03-18 19:21:13 +0000";
layers = (
{
anchors = (
{
name = LSB;
position = "{52, 380}";
},
{
name = RSB;
position = "{895.8, 380}";
}
);
layerId = "BE1754C0-A605-45AC-AA12-D3A1FC0C380B";
paths = (
{
closed = 1;
nodes = (
"684 78 OFFCURVE",
"839 333 OFFCURVE",
"868 539 CURVE SMOOTH",
"883 646 OFFCURVE",
"803 744 OFFCURVE",
"675 756 CURVE SMOOTH",
"533 769 OFFCURVE",
"392 720 OFFCURVE",
"235 649 CURVE",
"259 495 LINE",
"387 581 OFFCURVE",
"594 613 OFFCURVE",
"659 596 CURVE SMOOTH",
"693 587 OFFCURVE",
"701 564 OFFCURVE",
"691 520 CURVE SMOOTH",
"663 398 OFFCURVE",
"541 163 OFFCURVE",
"370 0 CURVE",
"531 -83 LINE"
);
},
{
closed = 1;
nodes = (
"272 489 OFFCURVE",
"338 654 OFFCURVE",
"430 789 CURVE",
"269 837 LINE",
"174 697 OFFCURVE",
"113 532 OFFCURVE",
"78 319 CURVE",
"237 275 LINE"
);
}
);
width = 1000;
}
);
unicode = 30AF;
},
{
glyphname = "kusmall-kata";
lastChange = "2020-03-18 19:21:13 +0000";
layers = (
{
anchors = (
{
name = LSB;
position = "{125, 380}";
},
{
name = RSB;
position = "{831.594, 380}";
}
);
layerId = "BE1754C0-A605-45AC-AA12-D3A1FC0C380B";
paths = (
{
closed = 1;
nodes = (
"532 -92 LINE SMOOTH",
"595 -25 OFFCURVE",
"657 59 OFFCURVE",
"705 145 CURVE SMOOTH",
"759 241 OFFCURVE",
"793 333 OFFCURVE",
"804 411 CURVE SMOOTH",
"810 454 OFFCURVE",
"799 495 OFFCURVE",
"772 529 CURVE SMOOTH",
"742 567 OFFCURVE",
"695 591 OFFCURVE",
"641 596 CURVE SMOOTH",
"628 597 OFFCURVE",
"616 598 OFFCURVE",
"603 598 CURVE SMOOTH",
"549 598 OFFCURVE",
"492 588 OFFCURVE",
"426 567 CURVE",
"434 580 OFFCURVE",
"443 594 OFFCURVE",
"452 607 CURVE SMOOTH",
"460 618 LINE",
"311 663 LINE",
"307 657 LINE SMOOTH",
"230 543 OFFCURVE",
"181 410 OFFCURVE",
"152 238 CURVE",
"151 229 LINE",
"298 189 LINE",
"299 200 LINE",
"310 267 OFFCURVE",
"326 331 OFFCURVE",
"345 388 CURVE",
"424 430 OFFCURVE",
"528 452 OFFCURVE",
"591 452 CURVE SMOOTH",
"605 452 OFFCURVE",
"617 451 OFFCURVE",
"624 449 CURVE SMOOTH",
"643 444 OFFCURVE",
"651 435 OFFCURVE",
"643 400 CURVE SMOOTH",
"631 349 OFFCURVE",
"600 277 OFFCURVE",
"559 207 CURVE SMOOTH",
"524 148 OFFCURVE",
"467 63 OFFCURVE",
"389 -11 CURVE SMOOTH",
"379 -21 LINE",
"527 -97 LINE"
);
}
);
width = 1000;
}
);
unicode = 31F0;
},
{
glyphname = "gu-kata";
lastChange = "2020-03-18 19:21:13 +0000";
layers = (
{
anchors = (
{
name = LSB;
position = "{52, 380}";
},
{
name = RSB;
position = "{1005, 380}";
}
);
layerId = "BE1754C0-A605-45AC-AA12-D3A1FC0C380B";
paths = (
{
closed = 1;
nodes = (
"684 78 OFFCURVE",
"839 333 OFFCURVE",
"868 539 CURVE SMOOTH",
"875 588 OFFCURVE",
"862 636 OFFCURVE",
"833 673 CURVE",
"798 644 LINE",
"779 664 LINE SMOOTH",
"765 678 OFFCURVE",
"740 714 OFFCURVE",
"720 748 CURVE",
"706 752 OFFCURVE",
"691 755 OFFCURVE",
"675 756 CURVE SMOOTH",
"578 765 OFFCURVE",
"482 745 OFFCURVE",
"380 709 CURVE",
"396 737 OFFCURVE",
"412 763 OFFCURVE",
"430 789 CURVE",
"269 837 LINE",
"174 697 OFFCURVE",
"113 532 OFFCURVE",
"78 319 CURVE",
"237 275 LINE",
"251 364 OFFCURVE",
"271 444 OFFCURVE",
"296 517 CURVE",
"424 586 OFFCURVE",
"600 611 OFFCURVE",
"659 596 CURVE SMOOTH",
"693 587 OFFCURVE",
"701 564 OFFCURVE",
"691 520 CURVE SMOOTH",
"663 398 OFFCURVE",
"541 163 OFFCURVE",
"370 0 CURVE",
"531 -83 LINE"
);
},
{
closed = 1;
nodes = (
"860 736 LINE",
"833 763 OFFCURVE",
"806 809 OFFCURVE",
"794 839 CURVE",
"725 807 LINE",
"735 774 OFFCURVE",
"782 703 OFFCURVE",
"800 685 CURVE"
);
},
{
closed = 1;
nodes = (
"979 769 LINE",
"948 791 OFFCURVE",
"914 831 OFFCURVE",
"896 859 CURVE",
"836 813 LINE",
"852 782 OFFCURVE",
"904 724 OFFCURVE",
"925 710 CURVE"
);
}
);
width = 1000;
}
);
unicode = 30B0;
},
{
glyphname = "ke-kata";
lastChange = "2020-03-18 19:21:13 +0000";
layers = (
{
anchors = (
{
name = LSB;
position = "{5, 380}";
},
{
name = RSB;
position = "{958, 380}";
}
);
layerId = "BE1754C0-A605-45AC-AA12-D3A1FC0C380B";
paths = (
{
closed = 1;
nodes = (
"574 40 OFFCURVE",
"716 281 OFFCURVE",
"707 568 CURVE",
"550 576 LINE",
"562 374 OFFCURVE",
"444 136 OFFCURVE",
"271 45 CURVE",
"405 -62 LINE"
);
},
{
closed = 1;
nodes = (
"228 421 OFFCURVE",
"335 670 OFFCURVE",
"410 764 CURVE",
"257 826 LINE",
"189 721 OFFCURVE",
"67 458 OFFCURVE",
"31 310 CURVE",
"177 248 LINE"
);
},
{
closed = 1;
nodes = (
"399 505 OFFCURVE",
"692 512 OFFCURVE",
"899 451 CURVE",
"932 618 LINE",
"676 686 OFFCURVE",
"419 662 OFFCURVE",
"188 582 CURVE",
"203 422 LINE"
);
}
);
width = 1000;
}
);
unicode = 30B1;
},
{
glyphname = "kesmall-kata";
lastChange = "2020-03-18 19:21:13 +0000";
layers = (
{
anchors = (
{
name = LSB;
position = "{120, 380}";
},
{
name = RSB;
position = "{886, 380}";
}
);
layerId = "BE1754C0-A605-45AC-AA12-D3A1FC0C380B";
paths = (
{
closed = 1;
nodes = (
"473 -71 LINE SMOOTH",
"538 -25 OFFCURVE",
"594 55 OFFCURVE",
"632 155 CURVE SMOOTH",
"670 255 OFFCURVE",
"687 365 OFFCURVE",
"678 466 CURVE SMOOTH",
"677 475 LINE",
"528 471 LINE",
"529 460 LINE SMOOTH",
"535 392 OFFCURVE",
"521 303 OFFCURVE",
"490 222 CURVE SMOOTH",
"455 131 OFFCURVE",
"403 61 OFFCURVE",
"344 25 CURVE SMOOTH",
"330 17 LINE",
"467 -75 LINE"
);
},
{
closed = 1;
nodes = (
"294 193 LINE",
"312 334 OFFCURVE",
"366 548 OFFCURVE",
"414 630 CURVE SMOOTH",
"421 642 LINE",
"265 677 LINE",
"262 670 LINE SMOOTH",
"223 582 OFFCURVE",
"156 352 OFFCURVE",
"147 226 CURVE",
"146 217 LINE",
"293 182 LINE"
);
},
{
closed = 1;
nodes = (
"265 340 LINE",
"355 379 OFFCURVE",
"476 401 OFFCURVE",
"597 401 CURVE SMOOTH",
"678 401 OFFCURVE",
"755 391 OFFCURVE",
"819 372 CURVE SMOOTH",
"830 369 LINE",
"860 518 LINE",
"851 521 LINE",
"770 543 OFFCURVE",
"685 554 OFFCURVE",
"600 554 CURVE SMOOTH",
"482 554 OFFCURVE",
"363 533 OFFCURVE",
"246 492 CURVE",
"238 490 LINE",
"252 335 LINE"
);
}
);
width = 1000;
}
);
unicode = 30F6;
},
{
glyphname = "ge-kata";
lastChange = "2020-03-18 19:21:13 +0000";
layers = (
{
anchors = (
{
name = LSB;
position = "{5, 380}";
},
{
name = RSB;
position = "{998, 380}";
}
);
layerId = "BE1754C0-A605-45AC-AA12-D3A1FC0C380B";
paths = (
{
closed = 1;
nodes = (
"574 40 OFFCURVE",
"716 281 OFFCURVE",
"707 568 CURVE",
"550 576 LINE",
"562 374 OFFCURVE",
"444 136 OFFCURVE",
"271 45 CURVE",
"405 -62 LINE"
);
},
{
closed = 1;
nodes = (
"228 421 OFFCURVE",
"335 670 OFFCURVE",
"410 764 CURVE",
"257 826 LINE",
"189 721 OFFCURVE",
"67 458 OFFCURVE",
"31 310 CURVE",
"177 248 LINE"
);
},
{
closed = 1;
nodes = (
"399 505 OFFCURVE",
"692 512 OFFCURVE",
"899 451 CURVE",
"932 618 LINE",
"676 686 OFFCURVE",
"419 662 OFFCURVE",
"188 582 CURVE",
"203 422 LINE"
);
},
{
closed = 1;
nodes = (
"858 754 LINE",
"834 782 OFFCURVE",
"812 826 OFFCURVE",
"802 855 CURVE",
"735 829 LINE",
"743 797 OFFCURVE",
"783 728 OFFCURVE",
"799 710 CURVE"
);
},
{
closed = 1;
nodes = (
"972 778 LINE",
"944 801 OFFCURVE",
"914 841 OFFCURVE",
"899 868 CURVE",
"840 828 LINE",
"853 798 OFFCURVE",
"899 741 OFFCURVE",
"918 726 CURVE"
);
}
);
width = 1000;
}
);
unicode = 30B2;
},
{
glyphname = "ko-kata";
lastChange = "2020-03-18 19:21:13 +0000";
layers = (
{
anchors = (
{
name = LSB;
position = "{96, 380}";
},
{
name = RSB;
position = "{905.297, 380}";
}
);
layerId = "BE1754C0-A605-45AC-AA12-D3A1FC0C380B";
paths = (
{
closed = 1;
nodes = (
"834 117 OFFCURVE",
"900 428 OFFCURVE",
"873 591 CURVE SMOOTH",
"861 664 OFFCURVE",
"834 731 OFFCURVE",
"647 744 CURVE SMOOTH",
"444 758 OFFCURVE",
"242 716 OFFCURVE",
"122 679 CURVE",
"155 510 LINE",
"295 560 OFFCURVE",
"497 584 OFFCURVE",
"618 576 CURVE SMOOTH",
"679 572 OFFCURVE",
"717 557 OFFCURVE",
"717 491 CURVE SMOOTH",
"717 404 OFFCURVE",
"681 188 OFFCURVE",
"626 6 CURVE",
"792 -17 LINE"
);
},
{
closed = 1;
nodes = (
"382 21 OFFCURVE",
"628 37 OFFCURVE",
"773 18 CURVE",
"774 39 OFFCURVE",
"787 161 OFFCURVE",
"788 178 CURVE",
"602 201 OFFCURVE",
"295 186 OFFCURVE",
"151 156 CURVE",
"181 -4 LINE"
);
}
);
width = 1000;
}
);
unicode = 30B3;
},
{
glyphname = "go-kata";
lastChange = "2020-03-18 19:21:13 +0000";
layers = (
{
anchors = (
{
name = LSB;
position = "{96, 380}";
},
{
name = RSB;
position = "{998, 380}";
}
);
layerId = "BE1754C0-A605-45AC-AA12-D3A1FC0C380B";
paths = (
{
closed = 1;
nodes = (
"834 117 OFFCURVE",
"900 428 OFFCURVE",
"873 591 CURVE SMOOTH",
"868 621 OFFCURVE",
"860 650 OFFCURVE",
"840 675 CURVE",
"791 633 LINE",
"772 653 LINE SMOOTH",
"758 667 OFFCURVE",
"733 702 OFFCURVE",
"714 736 CURVE",
"694 740 OFFCURVE",
"672 742 OFFCURVE",
"647 744 CURVE SMOOTH",
"444 758 OFFCURVE",
"242 716 OFFCURVE",
"122 679 CURVE",
"155 510 LINE",
"295 560 OFFCURVE",
"497 584 OFFCURVE",
"618 576 CURVE SMOOTH",
"679 572 OFFCURVE",
"717 557 OFFCURVE",
"717 491 CURVE SMOOTH",
"717 432 OFFCURVE",
"700 314 OFFCURVE",
"673 187 CURVE",
"493 195 OFFCURVE",
"268 180 OFFCURVE",
"151 156 CURVE",
"181 -4 LINE",
"326 14 OFFCURVE",
"495 27 OFFCURVE",
"632 26 CURVE",
"626 6 LINE",
"792 -17 LINE"
);
},
{
closed = 1;
nodes = (
"853 725 LINE",
"826 752 OFFCURVE",
"799 798 OFFCURVE",
"787 828 CURVE",
"718 796 LINE",
"728 763 OFFCURVE",
"775 692 OFFCURVE",
"793 674 CURVE"
);
},
{
closed = 1;
nodes = (
"972 758 LINE",
"941 780 OFFCURVE",
"907 820 OFFCURVE",
"889 848 CURVE",
"829 802 LINE",
"845 771 OFFCURVE",
"897 713 OFFCURVE",
"918 699 CURVE"
);
}
);
width = 1000;
}
);
unicode = 30B4;
},
{
glyphname = "sa-kata";
lastChange = "2020-03-18 19:21:13 +0000";
layers = (
{
anchors = (
{
name = LSB;
position = "{-13, 380}";
},
{
name = RSB;
position = "{983, 380}";
}
);
layerId = "BE1754C0-A605-45AC-AA12-D3A1FC0C380B";
paths = (
{
closed = 1;
nodes = (
"710 74 OFFCURVE",
"861 406 OFFCURVE",
"765 822 CURVE",
"600 809 LINE",
"684 471 OFFCURVE",
"588 183 OFFCURVE",
"387 19 CURVE",
"518 -86 LINE"
);
},
{
closed = 1;
nodes = (
"368 263 LINE",
"352 392 OFFCURVE",
"332 664 OFFCURVE",
"325 802 CURVE",
"166 779 LINE",
"169 681 OFFCURVE",
"197 357 OFFCURVE",
"212 235 CURVE"
);
},
{
closed = 1;
nodes = (
"250 456 OFFCURVE",
"664 498 OFFCURVE",
"938 457 CURVE",
"957 617 LINE",
"711 664 OFFCURVE",
"235 617 OFFCURVE",
"13 537 CURVE",
"60 381 LINE"
);
}
);
width = 1000;
}
);
unicode = 30B5;
},
{
glyphname = "za-kata";
lastChange = "2020-03-18 19:21:13 +0000";
layers = (
{
anchors = (
{
name = LSB;
position = "{-13, 380}";
},
{
name = RSB;
position = "{1014, 380}";
}
);
layerId = "BE1754C0-A605-45AC-AA12-D3A1FC0C380B";
paths = (
{
closed = 1;
nodes = (
"687 55 OFFCURVE",
"823 328 OFFCURVE",
"790 673 CURVE",
"781 683 LINE SMOOTH",
"761 706 OFFCURVE",
"720 778 OFFCURVE",
"708 818 CURVE",
"600 809 LINE",
"684 471 OFFCURVE",
"588 183 OFFCURVE",
"387 19 CURVE",
"518 -86 LINE"
);
},
{
closed = 1;
nodes = (
"368 263 LINE",
"352 392 OFFCURVE",
"332 664 OFFCURVE",
"325 802 CURVE",
"166 779 LINE",
"169 681 OFFCURVE",
"197 357 OFFCURVE",
"212 235 CURVE"
);
},
{
closed = 1;
nodes = (
"250 456 OFFCURVE",
"664 498 OFFCURVE",
"938 457 CURVE",
"957 617 LINE",
"711 664 OFFCURVE",
"235 617 OFFCURVE",
"13 537 CURVE",
"60 381 LINE"
);
},
{
closed = 1;
nodes = (
"867 750 LINE",
"842 779 OFFCURVE",
"818 826 OFFCURVE",
"807 857 CURVE",
"736 830 LINE",
"744 796 OFFCURVE",
"787 722 OFFCURVE",
"803 703 CURVE"
);
},
{
closed = 1;
nodes = (
"988 776 LINE",
"958 800 OFFCURVE",
"926 842 OFFCURVE",
"910 871 CURVE",
"847 828 LINE",
"861 797 OFFCURVE",
"910 736 OFFCURVE",
"930 720 CURVE"
);
}
);
width = 1000;
}
);
unicode = 30B6;
},
{
glyphname = "si-kata";
lastChange = "2020-03-18 19:21:13 +0000";
layers = (
{
anchors = (
{
name = LSB;
position = "{79, 380}";
},
{
name = RSB;
position = "{989, 380}";
}
);
layerId = "BE1754C0-A605-45AC-AA12-D3A1FC0C380B";
paths = (
{
closed = 1;
nodes = (
"150 -56 OFFCURVE",
"289 -89 OFFCURVE",
"451 -37 CURVE SMOOTH",
"656 28 OFFCURVE",
"886 225 OFFCURVE",
"963 359 CURVE",
"853 503 LINE",
"738 315 OFFCURVE",
"508 152 OFFCURVE",
"413 126 CURVE SMOOTH",
"320 101 OFFCURVE",
"273 123 OFFCURVE",
"248 229 CURVE",
"107 154 LINE"
);
},
{
closed = 1;
nodes = (
"429 453 LINE",
"349 492 OFFCURVE",
"237 533 OFFCURVE",
"152 551 CURVE",
"105 397 LINE",
"177 382 OFFCURVE",
"297 341 OFFCURVE",
"366 303 CURVE"
);
},
{
closed = 1;
nodes = (
"554 654 LINE",
"493 708 OFFCURVE",
"375 776 OFFCURVE",
"270 815 CURVE",
"215 669 LINE",
"315 625 OFFCURVE",
"414 569 OFFCURVE",
"473 515 CURVE"
);
}
);
width = 1000;
}
);
unicode = 30B7;
},
{
glyphname = "sismall-kata";
lastChange = "2020-03-18 19:21:13 +0000";
layers = (
{
anchors = (
{
name = LSB;
position = "{151, 380}";
},
{
name = RSB;
position = "{914, 380}";
}
);
layerId = "BE1754C0-A605-45AC-AA12-D3A1FC0C380B";
paths = (
{
closed = 1;
nodes = (
"399 -76 OFFCURVE",
"433 -70 OFFCURVE",
"470 -58 CURVE SMOOTH",
"636 -5 OFFCURVE",
"822 154 OFFCURVE",
"885 264 CURVE SMOOTH",
"888 269 LINE",
"788 402 LINE",
"780 389 LINE SMOOTH",
"739 323 OFFCURVE",
"676 253 OFFCURVE",
"600 192 CURVE SMOOTH",
"538 142 OFFCURVE",
"472 102 OFFCURVE",
"434 92 CURVE SMOOTH",
"416 87 OFFCURVE",
"401 85 OFFCURVE",
"388 85 CURVE SMOOTH",
"369 85 OFFCURVE",
"354 90 OFFCURVE",
"343 102 CURVE SMOOTH",
"331 115 OFFCURVE",
"321 137 OFFCURVE",
"314 167 CURVE SMOOTH",
"311 180 LINE",
"180 110 LINE",
"182 103 LINE",
"194 42 OFFCURVE",
"218 -4 OFFCURVE",
"251 -34 CURVE SMOOTH",
"282 -62 OFFCURVE",
"321 -76 OFFCURVE",
"368 -76 CURVE SMOOTH"
);
},
{
closed = 1;
nodes = (
"462 349 LINE",
"454 353 LINE SMOOTH",
"385 386 OFFCURVE",
"295 418 OFFCURVE",
"230 432 CURVE SMOOTH",
"221 434 LINE",
"177 291 LINE",
"188 289 LINE SMOOTH",
"243 278 OFFCURVE",
"339 245 OFFCURVE",
"394 215 CURVE",
"404 210 LINE"
);
},
{
closed = 1;
nodes = (
"562 507 LINE",
"556 512 LINE SMOOTH",
"505 557 OFFCURVE",
"408 612 OFFCURVE",
"326 643 CURVE",
"316 646 LINE",
"265 511 LINE",
"274 507 LINE SMOOTH",
"361 469 OFFCURVE",
"435 425 OFFCURVE",
"478 386 CURVE SMOOTH",
"487 378 LINE"
);
}
);
width = 1000;
}
);
unicode = 31F1;
},
{
glyphname = "zi-kata";
lastChange = "2020-03-18 19:21:13 +0000";
layers = (
{
anchors = (
{
name = LSB;
position = "{79, 380}";
},
{
name = RSB;
position = "{1001, 380}";
}
);
layerId = "BE1754C0-A605-45AC-AA12-D3A1FC0C380B";
paths = (
{
closed = 1;
nodes = (
"656 28 OFFCURVE",
"886 225 OFFCURVE",
"963 359 CURVE",
"853 503 LINE",
"738 315 OFFCURVE",
"508 152 OFFCURVE",
"413 126 CURVE SMOOTH",
"320 101 OFFCURVE",
"273 123 OFFCURVE",
"248 229 CURVE",
"107 154 LINE",
"150 -56 OFFCURVE",
"289 -89 OFFCURVE",
"451 -37 CURVE SMOOTH"
);
},
{
closed = 1;
nodes = (
"429 453 LINE",
"349 492 OFFCURVE",
"237 533 OFFCURVE",
"152 551 CURVE",
"105 397 LINE",
"177 382 OFFCURVE",
"297 341 OFFCURVE",
"366 303 CURVE"
);
},
{
closed = 1;
nodes = (
"554 654 LINE",
"493 708 OFFCURVE",
"375 776 OFFCURVE",
"270 815 CURVE",
"215 669 LINE",
"315 625 OFFCURVE",
"414 569 OFFCURVE",
"473 515 CURVE"
);
},
{
closed = 1;
nodes = (
"856 723 LINE",
"829 751 OFFCURVE",
"802 796 OFFCURVE",
"790 827 CURVE",
"721 795 LINE",
"731 761 OFFCURVE",
"778 690 OFFCURVE",
"796 672 CURVE"
);
},
{
closed = 1;
nodes = (
"975 756 LINE",
"944 779 OFFCURVE",
"910 818 OFFCURVE",
"892 846 CURVE",
"832 800 LINE",
"848 769 OFFCURVE",
"900 712 OFFCURVE",
"921 697 CURVE"
);
}
);
width = 1000;
}
);
unicode = 30B8;
},
{
glyphname = "su-kata";
lastChange = "2020-03-18 19:21:13 +0000";
layers = (
{
anchors = (
{
name = LSB;
position = "{64, 380}";
},
{
name = RSB;
position = "{949, 380}";
}
);
layerId = "BE1754C0-A605-45AC-AA12-D3A1FC0C380B";
paths = (
{
closed = 1;
nodes = (
"362 52 OFFCURVE",
"631 287 OFFCURVE",
"741 483 CURVE SMOOTH",
"821 626 OFFCURVE",
"820 780 OFFCURVE",
"628 788 CURVE SMOOTH",
"473 795 OFFCURVE",
"307 755 OFFCURVE",
"128 706 CURVE",
"162 545 LINE",
"474 633 OFFCURVE",
"732 706 OFFCURVE",
"536 475 CURVE SMOOTH",
"416 334 OFFCURVE",
"307 236 OFFCURVE",
"90 104 CURVE",
"200 -44 LINE"
);
},
{
closed = 1;
nodes = (
"923 72 LINE",
"824 186 OFFCURVE",
"712 293 OFFCURVE",
"620 359 CURVE",
"508 253 LINE",
"597 177 OFFCURVE",
"705 67 OFFCURVE",
"785 -36 CURVE"
);
}
);
width = 1000;
}
);
unicode = 30B9;
},
{
glyphname = "susmall-kata";
lastChange = "2020-03-18 19:21:13 +0000";
layers = (
{
anchors = (
{
name = LSB;
position = "{137, 380}";
},
{
name = RSB;
position = "{884, 380}";
}
);
layerId = "BE1754C0-A605-45AC-AA12-D3A1FC0C380B";
paths = (
{
closed = 1;
nodes = (
"270 -66 LINE SMOOTH",
"349 -19 OFFCURVE",
"450 61 OFFCURVE",
"535 146 CURVE",
"604 84 OFFCURVE",
"674 9 OFFCURVE",
"725 -57 CURVE",
"732 -65 LINE",
"858 34 LINE",
"851 42 LINE SMOOTH",
"780 125 OFFCURVE",
"701 201 OFFCURVE",
"633 254 CURVE",
"664 291 OFFCURVE",
"688 327 OFFCURVE",
"707 360 CURVE SMOOTH",
"750 437 OFFCURVE",
"760 509 OFFCURVE",
"733 557 CURVE SMOOTH",
"723 575 OFFCURVE",
"708 590 OFFCURVE",
"687 600 CURVE",
"666 611 OFFCURVE",
"639 617 OFFCURVE",
"608 618 CURVE",
"599 619 OFFCURVE",
"589 619 OFFCURVE",
"579 619 CURVE SMOOTH",
"458 619 OFFCURVE",
"328 586 OFFCURVE",
"205 552 CURVE",
"196 550 LINE",
"227 401 LINE",
"239 405 LINE",
"361 439 OFFCURVE",
"476 472 OFFCURVE",
"538 472 CURVE SMOOTH",
"553 472 OFFCURVE",
"573 470 OFFCURVE",
"577 459 CURVE",
"581 451 OFFCURVE",
"580 427 OFFCURVE",
"527 364 CURVE SMOOTH",
"475 303 OFFCURVE",
"429 257 OFFCURVE",
"378 215 CURVE SMOOTH",
"323 167 OFFCURVE",
"257 121 OFFCURVE",
"172 70 CURVE",
"163 64 LINE",
"263 -70 LINE"
);
}
);
width = 1000;
}
);
unicode = 31F2;
},
{
glyphname = "zu-kata";
lastChange = "2020-03-18 19:21:13 +0000";
layers = (
{
anchors = (
{
name = LSB;
position = "{64, 380}";
},
{
name = RSB;
position = "{1018, 380}";
}
);
layerId = "BE1754C0-A605-45AC-AA12-D3A1FC0C380B";
paths = (
{
closed = 1;
nodes = (
"362 52 OFFCURVE",
"631 287 OFFCURVE",
"741 483 CURVE SMOOTH",
"821 626 OFFCURVE",
"820 780 OFFCURVE",
"628 788 CURVE SMOOTH",
"473 795 OFFCURVE",
"307 755 OFFCURVE",
"128 706 CURVE",
"162 545 LINE",
"474 633 OFFCURVE",
"732 706 OFFCURVE",
"536 475 CURVE SMOOTH",
"416 334 OFFCURVE",
"307 236 OFFCURVE",
"90 104 CURVE",
"200 -44 LINE"
);
},
{
closed = 1;
nodes = (
"923 72 LINE",
"824 186 OFFCURVE",
"712 293 OFFCURVE",
"620 359 CURVE",
"508 253 LINE",
"597 177 OFFCURVE",
"705 67 OFFCURVE",
"785 -36 CURVE"
);
},
{
closed = 1;
nodes = (
"879 755 LINE",
"855 783 OFFCURVE",
"833 826 OFFCURVE",
"823 856 CURVE",
"757 830 LINE",
"765 798 OFFCURVE",
"804 729 OFFCURVE",
"820 711 CURVE"
);
},
{
closed = 1;
nodes = (
"992 779 LINE",
"964 802 OFFCURVE",
"934 841 OFFCURVE",
"919 868 CURVE",
"861 829 LINE",
"874 799 OFFCURVE",
"919 742 OFFCURVE",
"938 727 CURVE"
);
}
);
width = 1000;
}
);
unicode = 30BA;
},
{
glyphname = "se-kata";
lastChange = "2020-03-18 19:21:13 +0000";
layers = (
{
anchors = (
{
name = LSB;
position = "{17, 380}";
},
{
name = RSB;
position = "{947.873, 380}";
}
);
layerId = "BE1754C0-A605-45AC-AA12-D3A1FC0C380B";
paths = (
{
closed = 1;
nodes = (
"448 -64 OFFCURVE",
"686 -72 OFFCURVE",
"910 47 CURVE",
"873 222 LINE",
"742 130 OFFCURVE",
"570 109 OFFCURVE",
"470 117 CURVE SMOOTH",
"406 123 OFFCURVE",
"381 144 OFFCURVE",
"370 197 CURVE SMOOTH",
"348 321 OFFCURVE",
"368 573 OFFCURVE",
"412 807 CURVE",
"241 809 LINE",
"202 543 OFFCURVE",
"189 383 OFFCURVE",
"200 219 CURVE SMOOTH",
"210 67 OFFCURVE",
"263 4 OFFCURVE",
"338 -24 CURVE SMOOTH"
);
},
{
closed = 1;
nodes = (
"818 355 OFFCURVE",
"881 437 OFFCURVE",
"910 515 CURVE SMOOTH",
"951 632 OFFCURVE",
"884 700 OFFCURVE",
"737 693 CURVE SMOOTH",
"624 687 OFFCURVE",
"200 595 OFFCURVE",
"43 530 CURVE",
"72 361 LINE",
"282 436 OFFCURVE",
"492 501 OFFCURVE",
"645 524 CURVE SMOOTH",
"766 545 OFFCURVE",
"676 433 OFFCURVE",
"583 368 CURVE",
"721 265 LINE"
);
}
);
width = 1000;
}
);
unicode = 30BB;
},
{
glyphname = "ze-kata";
lastChange = "2020-03-18 19:21:13 +0000";
layers = (
{
anchors = (
{
name = LSB;
position = "{17, 380}";
},
{
name = RSB;
position = "{991, 380}";
}
);
layerId = "BE1754C0-A605-45AC-AA12-D3A1FC0C380B";
paths = (
{
closed = 1;
nodes = (
"448 -64 OFFCURVE",
"686 -72 OFFCURVE",
"910 47 CURVE",
"873 222 LINE",
"742 130 OFFCURVE",
"570 109 OFFCURVE",
"470 117 CURVE SMOOTH",
"406 123 OFFCURVE",
"381 144 OFFCURVE",
"370 197 CURVE SMOOTH",
"348 321 OFFCURVE",
"368 573 OFFCURVE",
"412 807 CURVE",
"241 809 LINE",
"202 543 OFFCURVE",
"189 383 OFFCURVE",
"200 219 CURVE SMOOTH",
"210 67 OFFCURVE",
"263 4 OFFCURVE",
"338 -24 CURVE SMOOTH"
);
},
{
closed = 1;
nodes = (
"818 355 OFFCURVE",
"881 437 OFFCURVE",
"910 515 CURVE SMOOTH",
"951 632 OFFCURVE",
"884 700 OFFCURVE",
"737 693 CURVE SMOOTH",
"624 687 OFFCURVE",
"200 595 OFFCURVE",
"43 530 CURVE",
"72 361 LINE",
"282 436 OFFCURVE",
"492 501 OFFCURVE",
"645 524 CURVE SMOOTH",
"766 545 OFFCURVE",
"676 433 OFFCURVE",
"583 368 CURVE",
"721 265 LINE"
);
},
{
closed = 1;
nodes = (
"858 747 LINE",
"834 772 OFFCURVE",
"810 812 OFFCURVE",
"799 840 CURVE",
"737 811 LINE",
"746 781 OFFCURVE",
"788 717 OFFCURVE",
"804 701 CURVE"
);
},
{
closed = 1;
nodes = (
"965 776 LINE",
"937 797 OFFCURVE",
"906 832 OFFCURVE",
"890 858 CURVE",
"837 816 LINE",
"851 788 OFFCURVE",
"898 737 OFFCURVE",
"917 723 CURVE"
);
}
);
width = 1000;
}
);
unicode = 30BC;
},
{
glyphname = "so-kata";
lastChange = "2020-03-18 19:21:13 +0000";
layers = (
{
anchors = (
{
name = LSB;
position = "{41, 380}";
},
{
name = RSB;
position = "{929, 380}";
}
);
layerId = "BE1754C0-A605-45AC-AA12-D3A1FC0C380B";
paths = (
{
closed = 1;
nodes = (
"67 684 LINE",
"131 611 OFFCURVE",
"192 535 OFFCURVE",
"255 395 CURVE",
"415 488 LINE",
"350 612 OFFCURVE",
"307 674 OFFCURVE",
"213 772 CURVE"
);
},
{
closed = 1;
nodes = (
"699 546 OFFCURVE",
"554 221 OFFCURVE",
"366 37 CURVE",
"523 -57 LINE",
"699 123 OFFCURVE",
"853 458 OFFCURVE",
"903 733 CURVE",
"734 793 LINE"
);
}
);
width = 1000;
}
);
unicode = 30BD;
},
{
glyphname = "zo-kata";
lastChange = "2020-03-18 19:21:13 +0000";
layers = (
{
anchors = (
{
name = LSB;
position = "{41, 380}";
},
{
name = RSB;
position = "{1001, 380}";
}
);
layerId = "BE1754C0-A605-45AC-AA12-D3A1FC0C380B";
paths = (
{
closed = 1;
nodes = (
"691 115 OFFCURVE",
"839 428 OFFCURVE",
"896 696 CURVE",
"889 701 OFFCURVE",
"882 708 OFFCURVE",
"874 716 CURVE",
"794 648 LINE",
"775 668 LINE SMOOTH",
"764 679 OFFCURVE",
"743 707 OFFCURVE",
"724 737 CURVE",
"677 499 OFFCURVE",
"540 207 OFFCURVE",
"366 37 CURVE",
"523 -57 LINE"
);
},
{
closed = 1;
nodes = (
"415 488 LINE",
"350 612 OFFCURVE",
"307 674 OFFCURVE",
"213 772 CURVE",
"67 684 LINE",
"131 611 OFFCURVE",
"192 535 OFFCURVE",
"255 395 CURVE"
);
},
{
closed = 1;
nodes = (
"856 740 LINE",
"829 767 OFFCURVE",
"802 813 OFFCURVE",
"790 843 CURVE",
"721 811 LINE",
"731 778 OFFCURVE",
"778 707 OFFCURVE",
"796 689 CURVE"
);
},
{
closed = 1;
nodes = (
"975 773 LINE",
"944 795 OFFCURVE",
"910 835 OFFCURVE",
"892 863 CURVE",
"832 817 LINE",
"848 786 OFFCURVE",
"900 728 OFFCURVE",
"921 714 CURVE"
);
}
);
width = 1000;
}
);
unicode = 30BE;
},
{
glyphname = "ta-kata";
lastChange = "2020-03-18 19:21:13 +0000";
layers = (
{
anchors = (
{
name = LSB;
position = "{67, 380}";
},
{
name = RSB;
position = "{921.531, 380}";
}
);
layerId = "BE1754C0-A605-45AC-AA12-D3A1FC0C380B";
paths = (
{
closed = 1;
nodes = (
"650 62 OFFCURVE",
"837 300 OFFCURVE",
"891 559 CURVE SMOOTH",
"945 837 OFFCURVE",
"503 834 OFFCURVE",
"276 662 CURVE",
"270 526 LINE",
"439 606 OFFCURVE",
"751 674 OFFCURVE",
"722 550 CURVE SMOOTH",
"704 472 OFFCURVE",
"583 223 OFFCURVE",
"366 12 CURVE",
"508 -79 LINE"
);
},
{
closed = 1;
nodes = (
"273 491 OFFCURVE",
"339 663 OFFCURVE",
"449 804 CURVE",
"298 858 LINE",
"203 736 OFFCURVE",
"117 515 OFFCURVE",
"93 334 CURVE",
"244 293 LINE"
);
},
{
closed = 1;
nodes = (
"668 369 LINE",
"625 421 OFFCURVE",
"472 495 OFFCURVE",
"398 508 CURVE",
"320 381 LINE",
"434 337 OFFCURVE",
"548 279 OFFCURVE",
"582 229 CURVE"
);
}
);
width = 1000;
}
);
unicode = 30BF;
},
{
glyphname = "da-kata";
lastChange = "2020-03-18 19:21:13 +0000";
layers = (
{
anchors = (
{
name = LSB;
position = "{67, 380}";
},
{
name = RSB;
position = "{998, 380}";
}
);
layerId = "BE1754C0-A605-45AC-AA12-D3A1FC0C380B";
paths = (
{
closed = 1;
nodes = (
"650 62 OFFCURVE",
"837 300 OFFCURVE",
"891 559 CURVE SMOOTH",
"904 626 OFFCURVE",
"888 677 OFFCURVE",
"853 713 CURVE",
"784 661 LINE",
"766 682 LINE SMOOTH",
"752 698 OFFCURVE",
"726 740 OFFCURVE",
"709 777 CURVE",
"615 790 OFFCURVE",
"499 773 OFFCURVE",
"397 731 CURVE",
"413 756 OFFCURVE",
"430 780 OFFCURVE",
"449 804 CURVE",
"298 858 LINE",
"203 736 OFFCURVE",
"117 515 OFFCURVE",
"93 334 CURVE",
"244 293 LINE",
"257 381 OFFCURVE",
"277 464 OFFCURVE",
"305 542 CURVE",
"479 614 OFFCURVE",
"749 666 OFFCURVE",
"722 550 CURVE SMOOTH",
"715 519 OFFCURVE",
"691 460 OFFCURVE",
"651 386 CURVE",
"593 436 OFFCURVE",
"464 496 OFFCURVE",
"398 508 CURVE",
"320 381 LINE",
"419 343 OFFCURVE",
"519 294 OFFCURVE",
"565 249 CURVE",
"512 171 OFFCURVE",
"445 89 OFFCURVE",
"366 12 CURVE",
"508 -79 LINE"
);
},
{
closed = 1;
nodes = (
"852 749 LINE",
"826 778 OFFCURVE",
"802 825 OFFCURVE",
"792 856 CURVE",
"721 828 LINE",
"729 794 OFFCURVE",
"771 721 OFFCURVE",
"788 701 CURVE"
);
},
{
closed = 1;
nodes = (
"972 774 LINE",
"942 799 OFFCURVE",
"911 840 OFFCURVE",
"895 869 CURVE",
"832 827 LINE",
"846 795 OFFCURVE",
"895 735 OFFCURVE",
"915 719 CURVE"
);
}
);
width = 1000;
}
);
unicode = 30C0;
},
{
glyphname = "ti-kata";
lastChange = "2020-03-18 19:21:13 +0000";
layers = (
{
anchors = (
{
name = LSB;
position = "{25, 380}";
},
{
name = RSB;
position = "{972, 380}";
}
);
layerId = "BE1754C0-A605-45AC-AA12-D3A1FC0C380B";
paths = (
{
closed = 1;
nodes = (
"791 179 OFFCURVE",
"781 515 OFFCURVE",
"578 708 CURVE",
"420 653 LINE",
"568 564 OFFCURVE",
"670 268 OFFCURVE",
"358 6 CURVE",
"508 -74 LINE"
);
},
{
closed = 1;
nodes = (
"305 313 OFFCURVE",
"692 349 OFFCURVE",
"928 296 CURVE",
"946 455 LINE",
"732 514 OFFCURVE",
"276 471 OFFCURVE",
"51 380 CURVE",
"87 236 LINE"
);
},
{
closed = 1;
nodes = (
"303 569 OFFCURVE",
"581 675 OFFCURVE",
"750 664 CURVE",
"746 824 LINE",
"563 824 OFFCURVE",
"307 747 OFFCURVE",
"146 647 CURVE",
"204 508 LINE"
);
}
);
width = 1000;
}
);
unicode = 30C1;
},
{
glyphname = "di-kata";
lastChange = "2020-03-18 19:21:13 +0000";
layers = (
{
anchors = (
{
name = LSB;
position = "{25, 380}";
},
{
name = RSB;
position = "{1004, 380}";
}
);
layerId = "BE1754C0-A605-45AC-AA12-D3A1FC0C380B";
paths = (
{
closed = 1;
nodes = (
"791 179 OFFCURVE",
"781 515 OFFCURVE",
"578 708 CURVE",
"420 653 LINE",
"568 564 OFFCURVE",
"670 268 OFFCURVE",
"358 6 CURVE",
"508 -74 LINE"
);
},
{
closed = 1;
nodes = (
"305 313 OFFCURVE",
"692 349 OFFCURVE",
"928 296 CURVE",
"946 455 LINE",
"732 514 OFFCURVE",
"276 471 OFFCURVE",
"51 380 CURVE",
"87 236 LINE"
);
},
{
closed = 1;
nodes = (
"303 569 OFFCURVE",
"581 675 OFFCURVE",
"750 664 CURVE",
"746 824 LINE",
"563 824 OFFCURVE",
"307 747 OFFCURVE",
"146 647 CURVE",
"204 508 LINE"
);
},
{
closed = 1;
nodes = (
"859 558 LINE",
"832 586 OFFCURVE",
"805 631 OFFCURVE",
"793 662 CURVE",
"724 630 LINE",
"734 597 OFFCURVE",
"781 525 OFFCURVE",
"799 507 CURVE"
);
},
{
closed = 1;
nodes = (
"978 591 LINE",
"947 614 OFFCURVE",
"913 653 OFFCURVE",
"895 681 CURVE",
"835 635 LINE",
"851 605 OFFCURVE",
"903 547 OFFCURVE",
"924 532 CURVE"
);
}
);
width = 1000;
}
);
unicode = 30C2;
},
{
glyphname = "tu-kata";
lastChange = "2020-03-18 19:21:13 +0000";
layers = (
{
anchors = (
{
name = LSB;
position = "{39, 380}";
},
{
name = RSB;
position = "{955, 380}";
}
);
layerId = "BE1754C0-A605-45AC-AA12-D3A1FC0C380B";
paths = (
{
closed = 1;
nodes = (
"557 462 LINE",
"544 594 OFFCURVE",
"523 672 OFFCURVE",
"474 801 CURVE",
"323 751 LINE",
"356 659 OFFCURVE",
"388 538 OFFCURVE",
"396 425 CURVE"
);
},
{
closed = 1;
nodes = (
"302 401 LINE",
"290 527 OFFCURVE",
"264 626 OFFCURVE",
"212 740 CURVE",
"65 694 LINE",
"109 604 OFFCURVE",
"135 444 OFFCURVE",
"149 363 CURVE"
);
},
{
closed = 1;
nodes = (
"786 144 OFFCURVE",
"909 447 OFFCURVE",
"929 719 CURVE",
"755 766 LINE",
"733 503 OFFCURVE",
"666 265 OFFCURVE",
"368 37 CURVE",
"518 -70 LINE"
);
}
);
width = 1000;
}
);
unicode = 30C4;
},
{
glyphname = "tusmall-kata";
lastChange = "2020-03-18 19:21:13 +0000";
layers = (
{
anchors = (
{
name = LSB;
position = "{114, 380}";
},
{
name = RSB;
position = "{882, 380}";
}
);
layerId = "BE1754C0-A605-45AC-AA12-D3A1FC0C380B";
paths = (
{
closed = 1;
nodes = (
"523 -69 LINE SMOOTH",
"625 13 OFFCURVE",
"707 114 OFFCURVE",
"765 233 CURVE SMOOTH",
"816 337 OFFCURVE",
"847 453 OFFCURVE",
"856 569 CURVE",
"856 578 LINE",
"697 620 LINE",
"696 609 LINE SMOOTH",
"689 525 OFFCURVE",
"675 416 OFFCURVE",
"625 310 CURVE SMOOTH",
"577 207 OFFCURVE",
"500 116 OFFCURVE",
"391 32 CURVE SMOOTH",
"380 24 LINE",
"517 -74 LINE"
);
},
{
closed = 1;
nodes = (
"355 308 LINE",
"354 317 LINE SMOOTH",
"344 420 OFFCURVE",
"323 499 OFFCURVE",
"281 591 CURVE",
"277 599 LINE",
"140 556 LINE",
"145 546 LINE SMOOTH",
"178 479 OFFCURVE",
"199 358 OFFCURVE",
"210 294 CURVE SMOOTH",
"214 273 LINE"
);
},
{
closed = 1;
nodes = (
"559 357 LINE",
"558 365 LINE SMOOTH",
"548 467 OFFCURVE",
"533 529 OFFCURVE",
"491 639 CURVE",
"488 648 LINE",
"348 602 LINE",
"351 592 LINE",
"383 505 OFFCURVE",
"404 411 OFFCURVE",
"409 334 CURVE SMOOTH",
"410 323 LINE"
);
}
);
width = 1000;
}
);
unicode = 30C3;
},
{
glyphname = "du-kata";
lastChange = "2020-03-18 19:21:13 +0000";
layers = (
{
anchors = (
{
name = LSB;
position = "{39, 380}";
},
{
name = RSB;
position = "{991, 380}";
}
);
layerId = "BE1754C0-A605-45AC-AA12-D3A1FC0C380B";
paths = (
{
closed = 1;
nodes = (
"772 133 OFFCURVE",
"895 415 OFFCURVE",
"925 676 CURVE",
"910 661 LINE",
"889 678 LINE",
"882 683 OFFCURVE",
"872 694 OFFCURVE",
"861 706 CURVE",
"777 643 LINE",
"759 664 LINE",
"755 668 OFFCURVE",
"751 674 OFFCURVE",
"746 681 CURVE",
"716 451 OFFCURVE",
"633 240 OFFCURVE",
"368 37 CURVE",
"518 -70 LINE"
);
},
{
closed = 1;
nodes = (
"302 401 LINE",
"290 527 OFFCURVE",
"264 626 OFFCURVE",
"212 740 CURVE",
"65 694 LINE",
"109 604 OFFCURVE",
"135 444 OFFCURVE",
"149 363 CURVE"
);
},
{
closed = 1;
nodes = (
"557 462 LINE",
"544 594 OFFCURVE",
"523 672 OFFCURVE",
"474 801 CURVE",
"323 751 LINE",
"356 659 OFFCURVE",
"388 538 OFFCURVE",
"396 425 CURVE"
);
},
{
closed = 1;
nodes = (
"845 731 LINE",
"819 760 OFFCURVE",
"795 807 OFFCURVE",
"784 838 CURVE",
"714 810 LINE",
"722 777 OFFCURVE",
"764 703 OFFCURVE",
"781 683 CURVE"
);
},
{
closed = 1;
nodes = (
"965 756 LINE",
"935 781 OFFCURVE",
"904 823 OFFCURVE",
"887 852 CURVE",
"825 809 LINE",
"839 778 OFFCURVE",
"888 717 OFFCURVE",
"908 701 CURVE"
);
}
);
width = 1000;
}
);
unicode = 30C5;
},
{
glyphname = "te-kata";
lastChange = "2020-03-18 19:21:13 +0000";
layers = (
{
anchors = (
{
name = LSB;
position = "{19, 380}";
},
{
name = RSB;
position = "{946, 380}";
}
);
layerId = "BE1754C0-A605-45AC-AA12-D3A1FC0C380B";
paths = (
{
closed = 1;
nodes = (
"306 369 OFFCURVE",
"659 378 OFFCURVE",
"889 335 CURVE",
"920 496 LINE",
"653 540 OFFCURVE",
"295 522 OFFCURVE",
"45 460 CURVE",
"86 304 LINE"
);
},
{
closed = 1;
nodes = (
"544 5 OFFCURVE",
"658 153 OFFCURVE",
"676 434 CURVE",
"503 453 LINE",
"514 274 OFFCURVE",
"413 129 OFFCURVE",
"175 96 CURVE",
"260 -56 LINE"
);
},
{
closed = 1;
nodes = (
"321 658 OFFCURVE",
"652 653 OFFCURVE",
"798 604 CURVE",
"824 758 LINE",
"653 808 OFFCURVE",
"318 808 OFFCURVE",
"144 753 CURVE",
"165 598 LINE"
);
}
);
width = 1000;
}
);
unicode = 30C6;
},
{
glyphname = "de-kata";
lastChange = "2020-03-18 19:21:13 +0000";
layers = (
{
anchors = (
{
name = LSB;
position = "{19, 380}";
},
{
name = RSB;
position = "{999, 380}";
}
);
layerId = "BE1754C0-A605-45AC-AA12-D3A1FC0C380B";
paths = (
{
closed = 1;
nodes = (
"517 -1 OFFCURVE",
"635 126 OFFCURVE",
"668 359 CURVE",
"748 355 OFFCURVE",
"823 347 OFFCURVE",
"889 335 CURVE",
"920 496 LINE",
"653 540 OFFCURVE",
"295 522 OFFCURVE",
"45 460 CURVE",
"86 304 LINE",
"199 338 OFFCURVE",
"349 356 OFFCURVE",
"498 360 CURVE",
"473 226 OFFCURVE",
"370 123 OFFCURVE",
"175 96 CURVE",
"260 -56 LINE"
);
},
{
closed = 1;
nodes = (
"321 658 OFFCURVE",
"652 653 OFFCURVE",
"798 604 CURVE",
"811 680 LINE",
"785 661 LINE",
"767 682 LINE",
"752 698 OFFCURVE",
"725 743 OFFCURVE",
"708 781 CURVE",
"529 806 OFFCURVE",
"284 797 OFFCURVE",
"144 753 CURVE",
"165 598 LINE"
);
},
{
closed = 1;
nodes = (
"853 749 LINE",
"827 778 OFFCURVE",
"803 825 OFFCURVE",
"793 856 CURVE",
"722 828 LINE",
"730 794 OFFCURVE",
"772 721 OFFCURVE",
"789 701 CURVE"
);
},
{
closed = 1;
nodes = (
"973 774 LINE",
"943 799 OFFCURVE",
"912 840 OFFCURVE",
"896 869 CURVE",
"833 827 LINE",
"847 795 OFFCURVE",
"896 735 OFFCURVE",
"916 719 CURVE"
);
}
);
width = 1000;
}
);
unicode = 30C7;
},
{
glyphname = "to-kata";
lastChange = "2020-03-18 19:21:13 +0000";
layers = (
{
anchors = (
{
name = LSB;
position = "{198.46, 380}";
},
{
name = RSB;
position = "{924, 380}";
}
);
layerId = "BE1754C0-A605-45AC-AA12-D3A1FC0C380B";
paths = (
{
closed = 1;
nodes = (
"898 284 LINE",
"757 398 OFFCURVE",
"537 504 OFFCURVE",
"340 553 CURVE",
"297 406 LINE",
"438 366 OFFCURVE",
"666 257 OFFCURVE",
"805 135 CURVE"
);
},
{
closed = 1;
nodes = (
"419 -61 LINE",
"378 217 OFFCURVE",
"402 626 OFFCURVE",
"442 807 CURVE",
"272 824 LINE",
"235 597 OFFCURVE",
"205 161 OFFCURVE",
"240 -66 CURVE"
);
}
);
width = 1000;
}
);
unicode = 30C8;
},
{
glyphname = "tosmall-kata";
lastChange = "2020-03-18 19:21:13 +0000";
layers = (
{
anchors = (
{
name = LSB;
position = "{261.917, 380}";
},
{
name = RSB;
position = "{869, 380}";
}
);
layerId = "BE1754C0-A605-45AC-AA12-D3A1FC0C380B";
paths = (
{
closed = 1;
nodes = (
"456 -79 LINE",
"455 -68 LINE",
"438 45 OFFCURVE",
"437 171 OFFCURVE",
"439 261 CURVE",
"533 222 OFFCURVE",
"661 156 OFFCURVE",
"749 78 CURVE",
"758 71 LINE",
"843 207 LINE",
"836 213 LINE SMOOTH",
"738 293 OFFCURVE",
"589 369 OFFCURVE",
"446 413 CURVE",
"452 496 OFFCURVE",
"462 569 OFFCURVE",
"473 620 CURVE SMOOTH",
"475 631 LINE",
"322 647 LINE",
"321 637 LINE",
"306 545 OFFCURVE",
"294 412 OFFCURVE",
"290 282 CURVE SMOOTH",
"285 136 OFFCURVE",
"289 9 OFFCURVE",
"302 -75 CURVE",
"304 -83 LINE"
);
}
);
width = 1000;
}
);
unicode = 31F3;
},
{
glyphname = "do-kata";
lastChange = "2020-03-18 19:21:13 +0000";
layers = (
{
anchors = (
{
name = LSB;
position = "{198.46, 380}";
},
{
name = RSB;
position = "{929, 380}";
}
);
layerId = "BE1754C0-A605-45AC-AA12-D3A1FC0C380B";
paths = (
{
closed = 1;
nodes = (
"898 284 LINE",
"757 398 OFFCURVE",
"537 504 OFFCURVE",
"340 553 CURVE",
"297 406 LINE",
"438 366 OFFCURVE",
"666 257 OFFCURVE",
"805 135 CURVE"
);
},
{
closed = 1;
nodes = (
"419 -61 LINE",
"378 217 OFFCURVE",
"402 626 OFFCURVE",
"442 807 CURVE",
"272 824 LINE",
"235 597 OFFCURVE",
"205 161 OFFCURVE",
"240 -66 CURVE"
);
},
{
closed = 1;
nodes = (
"784 702 LINE",
"757 730 OFFCURVE",
"731 775 OFFCURVE",
"718 806 CURVE",
"649 774 LINE",
"659 741 OFFCURVE",
"706 669 OFFCURVE",
"724 651 CURVE"
);
},
{
closed = 1;
nodes = (
"903 735 LINE",
"872 758 OFFCURVE",
"838 797 OFFCURVE",
"820 825 CURVE",
"760 779 LINE",
"776 748 OFFCURVE",
"828 691 OFFCURVE",
"849 676 CURVE"
);
}
);
width = 1000;
}
);
unicode = 30C9;
},
{
glyphname = "na-kata";
lastChange = "2020-03-18 19:21:13 +0000";
layers = (
{
anchors = (
{
name = LSB;
position = "{18, 380}";
},
{
name = RSB;
position = "{968, 380}";
}
);
layerId = "BE1754C0-A605-45AC-AA12-D3A1FC0C380B";
paths = (
{
closed = 1;
nodes = (
"585 105 OFFCURVE",
"681 414 OFFCURVE",
"583 829 CURVE",
"412 815 LINE",
"515 462 OFFCURVE",
"435 211 OFFCURVE",
"168 44 CURVE",
"301 -74 LINE"
);
},
{
closed = 1;
nodes = (
"290 454 OFFCURVE",
"702 487 OFFCURVE",
"932 455 CURVE",
"942 619 LINE",
"731 647 OFFCURVE",
"256 617 OFFCURVE",
"44 558 CURVE",
"70 403 LINE"
);
}
);
width = 1000;
}
);
unicode = 30CA;
},
{
glyphname = "ni-kata";
lastChange = "2020-03-18 19:21:13 +0000";
layers = (
{
anchors = (
{
name = LSB;
position = "{41, 380}";
},
{
name = RSB;
position = "{965, 380}";
}
);
layerId = "BE1754C0-A605-45AC-AA12-D3A1FC0C380B";
paths = (
{
closed = 1;
nodes = (
"322 -2 OFFCURVE",
"713 0 OFFCURVE",
"939 83 CURVE",
"930 260 LINE",
"699 175 OFFCURVE",
"307 169 OFFCURVE",
"67 222 CURVE",
"70 50 LINE"
);
},
{
closed = 1;
nodes = (
"328 555 OFFCURVE",
"654 587 OFFCURVE",
"819 547 CURVE",
"829 716 LINE",
"682 755 OFFCURVE",
"302 732 OFFCURVE",
"148 677 CURVE",
"181 512 LINE"
);
}
);
width = 1000;
}
);
unicode = 30CB;
},
{
glyphname = "nu-kata";
lastChange = "2020-03-18 19:21:13 +0000";
layers = (
{
anchors = (
{
name = LSB;
position = "{66, 380}";
},
{
name = RSB;
position = "{927, 380}";
}
);
layerId = "BE1754C0-A605-45AC-AA12-D3A1FC0C380B";
paths = (
{
closed = 1;
nodes = (
"498 66 OFFCURVE",
"767 291 OFFCURVE",
"852 543 CURVE SMOOTH",
"892 661 OFFCURVE",
"838 761 OFFCURVE",
"719 783 CURVE SMOOTH",
"527 820 OFFCURVE",
"261 748 OFFCURVE",
"92 694 CURVE",
"148 525 LINE",
"342 596 OFFCURVE",
"465 625 OFFCURVE",
"611 625 CURVE SMOOTH",
"675 625 OFFCURVE",
"702 601 OFFCURVE",
"680 554 CURVE SMOOTH",
"580 338 OFFCURVE",
"317 167 OFFCURVE",
"98 100 CURVE",
"195 -48 LINE"
);
},
{
closed = 1;
nodes = (
"901 140 LINE",
"750 214 OFFCURVE",
"490 394 OFFCURVE",
"404 503 CURVE",
"262 414 LINE",
"363 305 OFFCURVE",
"617 99 OFFCURVE",
"784 6 CURVE"
);
}
);
width = 1000;
}
);
unicode = 30CC;
},
{
glyphname = "nusmall-kata";
lastChange = "2020-03-18 19:21:13 +0000";
layers = (
{
anchors = (
{
name = LSB;
position = "{134, 380}";
},
{
name = RSB;
position = "{862, 380}";
}
);
layerId = "BE1754C0-A605-45AC-AA12-D3A1FC0C380B";
paths = (
{
closed = 1;
nodes = (
"259 -71 LINE SMOOTH",
"363 -32 OFFCURVE",
"462 24 OFFCURVE",
"547 90 CURVE",
"613 40 OFFCURVE",
"673 0 OFFCURVE",
"722 -27 CURVE SMOOTH",
"729 -31 LINE",
"836 92 LINE",
"825 98 LINE",
"779 120 OFFCURVE",
"720 155 OFFCURVE",
"660 195 CURVE",
"722 263 OFFCURVE",
"766 335 OFFCURVE",
"790 408 CURVE SMOOTH",
"807 458 OFFCURVE",
"805 506 OFFCURVE",
"782 544 CURVE SMOOTH",
"761 580 OFFCURVE",
"724 604 OFFCURVE",
"676 613 CURVE SMOOTH",
"648 619 OFFCURVE",
"616 621 OFFCURVE",
"581 621 CURVE SMOOTH",
"472 621 OFFCURVE",
"338 595 OFFCURVE",
"170 541 CURVE SMOOTH",
"160 538 LINE",
"211 384 LINE",
"221 387 LINE",
"381 446 OFFCURVE",
"477 467 OFFCURVE",
"588 467 CURVE SMOOTH",
"614 467 OFFCURVE",
"631 462 OFFCURVE",
"637 452 CURVE",
"641 446 OFFCURVE",
"640 437 OFFCURVE",
"634 424 CURVE SMOOTH",
"612 377 OFFCURVE",
"579 330 OFFCURVE",
"536 285 CURVE",
"488 324 OFFCURVE",
"452 359 OFFCURVE",
"430 385 CURVE",
"425 392 LINE",
"293 310 LINE",
"302 301 LINE",
"329 271 OFFCURVE",
"372 232 OFFCURVE",
"422 189 CURVE",
"346 135 OFFCURVE",
"259 92 OFFCURVE",
"175 66 CURVE SMOOTH",
"162 62 LINE",
"251 -74 LINE"
);
}
);
width = 1000;
}
);
unicode = 31F4;
},
{
glyphname = "ne-kata";
lastChange = "2020-03-18 19:21:13 +0000";
layers = (
{
anchors = (
{
name = LSB;
position = "{18, 380}";
},
{
name = RSB;
position = "{969, 380}";
}
);
layerId = "BE1754C0-A605-45AC-AA12-D3A1FC0C380B";
paths = (
{
closed = 1;
nodes = (
"373 137 OFFCURVE",
"711 302 OFFCURVE",
"829 500 CURVE SMOOTH",
"886 592 OFFCURVE",
"838 687 OFFCURVE",
"730 699 CURVE SMOOTH",
"571 717 OFFCURVE",
"369 684 OFFCURVE",
"109 614 CURVE",
"145 458 LINE",
"314 506 OFFCURVE",
"545 557 OFFCURVE",
"616 554 CURVE SMOOTH",
"667 552 OFFCURVE",
"673 535 OFFCURVE",
"634 499 CURVE SMOOTH",
"494 370 OFFCURVE",
"251 250 OFFCURVE",
"44 184 CURVE",
"139 44 LINE"
);
},
{
closed = 1;
nodes = (
"626 -61 LINE",
"594 67 OFFCURVE",
"599 197 OFFCURVE",
"614 317 CURVE",
"447 276 LINE",
"432 166 OFFCURVE",
"439 24 OFFCURVE",
"459 -73 CURVE"
);
},
{
closed = 1;
nodes = (
"943 210 LINE",
"816 242 OFFCURVE",
"693 318 OFFCURVE",
"619 373 CURVE",
"524 261 LINE",
"611 179 OFFCURVE",
"728 112 OFFCURVE",
"870 63 CURVE"
);
},
{
closed = 1;
nodes = (
"548 642 LINE",
"510 703 OFFCURVE",
"478 796 OFFCURVE",
"469 871 CURVE",
"311 833 LINE",
"324 747 OFFCURVE",
"351 682 OFFCURVE",
"382 614 CURVE"
);
}
);
width = 1000;
}
);
unicode = 30CD;
},
{
glyphname = "no-kata";
lastChange = "2020-03-18 19:21:13 +0000";
layers = (
{
anchors = (
{
name = LSB;
position = "{111, 380}";
},
{
name = RSB;
position = "{883, 380}";
}
);
layerId = "BE1754C0-A605-45AC-AA12-D3A1FC0C380B";
paths = (
{
closed = 1;
nodes = (
"553 98 OFFCURVE",
"809 478 OFFCURVE",
"857 756 CURVE",
"696 799 LINE",
"624 505 OFFCURVE",
"406 216 OFFCURVE",
"137 78 CURVE",
"260 -56 LINE"
);
}
);
width = 1000;
}
);
unicode = 30CE;
},
{
glyphname = "ha-kata";
lastChange = "2020-03-18 19:21:13 +0000";
layers = (
{
anchors = (
{
name = LSB;
position = "{1, 380}";
},
{
name = RSB;
position = "{990, 380}";
}
);
layerId = "BE1754C0-A605-45AC-AA12-D3A1FC0C380B";
paths = (
{
closed = 1;
nodes = (
"964 53 LINE",
"889 321 OFFCURVE",
"758 628 OFFCURVE",
"645 798 CURVE",
"495 725 LINE",
"591 572 OFFCURVE",
"709 279 OFFCURVE",
"784 -7 CURVE"
);
},
{
closed = 1;
nodes = (
"305 207 OFFCURVE",
"368 465 OFFCURVE",
"386 651 CURVE",
"219 685 LINE",
"193 496 OFFCURVE",
"142 270 OFFCURVE",
"27 54 CURVE",
"198 -19 LINE"
);
}
);
width = 1000;
}
);
unicode = 30CF;
},
{
glyphname = "hasmall-kata";
lastChange = "2020-03-18 19:21:13 +0000";
layers = (
{
anchors = (
{
name = LSB;
position = "{80, 380}";
},
{
name = RSB;
position = "{908, 380}";
}
);
layerId = "BE1754C0-A605-45AC-AA12-D3A1FC0C380B";
paths = (
{
closed = 1;
nodes = (
"882 1 LINE",
"880 10 LINE",
"819 226 OFFCURVE",
"714 473 OFFCURVE",
"623 609 CURVE SMOOTH",
"618 616 LINE",
"480 549 LINE",
"486 540 LINE SMOOTH",
"524 480 OFFCURVE",
"567 391 OFFCURVE",
"607 288 CURVE SMOOTH",
"650 182 OFFCURVE",
"687 67 OFFCURVE",
"716 -43 CURVE SMOOTH",
"719 -54 LINE"
);
},
{
closed = 1;
nodes = (
"266 -55 LINE SMOOTH",
"306 30 OFFCURVE",
"342 128 OFFCURVE",
"369 227 CURVE SMOOTH",
"393 317 OFFCURVE",
"410 406 OFFCURVE",
"418 485 CURVE",
"418 494 LINE",
"266 525 LINE",
"264 514 LINE",
"237 319 OFFCURVE",
"187 155 OFFCURVE",
"112 13 CURVE",
"106 3 LINE",
"262 -63 LINE"
);
}
);
width = 1000;
}
);
unicode = 31F5;
},
{
glyphname = "ba-kata";
lastChange = "2020-03-18 19:21:13 +0000";
layers = (
{
anchors = (
{
name = LSB;
position = "{1, 380}";
},
{
name = RSB;
position = "{1009, 380}";
}
);
layerId = "BE1754C0-A605-45AC-AA12-D3A1FC0C380B";
paths = (
{
closed = 1;
nodes = (
"900 840 LINE",
"918 812 OFFCURVE",
"952 772 OFFCURVE",
"983 750 CURVE",
"930 691 LINE",
"909 705 OFFCURVE",
"856 763 OFFCURVE",
"840 794 CURVE"
);
},
{
closed = 1;
nodes = (
"798 820 LINE",
"811 790 OFFCURVE",
"837 744 OFFCURVE",
"864 717 CURVE",
"804 666 LINE",
"786 684 OFFCURVE",
"739 755 OFFCURVE",
"729 788 CURVE"
);
},
{
closed = 1;
nodes = (
"305 207 OFFCURVE",
"368 465 OFFCURVE",
"386 651 CURVE",
"219 685 LINE",
"193 496 OFFCURVE",
"142 270 OFFCURVE",
"27 54 CURVE",
"198 -19 LINE"
);
},
{
closed = 1;
nodes = (
"964 53 LINE",
"889 321 OFFCURVE",
"758 628 OFFCURVE",
"645 798 CURVE",
"495 725 LINE",
"591 572 OFFCURVE",
"709 279 OFFCURVE",
"784 -7 CURVE"
);
}
);
width = 1000;
}
);
unicode = 30D0;
},
{
glyphname = "pa-kata";
lastChange = "2020-03-18 19:21:13 +0000";
layers = (
{
anchors = (
{
name = LSB;
position = "{1, 380}";
},
{
name = RSB;
position = "{990, 380}";
}
);
layerId = "BE1754C0-A605-45AC-AA12-D3A1FC0C380B";
paths = (
{
closed = 1;
nodes = (
"964 53 LINE",
"889 321 OFFCURVE",
"758 628 OFFCURVE",
"645 798 CURVE",
"495 725 LINE",
"591 572 OFFCURVE",
"709 279 OFFCURVE",
"784 -7 CURVE"
);
},
{
closed = 1;
nodes = (
"305 207 OFFCURVE",
"368 465 OFFCURVE",
"386 651 CURVE",
"219 685 LINE",
"193 496 OFFCURVE",
"142 270 OFFCURVE",
"27 54 CURVE",
"198 -19 LINE"
);
},
{
closed = 1;
nodes = (
"904 639 OFFCURVE",
"947 682 OFFCURVE",
"947 736 CURVE SMOOTH",
"947 790 OFFCURVE",
"904 834 OFFCURVE",
"850 834 CURVE SMOOTH",
"796 834 OFFCURVE",
"753 790 OFFCURVE",
"753 736 CURVE SMOOTH",
"753 682 OFFCURVE",
"796 639 OFFCURVE",
"850 639 CURVE SMOOTH"
);
},
{
closed = 1;
nodes = (
"832 704 OFFCURVE",
"818 719 OFFCURVE",
"818 736 CURVE SMOOTH",
"818 754 OFFCURVE",
"832 768 OFFCURVE",
"850 768 CURVE SMOOTH",
"868 768 OFFCURVE",
"882 754 OFFCURVE",
"882 736 CURVE SMOOTH",
"882 719 OFFCURVE",
"868 704 OFFCURVE",
"850 704 CURVE SMOOTH"
);
}
);
width = 1000;
}
);
unicode = 30D1;
},
{
glyphname = "hi-kata";
lastChange = "2020-03-18 19:21:13 +0000";
layers = (
{
anchors = (
{
name = LSB;
position = "{98.861, 380}";
},
{
name = RSB;
position = "{929, 380}";
}
);
layerId = "BE1754C0-A605-45AC-AA12-D3A1FC0C380B";
paths = (
{
closed = 1;
nodes = (
"491 -72 OFFCURVE",
"705 -52 OFFCURVE",
"903 68 CURVE",
"865 245 LINE",
"725 141 OFFCURVE",
"540 99 OFFCURVE",
"399 120 CURVE SMOOTH",
"340 129 OFFCURVE",
"307 162 OFFCURVE",
"296 226 CURVE SMOOTH",
"273 357 OFFCURVE",
"310 582 OFFCURVE",
"350 757 CURVE",
"185 790 LINE",
"144 609 OFFCURVE",
"115 357 OFFCURVE",
"128 230 CURVE SMOOTH",
"143 75 OFFCURVE",
"200 -4 OFFCURVE",
"312 -30 CURVE SMOOTH"
);
},
{
closed = 1;
nodes = (
"353 423 OFFCURVE",
"667 485 OFFCURVE",
"841 466 CURVE",
"839 638 LINE",
"611 645 OFFCURVE",
"322 579 OFFCURVE",
"210 519 CURVE",
"211 349 LINE"
);
}
);
width = 1000;
}
);
unicode = 30D2;
},
{
glyphname = "hismall-kata";
lastChange = "2020-03-18 19:21:13 +0000";
layers = (
{
anchors = (
{
name = LSB;
position = "{166.431, 380}";
},
{
name = RSB;
position = "{862, 380}";
}
);
layerId = "BE1754C0-A605-45AC-AA12-D3A1FC0C380B";
paths = (
{
closed = 1;
nodes = (
"549 -72 OFFCURVE",
"606 -64 OFFCURVE",
"661 -49 CURVE SMOOTH",
"720 -33 OFFCURVE",
"777 -9 OFFCURVE",
"830 24 CURVE SMOOTH",
"836 28 LINE",
"801 191 LINE",
"789 182 LINE SMOOTH",
"703 118 OFFCURVE",
"587 80 OFFCURVE",
"481 80 CURVE SMOOTH",
"461 80 OFFCURVE",
"442 81 OFFCURVE",
"423 84 CURVE SMOOTH",
"380 90 OFFCURVE",
"357 114 OFFCURVE",
"349 160 CURVE SMOOTH",
"344 191 OFFCURVE",
"342 230 OFFCURVE",
"345 277 CURVE",
"456 316 OFFCURVE",
"608 344 OFFCURVE",
"719 344 CURVE SMOOTH",
"739 344 OFFCURVE",
"758 343 OFFCURVE",
"774 341 CURVE",
"786 340 LINE",
"784 498 LINE",
"774 498 LINE",
"765 499 OFFCURVE",
"756 499 OFFCURVE",
"747 499 CURVE SMOOTH",
"628 499 OFFCURVE",
"480 476 OFFCURVE",
"364 440 CURVE",
"372 485 OFFCURVE",
"381 533 OFFCURVE",
"392 581 CURVE",
"395 591 LINE",
"243 622 LINE",
"241 612 LINE SMOOTH",
"210 475 OFFCURVE",
"184 268 OFFCURVE",
"195 161 CURVE SMOOTH",
"201 97 OFFCURVE",
"216 49 OFFCURVE",
"241 13 CURVE SMOOTH",
"267 -22 OFFCURVE",
"302 -45 OFFCURVE",
"350 -56 CURVE SMOOTH",
"396 -67 OFFCURVE",
"444 -72 OFFCURVE",
"492 -72 CURVE SMOOTH"
);
}
);
width = 1000;
}
);
unicode = 31F6;
},
{
glyphname = "bi-kata";
lastChange = "2020-03-18 19:21:13 +0000";
layers = (
{
anchors = (
{
name = LSB;
position = "{98.861, 380}";
},
{
name = RSB;
position = "{1002, 380}";
}
);
layerId = "BE1754C0-A605-45AC-AA12-D3A1FC0C380B";
paths = (
{
closed = 1;
nodes = (
"491 -72 OFFCURVE",
"705 -52 OFFCURVE",
"903 68 CURVE",
"865 245 LINE",
"725 141 OFFCURVE",
"540 99 OFFCURVE",
"399 120 CURVE SMOOTH",
"340 129 OFFCURVE",
"307 162 OFFCURVE",
"296 226 CURVE SMOOTH",
"273 357 OFFCURVE",
"310 582 OFFCURVE",
"350 757 CURVE",
"185 790 LINE",
"144 609 OFFCURVE",
"115 357 OFFCURVE",
"128 230 CURVE SMOOTH",
"143 75 OFFCURVE",
"200 -4 OFFCURVE",
"312 -30 CURVE SMOOTH"
);
},
{
closed = 1;
nodes = (
"353 423 OFFCURVE",
"667 485 OFFCURVE",
"841 466 CURVE",
"839 638 LINE",
"611 645 OFFCURVE",
"322 579 OFFCURVE",
"210 519 CURVE",
"211 349 LINE"
);
},
{
closed = 1;
nodes = (
"857 717 LINE",
"830 745 OFFCURVE",
"803 790 OFFCURVE",
"790 821 CURVE",
"722 789 LINE",
"732 755 OFFCURVE",
"778 684 OFFCURVE",
"796 666 CURVE"
);
},
{
closed = 1;
nodes = (
"976 750 LINE",
"944 773 OFFCURVE",
"910 812 OFFCURVE",
"892 840 CURVE",
"833 794 LINE",
"849 763 OFFCURVE",
"901 706 OFFCURVE",
"922 691 CURVE"
);
}
);
width = 1000;
}
);
unicode = 30D3;
},
{
glyphname = "pi-kata";
lastChange = "2020-03-18 19:21:13 +0000";
layers = (
{
anchors = (
{
name = LSB;
position = "{98.861, 380}";
},
{
name = RSB;
position = "{1010, 380}";
}
);
layerId = "BE1754C0-A605-45AC-AA12-D3A1FC0C380B";
paths = (
{
closed = 1;
nodes = (
"491 -72 OFFCURVE",
"705 -52 OFFCURVE",
"903 68 CURVE",
"865 245 LINE",
"725 141 OFFCURVE",
"540 99 OFFCURVE",
"399 120 CURVE SMOOTH",
"340 129 OFFCURVE",
"307 162 OFFCURVE",
"296 226 CURVE SMOOTH",
"273 357 OFFCURVE",
"310 582 OFFCURVE",
"350 757 CURVE",
"185 790 LINE",
"144 609 OFFCURVE",
"115 357 OFFCURVE",
"128 230 CURVE SMOOTH",
"143 75 OFFCURVE",
"200 -4 OFFCURVE",
"312 -30 CURVE SMOOTH"
);
},
{
closed = 1;
nodes = (
"353 423 OFFCURVE",
"667 485 OFFCURVE",
"841 466 CURVE",
"839 638 LINE",
"611 645 OFFCURVE",
"322 579 OFFCURVE",
"210 519 CURVE",
"211 349 LINE"
);
},
{
closed = 1;
nodes = (
"940 668 OFFCURVE",
"984 712 OFFCURVE",
"984 766 CURVE SMOOTH",
"984 819 OFFCURVE",
"940 863 OFFCURVE",
"887 863 CURVE SMOOTH",
"833 863 OFFCURVE",
"789 819 OFFCURVE",
"789 766 CURVE SMOOTH",
"789 712 OFFCURVE",
"833 668 OFFCURVE",
"887 668 CURVE SMOOTH"
);
},
{
closed = 1;
nodes = (
"869 734 OFFCURVE",
"855 748 OFFCURVE",
"855 766 CURVE SMOOTH",
"855 783 OFFCURVE",
"869 797 OFFCURVE",
"887 797 CURVE SMOOTH",
"904 797 OFFCURVE",
"919 783 OFFCURVE",
"919 766 CURVE SMOOTH",
"919 748 OFFCURVE",
"904 734 OFFCURVE",
"887 734 CURVE SMOOTH"
);
}
);
width = 1000;
}
);
unicode = 30D4;
},
{
glyphname = "hu-kata";
lastChange = "2020-03-18 19:21:13 +0000";
layers = (
{
anchors = (
{
name = LSB;
position = "{42, 380}";
},
{
name = RSB;
position = "{932.642, 380}";
}
);
layerId = "BE1754C0-A605-45AC-AA12-D3A1FC0C380B";
paths = (
{
closed = 1;
nodes = (
"694 95 OFFCURVE",
"860 312 OFFCURVE",
"901 529 CURVE SMOOTH",
"927 671 OFFCURVE",
"863 755 OFFCURVE",
"712 773 CURVE SMOOTH",
"540 794 OFFCURVE",
"290 753 OFFCURVE",
"68 677 CURVE",
"127 510 LINE",
"325 579 OFFCURVE",
"501 614 OFFCURVE",
"654 609 CURVE SMOOTH",
"711 607 OFFCURVE",
"739 572 OFFCURVE",
"724 520 CURVE SMOOTH",
"672 334 OFFCURVE",
"485 158 OFFCURVE",
"322 58 CURVE",
"466 -67 LINE"
);
}
);
width = 1000;
}
);
unicode = 30D5;
},
{
glyphname = "husmall-kata";
lastChange = "2020-03-18 19:21:13 +0000";
layers = (
{
anchors = (
{
name = LSB;
position = "{113, 380}";
},
{
name = RSB;
position = "{858.801, 380}";
}
);
layerId = "BE1754C0-A605-45AC-AA12-D3A1FC0C380B";
paths = (
{
closed = 1;
nodes = (
"476 -85 LINE SMOOTH",
"568 -20 OFFCURVE",
"648 58 OFFCURVE",
"708 139 CURVE SMOOTH",
"771 224 OFFCURVE",
"812 312 OFFCURVE",
"828 398 CURVE SMOOTH",
"839 456 OFFCURVE",
"831 504 OFFCURVE",
"805 539 CURVE SMOOTH",
"778 575 OFFCURVE",
"732 597 OFFCURVE",
"668 605 CURVE SMOOTH",
"644 608 OFFCURVE",
"617 610 OFFCURVE",
"589 610 CURVE SMOOTH",
"461 610 OFFCURVE",
"300 580 OFFCURVE",
"148 528 CURVE SMOOTH",
"139 525 LINE",
"193 372 LINE",
"202 375 LINE SMOOTH",
"355 428 OFFCURVE",
"484 454 OFFCURVE",
"597 454 CURVE SMOOTH",
"620 454 LINE",
"640 453 OFFCURVE",
"655 447 OFFCURVE",
"663 436 CURVE SMOOTH",
"670 426 OFFCURVE",
"672 412 OFFCURVE",
"667 395 CURVE SMOOTH",
"648 329 OFFCURVE",
"605 258 OFFCURVE",
"542 189 CURVE SMOOTH",
"487 130 OFFCURVE",
"419 74 OFFCURVE",
"350 32 CURVE SMOOTH",
"338 25 LINE",
"469 -90 LINE"
);
}
);
width = 1000;
}
);
unicode = 31F7;
},
{
glyphname = "bu-kata";
lastChange = "2020-03-18 19:21:13 +0000";
layers = (
{
anchors = (
{
name = LSB;
position = "{42, 380}";
},
{
name = RSB;
position = "{1001, 380}";
}
);
layerId = "BE1754C0-A605-45AC-AA12-D3A1FC0C380B";
paths = (
{
closed = 1;
nodes = (
"694 95 OFFCURVE",
"860 312 OFFCURVE",
"901 529 CURVE SMOOTH",
"915 605 OFFCURVE",
"903 664 OFFCURVE",
"866 705 CURVE",
"794 644 LINE",
"774 664 LINE SMOOTH",
"756 682 OFFCURVE",
"721 735 OFFCURVE",
"702 774 CURVE",
"530 792 OFFCURVE",
"286 752 OFFCURVE",
"68 677 CURVE",
"127 510 LINE",
"325 579 OFFCURVE",
"501 614 OFFCURVE",
"654 609 CURVE SMOOTH",
"711 607 OFFCURVE",
"739 572 OFFCURVE",
"724 520 CURVE SMOOTH",
"672 334 OFFCURVE",
"485 158 OFFCURVE",
"322 58 CURVE",
"466 -67 LINE"
);
},
{
closed = 1;
nodes = (
"856 736 LINE",
"829 763 OFFCURVE",
"802 809 OFFCURVE",
"789 839 CURVE",
"720 807 LINE",
"731 774 OFFCURVE",
"777 703 OFFCURVE",
"795 685 CURVE"
);
},
{
closed = 1;
nodes = (
"975 769 LINE",
"943 791 OFFCURVE",
"909 831 OFFCURVE",
"891 859 CURVE",
"832 813 LINE",
"847 782 OFFCURVE",
"900 724 OFFCURVE",
"921 710 CURVE"
);
}
);
width = 1000;
}
);
unicode = 30D6;
},
{
glyphname = "pu-kata";
lastChange = "2020-03-18 19:21:13 +0000";
layers = (
{
anchors = (
{
name = LSB;
position = "{42, 380}";
},
{
name = RSB;
position = "{981, 380}";
}
);
layerId = "BE1754C0-A605-45AC-AA12-D3A1FC0C380B";
paths = (
{
closed = 1;
nodes = (
"694 95 OFFCURVE",
"860 312 OFFCURVE",
"901 529 CURVE SMOOTH",
"907 561 OFFCURVE",
"908 590 OFFCURVE",
"905 617 CURVE",
"890 611 OFFCURVE",
"874 608 OFFCURVE",
"857 608 CURVE SMOOTH",
"787 608 OFFCURVE",
"730 665 OFFCURVE",
"730 735 CURVE SMOOTH",
"730 747 OFFCURVE",
"732 758 OFFCURVE",
"735 770 CURVE",
"712 773 LINE SMOOTH",
"540 794 OFFCURVE",
"290 753 OFFCURVE",
"68 677 CURVE",
"127 510 LINE",
"325 579 OFFCURVE",
"501 614 OFFCURVE",
"654 609 CURVE SMOOTH",
"711 607 OFFCURVE",
"739 572 OFFCURVE",
"724 520 CURVE SMOOTH",
"672 334 OFFCURVE",
"485 158 OFFCURVE",
"322 58 CURVE",
"466 -67 LINE"
);
},
{
closed = 1;
nodes = (
"911 637 OFFCURVE",
"955 681 OFFCURVE",
"955 735 CURVE SMOOTH",
"955 788 OFFCURVE",
"911 832 OFFCURVE",
"857 832 CURVE SMOOTH",
"804 832 OFFCURVE",
"760 788 OFFCURVE",
"760 735 CURVE SMOOTH",
"760 681 OFFCURVE",
"804 637 OFFCURVE",
"857 637 CURVE SMOOTH"
);
},
{
closed = 1;
nodes = (
"840 703 OFFCURVE",
"826 717 OFFCURVE",
"826 735 CURVE SMOOTH",
"826 752 OFFCURVE",
"840 767 OFFCURVE",
"857 767 CURVE SMOOTH",
"875 767 OFFCURVE",
"889 752 OFFCURVE",
"889 735 CURVE SMOOTH",
"889 717 OFFCURVE",
"875 703 OFFCURVE",
"857 703 CURVE SMOOTH"
);
}
);
width = 1000;
}
);
unicode = 30D7;
},
{
glyphname = "he-kata";
lastChange = "2020-03-18 19:21:13 +0000";
layers = (
{
anchors = (
{
name = LSB;
position = "{-7, 380}";
},
{
name = RSB;
position = "{999, 380}";
}
);
layerId = "BE1754C0-A605-45AC-AA12-D3A1FC0C380B";
paths = (
{
closed = 1;
nodes = (
"973 147 LINE",
"783 393 OFFCURVE",
"635 557 OFFCURVE",
"546 637 CURVE SMOOTH",
"463 710 OFFCURVE",
"398 711 OFFCURVE",
"311 638 CURVE SMOOTH",
"242 581 OFFCURVE",
"88 408 OFFCURVE",
"19 271 CURVE",
"143 169 LINE",
"214 281 OFFCURVE",
"288 379 OFFCURVE",
"361 460 CURVE SMOOTH",
"409 514 OFFCURVE",
"440 515 OFFCURVE",
"486 466 CURVE SMOOTH",
"543 405 OFFCURVE",
"703 231 OFFCURVE",
"860 7 CURVE"
);
}
);
width = 1000;
}
);
unicode = 30D8;
},
{
glyphname = "hesmall-kata";
lastChange = "2020-03-18 19:21:13 +0000";
layers = (
{
anchors = (
{
name = LSB;
position = "{76, 380}";
},
{
name = RSB;
position = "{917, 380}";
}
);
layerId = "BE1754C0-A605-45AC-AA12-D3A1FC0C380B";
paths = (
{
closed = 1;
nodes = (
"891 88 LINE",
"886 94 LINE",
"749 271 OFFCURVE",
"624 415 OFFCURVE",
"543 488 CURVE SMOOTH",
"507 519 OFFCURVE",
"475 534 OFFCURVE",
"443 534 CURVE SMOOTH",
"411 534 OFFCURVE",
"379 520 OFFCURVE",
"342 489 CURVE SMOOTH",
"312 464 OFFCURVE",
"267 416 OFFCURVE",
"224 364 CURVE SMOOTH",
"188 321 OFFCURVE",
"138 255 OFFCURVE",
"106 192 CURVE",
"102 185 LINE",
"216 91 LINE",
"223 100 LINE",
"278 188 OFFCURVE",
"336 266 OFFCURVE",
"396 332 CURVE SMOOTH",
"414 352 OFFCURVE",
"428 362 OFFCURVE",
"441 362 CURVE SMOOTH",
"452 362 OFFCURVE",
"465 354 OFFCURVE",
"481 336 CURVE SMOOTH",
"590 220 OFFCURVE",
"694 93 OFFCURVE",
"779 -30 CURVE",
"787 -40 LINE"
);
}
);
width = 1000;
}
);
unicode = 31F8;
},
{
glyphname = "be-kata";
lastChange = "2020-03-18 19:21:13 +0000";
layers = (
{
anchors = (
{
name = LSB;
position = "{-7, 380}";
},
{
name = RSB;
position = "{999, 380}";
}
);
layerId = "BE1754C0-A605-45AC-AA12-D3A1FC0C380B";
paths = (
{
closed = 1;
nodes = (
"853 702 LINE",
"871 674 OFFCURVE",
"905 635 OFFCURVE",
"936 612 CURVE",
"882 553 LINE",
"861 568 OFFCURVE",
"809 626 OFFCURVE",
"793 656 CURVE"
);
},
{
closed = 1;
nodes = (
"751 683 LINE",
"763 652 OFFCURVE",
"790 607 OFFCURVE",
"817 579 CURVE",
"757 528 LINE",
"739 546 OFFCURVE",
"692 618 OFFCURVE",
"682 651 CURVE"
);
},
{
closed = 1;
nodes = (
"973 147 LINE",
"783 393 OFFCURVE",
"635 557 OFFCURVE",
"546 637 CURVE SMOOTH",
"463 710 OFFCURVE",
"398 711 OFFCURVE",
"311 638 CURVE SMOOTH",
"242 581 OFFCURVE",
"88 408 OFFCURVE",
"19 271 CURVE",
"143 169 LINE",
"214 281 OFFCURVE",
"288 379 OFFCURVE",
"361 460 CURVE SMOOTH",
"409 514 OFFCURVE",
"440 515 OFFCURVE",
"486 466 CURVE SMOOTH",
"543 405 OFFCURVE",
"703 231 OFFCURVE",
"860 7 CURVE"
);
}
);
width = 1000;
}
);
unicode = 30D9;
},
{
glyphname = "pe-kata";
lastChange = "2020-03-18 19:21:13 +0000";
layers = (
{
anchors = (
{
name = LSB;
position = "{-7, 380}";
},
{
name = RSB;
position = "{999, 380}";
}
);
layerId = "BE1754C0-A605-45AC-AA12-D3A1FC0C380B";
paths = (
{
closed = 1;
nodes = (
"973 147 LINE",
"783 393 OFFCURVE",
"635 557 OFFCURVE",
"546 637 CURVE SMOOTH",
"463 710 OFFCURVE",
"398 711 OFFCURVE",
"311 638 CURVE SMOOTH",
"242 581 OFFCURVE",
"88 408 OFFCURVE",
"19 271 CURVE",
"143 169 LINE",
"214 281 OFFCURVE",
"288 379 OFFCURVE",
"361 460 CURVE SMOOTH",
"409 514 OFFCURVE",
"440 515 OFFCURVE",
"486 466 CURVE SMOOTH",
"543 405 OFFCURVE",
"703 231 OFFCURVE",
"860 7 CURVE"
);
},
{
closed = 1;
nodes = (
"833 529 OFFCURVE",
"877 572 OFFCURVE",
"877 626 CURVE SMOOTH",
"877 680 OFFCURVE",
"833 723 OFFCURVE",
"780 723 CURVE SMOOTH",
"726 723 OFFCURVE",
"682 680 OFFCURVE",
"682 626 CURVE SMOOTH",
"682 572 OFFCURVE",
"726 529 OFFCURVE",
"780 529 CURVE SMOOTH"
);
},
{
closed = 1;
nodes = (
"762 594 OFFCURVE",
"748 608 OFFCURVE",
"748 626 CURVE SMOOTH",
"748 643 OFFCURVE",
"762 658 OFFCURVE",
"780 658 CURVE SMOOTH",
"797 658 OFFCURVE",
"811 643 OFFCURVE",
"811 626 CURVE SMOOTH",
"811 608 OFFCURVE",
"797 594 OFFCURVE",
"780 594 CURVE SMOOTH"
);
}
);
width = 1000;
}
);
unicode = 30DA;
},
{
glyphname = "ho-kata";
lastChange = "2020-03-18 19:21:13 +0000";
layers = (
{
anchors = (
{
name = LSB;
position = "{7, 380}";
},
{
name = RSB;
position = "{1022, 380}";
}
);
layerId = "BE1754C0-A605-45AC-AA12-D3A1FC0C380B";
paths = (
{
closed = 1;
nodes = (
"607 -40 LINE",
"528 219 OFFCURVE",
"524 604 OFFCURVE",
"582 814 CURVE",
"418 832 LINE",
"369 572 OFFCURVE",
"360 205 OFFCURVE",
"436 -65 CURVE"
);
},
{
closed = 1;
nodes = (
"272 508 OFFCURVE",
"660 534 OFFCURVE",
"897 527 CURVE",
"895 686 LINE",
"693 689 OFFCURVE",
"279 666 OFFCURVE",
"59 631 CURVE",
"71 471 LINE"
);
},
{
closed = 1;
nodes = (
"996 216 LINE",
"914 272 OFFCURVE",
"797 383 OFFCURVE",
"739 453 CURVE",
"618 353 LINE",
"685 267 OFFCURVE",
"775 159 OFFCURVE",
"894 83 CURVE"
);
},
{
closed = 1;
nodes = (
"216 133 OFFCURVE",
"306 272 OFFCURVE",
"353 334 CURVE",
"226 425 LINE",
"159 339 OFFCURVE",
"70 204 OFFCURVE",
"33 130 CURVE",
"174 45 LINE"
);
}
);
width = 1000;
}
);
unicode = 30DB;
},
{
glyphname = "hosmall-kata";
lastChange = "2020-03-18 19:21:13 +0000";
layers = (
{
anchors = (
{
name = LSB;
position = "{86, 380}";
},
{
name = RSB;
position = "{936, 380}";
}
);
layerId = "BE1754C0-A605-45AC-AA12-D3A1FC0C380B";
paths = (
{
closed = 1;
nodes = (
"598 -63 LINE",
"594 -52 LINE",
"558 66 OFFCURVE",
"539 228 OFFCURVE",
"544 384 CURVE",
"617 388 OFFCURVE",
"688 390 OFFCURVE",
"750 390 CURVE SMOOTH",
"774 390 OFFCURVE",
"796 390 OFFCURVE",
"816 389 CURVE",
"827 389 LINE",
"825 536 LINE",
"815 536 LINE",
"785 536 LINE SMOOTH",
"722 536 OFFCURVE",
"641 534 OFFCURVE",
"555 529 CURVE",
"560 565 OFFCURVE",
"566 598 OFFCURVE",
"574 626 CURVE SMOOTH",
"577 637 LINE",
"425 654 LINE",
"424 645 LINE",
"416 605 OFFCURVE",
"410 564 OFFCURVE",
"405 520 CURVE",
"300 512 OFFCURVE",
"210 502 OFFCURVE",
"145 492 CURVE",
"136 491 LINE",
"147 342 LINE",
"158 344 LINE SMOOTH",
"217 355 OFFCURVE",
"299 365 OFFCURVE",
"394 374 CURVE",
"393 331 OFFCURVE",
"393 289 OFFCURVE",
"394 248 CURVE",
"278 331 LINE",
"272 323 LINE SMOOTH",
"216 252 OFFCURVE",
"145 144 OFFCURVE",
"116 86 CURVE SMOOTH",
"112 78 LINE",
"242 -1 LINE",
"247 9 LINE SMOOTH",
"281 79 OFFCURVE",
"353 190 OFFCURVE",
"389 238 CURVE",
"394 244 LINE",
"398 124 OFFCURVE",
"413 13 OFFCURVE",
"438 -77 CURVE",
"441 -86 LINE"
);
},
{
closed = 1;
nodes = (
"910 152 LINE",
"901 158 LINE SMOOTH",
"835 204 OFFCURVE",
"743 292 OFFCURVE",
"698 346 CURVE SMOOTH",
"691 354 LINE",
"580 261 LINE",
"585 254 LINE",
"643 179 OFFCURVE",
"715 95 OFFCURVE",
"809 35 CURVE SMOOTH",
"817 30 LINE"
);
}
);
width = 1000;
}
);
unicode = 31F9;
},
{
glyphname = "bo-kata";
lastChange = "2020-03-18 19:21:13 +0000";
layers = (
{
anchors = (
{
name = LSB;
position = "{9, 380}";
},
{
name = RSB;
position = "{1024, 380}";
}
);
layerId = "BE1754C0-A605-45AC-AA12-D3A1FC0C380B";
paths = (
{
closed = 1;
nodes = (
"609 -40 LINE",
"530 219 OFFCURVE",
"526 604 OFFCURVE",
"584 814 CURVE",
"420 832 LINE",
"371 572 OFFCURVE",
"362 205 OFFCURVE",
"438 -65 CURVE"
);
},
{
closed = 1;
nodes = (
"218 133 OFFCURVE",
"308 272 OFFCURVE",
"355 334 CURVE",
"228 425 LINE",
"161 339 OFFCURVE",
"72 204 OFFCURVE",
"35 130 CURVE",
"176 45 LINE"
);
},
{
closed = 1;
nodes = (
"274 508 OFFCURVE",
"662 534 OFFCURVE",
"899 527 CURVE",
"897 686 LINE",
"695 689 OFFCURVE",
"281 666 OFFCURVE",
"61 631 CURVE",
"73 471 LINE"
);
},
{
closed = 1;
nodes = (
"998 216 LINE",
"916 272 OFFCURVE",
"799 383 OFFCURVE",
"741 453 CURVE",
"620 353 LINE",
"687 267 OFFCURVE",
"777 159 OFFCURVE",
"896 83 CURVE"
);
},
{
closed = 1;
nodes = (
"840 760 LINE",
"814 783 OFFCURVE",
"787 822 OFFCURVE",
"773 848 CURVE",
"713 815 LINE",
"725 786 OFFCURVE",
"771 725 OFFCURVE",
"789 710 CURVE"
);
},
{
closed = 1;
nodes = (
"944 798 LINE",
"914 816 OFFCURVE",
"881 849 OFFCURVE",
"863 873 CURVE",
"813 827 LINE",
"829 801 OFFCURVE",
"880 753 OFFCURVE",
"900 741 CURVE"
);
}
);
width = 1000;
}
);
unicode = 30DC;
},
{
glyphname = "po-kata";
lastChange = "2020-03-18 19:21:13 +0000";
layers = (
{
anchors = (
{
name = LSB;
position = "{9, 380}";
},
{
name = RSB;
position = "{1024, 380}";
}
);
layerId = "BE1754C0-A605-45AC-AA12-D3A1FC0C380B";
paths = (
{
closed = 1;
nodes = (
"609 -40 LINE",
"559 122 OFFCURVE",
"539 333 OFFCURVE",
"545 520 CURVE",
"673 527 OFFCURVE",
"799 530 OFFCURVE",
"899 527 CURVE",
"897 631 LINE",
"890 629 OFFCURVE",
"883 629 OFFCURVE",
"876 629 CURVE SMOOTH",
"832 629 OFFCURVE",
"793 651 OFFCURVE",
"770 685 CURVE",
"706 684 OFFCURVE",
"633 681 OFFCURVE",
"557 677 CURVE",
"564 728 OFFCURVE",
"573 774 OFFCURVE",
"584 814 CURVE",
"420 832 LINE",
"410 781 OFFCURVE",
"402 725 OFFCURVE",
"396 667 CURVE",
"270 657 OFFCURVE",
"150 645 OFFCURVE",
"61 631 CURVE",
"73 471 LINE",
"153 486 OFFCURVE",
"265 499 OFFCURVE",
"384 509 CURVE",
"376 313 OFFCURVE",
"390 105 OFFCURVE",
"438 -65 CURVE"
);
},
{
closed = 1;
nodes = (
"218 133 OFFCURVE",
"308 272 OFFCURVE",
"355 334 CURVE",
"228 425 LINE",
"161 339 OFFCURVE",
"72 204 OFFCURVE",
"35 130 CURVE",
"176 45 LINE"
);
},
{
closed = 1;
nodes = (
"998 216 LINE",
"916 272 OFFCURVE",
"799 383 OFFCURVE",
"741 453 CURVE",
"620 353 LINE",
"687 267 OFFCURVE",
"777 159 OFFCURVE",
"896 83 CURVE"
);
},
{
closed = 1;
nodes = (
"930 658 OFFCURVE",
"973 702 OFFCURVE",
"973 756 CURVE SMOOTH",
"973 810 OFFCURVE",
"930 853 OFFCURVE",
"876 853 CURVE SMOOTH",
"822 853 OFFCURVE",
"778 810 OFFCURVE",
"778 756 CURVE SMOOTH",
"778 702 OFFCURVE",
"822 658 OFFCURVE",
"876 658 CURVE SMOOTH"
);
},
{
closed = 1;
nodes = (
"858 724 OFFCURVE",
"844 738 OFFCURVE",
"844 756 CURVE SMOOTH",
"844 773 OFFCURVE",
"858 788 OFFCURVE",
"876 788 CURVE SMOOTH",
"893 788 OFFCURVE",
"908 773 OFFCURVE",
"908 756 CURVE SMOOTH",
"908 738 OFFCURVE",
"893 724 OFFCURVE",
"876 724 CURVE SMOOTH"
);
}
);
width = 1000;
}
);
unicode = 30DD;
},
{
glyphname = "ma-kata";
lastChange = "2020-03-18 19:21:13 +0000";
layers = (
{
anchors = (
{
name = LSB;
position = "{6, 380}";
},
{
name = RSB;
position = "{959.79, 380}";
}
);
layerId = "BE1754C0-A605-45AC-AA12-D3A1FC0C380B";
paths = (
{
closed = 1;
nodes = (
"717 194 OFFCURVE",
"884 380 OFFCURVE",
"924 523 CURVE SMOOTH",
"961 651 OFFCURVE",
"891 746 OFFCURVE",
"750 758 CURVE SMOOTH",
"551 776 OFFCURVE",
"280 737 OFFCURVE",
"32 644 CURVE",
"94 480 LINE",
"372 579 OFFCURVE",
"795 669 OFFCURVE",
"727 514 CURVE SMOOTH",
"687 423 OFFCURVE",
"570 288 OFFCURVE",
"452 220 CURVE",
"581 101 LINE"
);
},
{
closed = 1;
nodes = (
"752 45 LINE",
"646 156 OFFCURVE",
"456 300 OFFCURVE",
"335 357 CURVE",
"235 238 LINE",
"361 171 OFFCURVE",
"529 37 OFFCURVE",
"622 -64 CURVE"
);
}
);
width = 1000;
}
);
unicode = 30DE;
},
{
glyphname = "mi-kata";
lastChange = "2020-03-18 19:21:13 +0000";
layers = (
{
anchors = (
{
name = LSB;
position = "{64, 380}";
},
{
name = RSB;
position = "{893, 380}";
}
);
layerId = "BE1754C0-A605-45AC-AA12-D3A1FC0C380B";
paths = (
{
closed = 1;
nodes = (
"838 82 LINE",
"627 171 OFFCURVE",
"318 243 OFFCURVE",
"123 268 CURVE",
"90 108 LINE",
"281 76 OFFCURVE",
"578 9 OFFCURVE",
"787 -80 CURVE"
);
},
{
closed = 1;
nodes = (
"751 376 LINE",
"625 460 OFFCURVE",
"456 526 OFFCURVE",
"296 570 CURVE",
"223 430 LINE",
"371 384 OFFCURVE",
"558 304 OFFCURVE",
"677 227 CURVE"
);
},
{
closed = 1;
nodes = (
"867 671 LINE",
"700 755 OFFCURVE",
"445 818 OFFCURVE",
"241 834 CURVE",
"205 678 LINE",
"391 659 OFFCURVE",
"652 594 OFFCURVE",
"809 512 CURVE"
);
}
);
width = 1000;
}
);
unicode = 30DF;
},
{
glyphname = "mu-kata";
lastChange = "2020-03-18 19:21:13 +0000";
layers = (
{
anchors = (
{
name = LSB;
position = "{69.574, 380}";
},
{
name = RSB;
position = "{1003, 380}";
}
);
layerId = "BE1754C0-A605-45AC-AA12-D3A1FC0C380B";
paths = (
{
closed = 1;
nodes = (
"454 -20 OFFCURVE",
"611 55 OFFCURVE",
"820 157 CURVE",
"742 316 LINE",
"581 228 OFFCURVE",
"462 174 OFFCURVE",
"338 148 CURVE SMOOTH",
"290 138 OFFCURVE",
"267 167 OFFCURVE",
"284 221 CURVE SMOOTH",
"340 399 OFFCURVE",
"436 584 OFFCURVE",
"552 758 CURVE",
"379 813 LINE",
"212 547 OFFCURVE",
"124 291 OFFCURVE",
"101 178 CURVE SMOOTH",
"76 52 OFFCURVE",
"137 -43 OFFCURVE",
"292 -32 CURVE SMOOTH"
);
},
{
closed = 1;
nodes = (
"977 65 LINE",
"879 204 OFFCURVE",
"805 349 OFFCURVE",
"772 460 CURVE",
"620 423 LINE",
"658 289 OFFCURVE",
"741 105 OFFCURVE",
"834 -25 CURVE"
);
}
);
width = 1000;
}
);
unicode = 30E0;
},
{
glyphname = "musmall-kata";
lastChange = "2020-03-18 19:21:13 +0000";
layers = (
{
anchors = (
{
name = LSB;
position = "{147.532, 380}";
},
{
name = RSB;
position = "{929, 380}";
}
);
layerId = "BE1754C0-A605-45AC-AA12-D3A1FC0C380B";
paths = (
{
closed = 1;
nodes = (
"328 -58 OFFCURVE",
"335 -57 OFFCURVE",
"341 -57 CURVE",
"396 -53 OFFCURVE",
"451 -40 OFFCURVE",
"516 -17 CURVE SMOOTH",
"576 4 OFFCURVE",
"639 33 OFFCURVE",
"699 62 CURVE",
"721 21 OFFCURVE",
"743 -15 OFFCURVE",
"766 -47 CURVE SMOOTH",
"772 -55 LINE",
"903 28 LINE",
"897 36 LINE SMOOTH",
"820 145 OFFCURVE",
"761 259 OFFCURVE",
"734 350 CURVE",
"732 359 LINE",
"591 324 LINE",
"593 314 LINE",
"603 281 OFFCURVE",
"616 244 OFFCURVE",
"631 206 CURVE",
"534 156 OFFCURVE",
"458 128 OFFCURVE",
"380 112 CURVE",
"376 111 OFFCURVE",
"372 110 OFFCURVE",
"368 110 CURVE SMOOTH",
"359 110 OFFCURVE",
"353 113 OFFCURVE",
"349 118 CURVE SMOOTH",
"343 126 OFFCURVE",
"343 140 OFFCURVE",
"349 157 CURVE",
"392 295 OFFCURVE",
"462 437 OFFCURVE",
"557 580 CURVE SMOOTH",
"564 591 LINE",
"406 641 LINE",
"402 634 LINE",
"342 540 OFFCURVE",
"289 436 OFFCURVE",
"247 333 CURVE SMOOTH",
"200 221 OFFCURVE",
"183 149 OFFCURVE",
"178 123 CURVE SMOOTH",
"173 97 OFFCURVE",
"172 72 OFFCURVE",
"176 50 CURVE SMOOTH",
"180 26 OFFCURVE",
"189 6 OFFCURVE",
"202 -10 CURVE SMOOTH",
"228 -41 OFFCURVE",
"269 -58 OFFCURVE",
"322 -58 CURVE SMOOTH"
);
}
);
width = 1000;
}
);
unicode = 31FA;
},
{
glyphname = "me-kata";
lastChange = "2020-03-18 19:21:13 +0000";
layers = (
{
anchors = (
{
name = LSB;
position = "{40, 380}";
},
{
name = RSB;
position = "{924, 380}";
}
);
background = {
paths = (
{
closed = 1;
nodes = (
"481 85 OFFCURVE",
"730 480 OFFCURVE",
"815 765 CURVE",
"658 836 LINE",
"565 530 OFFCURVE",
"314 184 OFFCURVE",
"37 59 CURVE",
"172 -57 LINE"
);
},
{
closed = 1;
nodes = (
"885 254 LINE",
"691 376 OFFCURVE",
"409 606 OFFCURVE",
"281 741 CURVE",
"149 632 LINE",
"289 475 OFFCURVE",
"572 244 OFFCURVE",
"793 103 CURVE"
);
}
);
};
layerId = "BE1754C0-A605-45AC-AA12-D3A1FC0C380B";
paths = (
{
closed = 1;
nodes = (
"514 133 OFFCURVE",
"726 476 OFFCURVE",
"816 765 CURVE",
"664 819 LINE",
"571 514 OFFCURVE",
"369 234 OFFCURVE",
"66 65 CURVE",
"188 -69 LINE"
);
},
{
closed = 1;
nodes = (
"898 238 LINE",
"671 376 OFFCURVE",
"413 590 OFFCURVE",
"284 732 CURVE",
"154 633 LINE",
"299 472 OFFCURVE",
"569 235 OFFCURVE",
"793 93 CURVE"
);
}
);
width = 1000;
}
);
unicode = 30E1;
},
